<?xml version="1.0" standalone="no"?>
<!DOCTYPE svg PUBLIC "-//W3C//DTD SVG 1.1//EN" "http://www.w3.org/Graphics/SVG/1.1/DTD/svg11.dtd">
<svg xmlns="http://www.w3.org/2000/svg" xmlns:xlink="http://www.w3.org/1999/xlink" version="1.1" width="6.985cm" height="2.2577777cm" viewBox="0 0 198 64">
<clipPath id="cp0">
<path transform="matrix(1,0,0,-1,-71,783)" d="M 0 0 L 612 0 L 612 792 L 0 792 Z "/>
</clipPath>
<g clip-path="url(#cp0)">
<path transform="matrix(1,0,0,-1,28.566002,31.635986)" d="M 2.81807 -28.3468 C 2.81807 -26.7904 1.55638 -25.52872 0 -25.52872 C -1.55638 -25.52872 -2.81807 -26.7904 -2.81807 -28.3468 C -2.81807 -29.9032 -1.55638 -31.16489 0 -31.16489 C 1.55638 -31.16489 2.81807 -29.9032 2.81807 -28.3468 Z M 0 -28.3468 " fill="rgb(255,0,0)"/>
<path transform="matrix(1,0,0,-1,28.566002,31.635986)" stroke-width=".3985" stroke-linecap="butt" stroke-miterlimit="10" stroke-linejoin="miter" fill="none" stroke="rgb(0,0,0)" d="M 2.81807 -28.3468 C 2.81807 -26.7904 1.55638 -25.52872 0 -25.52872 C -1.55638 -25.52872 -2.81807 -26.7904 -2.81807 -28.3468 C -2.81807 -29.9032 -1.55638 -31.16489 0 -31.16489 C 1.55638 -31.16489 2.81807 -29.9032 2.81807 -28.3468 Z M 0 -28.3468 "/>
<path transform="matrix(1,0,0,-1,28.566002,31.635986)" d="M 27.36719 -14.17339 C 27.36719 -12.61699 26.1055 -11.3553 24.5491 -11.3553 C 22.9927 -11.3553 21.73102 -12.61699 21.73102 -14.17339 C 21.73102 -15.72978 22.9927 -16.99147 24.5491 -16.99147 C 26.1055 -16.99147 27.36719 -15.72978 27.36719 -14.17339 Z M 24.5491 -14.17339 " fill="rgb(0,0,255)"/>
<path transform="matrix(1,0,0,-1,28.566002,31.635986)" stroke-width=".3985" stroke-linecap="butt" stroke-miterlimit="10" stroke-linejoin="miter" fill="none" stroke="rgb(0,0,0)" d="M 27.36719 -14.17339 C 27.36719 -12.61699 26.1055 -11.3553 24.5491 -11.3553 C 22.9927 -11.3553 21.73102 -12.61699 21.73102 -14.17339 C 21.73102 -15.72978 22.9927 -16.99147 24.5491 -16.99147 C 26.1055 -16.99147 27.36719 -15.72978 27.36719 -14.17339 Z M 24.5491 -14.17339 "/>
<path transform="matrix(1,0,0,-1,28.566002,31.635986)" d="M 27.36719 14.17339 C 27.36719 15.72978 26.1055 16.99147 24.5491 16.99147 C 22.9927 16.99147 21.73102 15.72978 21.73102 14.17339 C 21.73102 12.61699 22.9927 11.3553 24.5491 11.3553 C 26.1055 11.3553 27.36719 12.61699 27.36719 14.17339 Z M 24.5491 14.17339 " fill="rgb(255,255,255)"/>
<path transform="matrix(1,0,0,-1,28.566002,31.635986)" stroke-width=".3985" stroke-linecap="butt" stroke-miterlimit="10" stroke-linejoin="miter" fill="none" stroke="rgb(0,0,0)" d="M 27.36719 14.17339 C 27.36719 15.72978 26.1055 16.99147 24.5491 16.99147 C 22.9927 16.99147 21.73102 15.72978 21.73102 14.17339 C 21.73102 12.61699 22.9927 11.3553 24.5491 11.3553 C 26.1055 11.3553 27.36719 12.61699 27.36719 14.17339 Z M 24.5491 14.17339 "/>
<path transform="matrix(1,0,0,-1,28.566002,31.635986)" d="M 2.81807 28.3468 C 2.81807 29.9032 1.55638 31.16489 0 31.16489 C -1.55638 31.16489 -2.81807 29.9032 -2.81807 28.3468 C -2.81807 26.7904 -1.55638 25.52872 0 25.52872 C 1.55638 25.52872 2.81807 26.7904 2.81807 28.3468 Z M 0 28.3468 " fill="rgb(0,0,255)"/>
<path transform="matrix(1,0,0,-1,28.566002,31.635986)" stroke-width=".3985" stroke-linecap="butt" stroke-miterlimit="10" stroke-linejoin="miter" fill="none" stroke="rgb(0,0,0)" d="M 2.81807 28.3468 C 2.81807 29.9032 1.55638 31.16489 0 31.16489 C -1.55638 31.16489 -2.81807 29.9032 -2.81807 28.3468 C -2.81807 26.7904 -1.55638 25.52872 0 25.52872 C 1.55638 25.52872 2.81807 26.7904 2.81807 28.3468 Z M 0 28.3468 "/>
<path transform="matrix(1,0,0,-1,28.566002,31.635986)" d="M -21.73102 14.17339 C -21.73102 15.72978 -22.9927 16.99147 -24.5491 16.99147 C -26.1055 16.99147 -27.36719 15.72978 -27.36719 14.17339 C -27.36719 12.61699 -26.1055 11.3553 -24.5491 11.3553 C -22.9927 11.3553 -21.73102 12.61699 -21.73102 14.17339 Z M -24.5491 14.17339 " fill="rgb(255,255,255)"/>
<path transform="matrix(1,0,0,-1,28.566002,31.635986)" stroke-width=".3985" stroke-linecap="butt" stroke-miterlimit="10" stroke-linejoin="miter" fill="none" stroke="rgb(0,0,0)" d="M -21.73102 14.17339 C -21.73102 15.72978 -22.9927 16.99147 -24.5491 16.99147 C -26.1055 16.99147 -27.36719 15.72978 -27.36719 14.17339 C -27.36719 12.61699 -26.1055 11.3553 -24.5491 11.3553 C -22.9927 11.3553 -21.73102 12.61699 -21.73102 14.17339 Z M -24.5491 14.17339 "/>
<path transform="matrix(1,0,0,-1,28.566002,31.635986)" d="M -21.73102 -14.17339 C -21.73102 -12.61699 -22.9927 -11.3553 -24.5491 -11.3553 C -26.1055 -11.3553 -27.36719 -12.61699 -27.36719 -14.17339 C -27.36719 -15.72978 -26.1055 -16.99147 -24.5491 -16.99147 C -22.9927 -16.99147 -21.73102 -15.72978 -21.73102 -14.17339 Z M -24.5491 -14.17339 " fill="rgb(0,0,255)"/>
<path transform="matrix(1,0,0,-1,28.566002,31.635986)" stroke-width=".3985" stroke-linecap="butt" stroke-miterlimit="10" stroke-linejoin="miter" fill="none" stroke="rgb(0,0,0)" d="M -21.73102 -14.17339 C -21.73102 -12.61699 -22.9927 -11.3553 -24.5491 -11.3553 C -26.1055 -11.3553 -27.36719 -12.61699 -27.36719 -14.17339 C -27.36719 -15.72978 -26.1055 -16.99147 -24.5491 -16.99147 C -22.9927 -16.99147 -21.73102 -15.72978 -21.73102 -14.17339 Z M -24.5491 -14.17339 "/>
<path transform="matrix(1,0,0,-1,28.566002,31.635986)" stroke-width="1.1955299" stroke-linecap="butt" stroke-miterlimit="10" stroke-linejoin="miter" fill="none" stroke="rgb(0,0,255)" d="M 2.62135 -26.83331 L 21.92773 -15.68689 M 0 -25.32947 L 0 25.32947 M -2.62135 -26.83331 L -21.92773 -15.68689 "/>
<path transform="matrix(1,0,0,-1,28.566002,31.635986)" stroke-width=".3985" stroke-linecap="butt" stroke-miterlimit="10" stroke-linejoin="miter" fill="none" stroke="rgb(128,128,128)" d="M 1.51353 -25.72543 L 23.03566 11.55202 M -1.51353 -25.72543 L -23.03566 11.55202 "/>
<path transform="matrix(1,0,0,-1,28.566002,31.635986)" d="M 73.68512 -28.3468 C 73.68512 -26.7904 72.42343 -25.52872 70.86703 -25.52872 C 69.31065 -25.52872 68.04897 -26.7904 68.04897 -28.3468 C 68.04897 -29.9032 69.31065 -31.16489 70.86703 -31.16489 C 72.42343 -31.16489 73.68512 -29.9032 73.68512 -28.3468 Z M 70.86703 -28.3468 " fill="rgb(255,0,0)"/>
<path transform="matrix(1,0,0,-1,28.566002,31.635986)" stroke-width=".3985" stroke-linecap="butt" stroke-miterlimit="10" stroke-linejoin="miter" fill="none" stroke="rgb(0,0,0)" d="M 73.68512 -28.3468 C 73.68512 -26.7904 72.42343 -25.52872 70.86703 -25.52872 C 69.31065 -25.52872 68.04897 -26.7904 68.04897 -28.3468 C 68.04897 -29.9032 69.31065 -31.16489 70.86703 -31.16489 C 72.42343 -31.16489 73.68512 -29.9032 73.68512 -28.3468 Z M 70.86703 -28.3468 "/>
<path transform="matrix(1,0,0,-1,28.566002,31.635986)" d="M 49.13602 -14.17339 C 49.13602 -12.61699 47.87433 -11.3553 46.31793 -11.3553 C 44.76154 -11.3553 43.49985 -12.61699 43.49985 -14.17339 C 43.49985 -15.72978 44.76154 -16.99147 46.31793 -16.99147 C 47.87433 -16.99147 49.13602 -15.72978 49.13602 -14.17339 Z M 46.31793 -14.17339 " fill="rgb(0,0,255)"/>
<path transform="matrix(1,0,0,-1,28.566002,31.635986)" stroke-width=".3985" stroke-linecap="butt" stroke-miterlimit="10" stroke-linejoin="miter" fill="none" stroke="rgb(0,0,0)" d="M 49.13602 -14.17339 C 49.13602 -12.61699 47.87433 -11.3553 46.31793 -11.3553 C 44.76154 -11.3553 43.49985 -12.61699 43.49985 -14.17339 C 43.49985 -15.72978 44.76154 -16.99147 46.31793 -16.99147 C 47.87433 -16.99147 49.13602 -15.72978 49.13602 -14.17339 Z M 46.31793 -14.17339 "/>
<path transform="matrix(1,0,0,-1,28.566002,31.635986)" d="M 98.23424 -14.17339 C 98.23424 -12.61699 96.97255 -11.3553 95.41615 -11.3553 C 93.85976 -11.3553 92.59807 -12.61699 92.59807 -14.17339 C 92.59807 -15.72978 93.85976 -16.99147 95.41615 -16.99147 C 96.97255 -16.99147 98.23424 -15.72978 98.23424 -14.17339 Z M 95.41615 -14.17339 " fill="rgb(0,0,255)"/>
<path transform="matrix(1,0,0,-1,28.566002,31.635986)" stroke-width=".3985" stroke-linecap="butt" stroke-miterlimit="10" stroke-linejoin="miter" fill="none" stroke="rgb(0,0,0)" d="M 98.23424 -14.17339 C 98.23424 -12.61699 96.97255 -11.3553 95.41615 -11.3553 C 93.85976 -11.3553 92.59807 -12.61699 92.59807 -14.17339 C 92.59807 -15.72978 93.85976 -16.99147 95.41615 -16.99147 C 96.97255 -16.99147 98.23424 -15.72978 98.23424 -14.17339 Z M 95.41615 -14.17339 "/>
<path transform="matrix(1,0,0,-1,28.566002,31.635986)" d="M 73.68512 28.3468 C 73.68512 29.9032 72.42343 31.16489 70.86703 31.16489 C 69.31065 31.16489 68.04897 29.9032 68.04897 28.3468 C 68.04897 26.7904 69.31065 25.52872 70.86703 25.52872 C 72.42343 25.52872 73.68512 26.7904 73.68512 28.3468 Z M 70.86703 28.3468 " fill="rgb(0,0,255)"/>
<path transform="matrix(1,0,0,-1,28.566002,31.635986)" stroke-width=".3985" stroke-linecap="butt" stroke-miterlimit="10" stroke-linejoin="miter" fill="none" stroke="rgb(0,0,0)" d="M 73.68512 28.3468 C 73.68512 29.9032 72.42343 31.16489 70.86703 31.16489 C 69.31065 31.16489 68.04897 29.9032 68.04897 28.3468 C 68.04897 26.7904 69.31065 25.52872 70.86703 25.52872 C 72.42343 25.52872 73.68512 26.7904 73.68512 28.3468 Z M 70.86703 28.3468 "/>
<path transform="matrix(1,0,0,-1,28.566002,31.635986)" stroke-width=".19925" stroke-linecap="butt" stroke-miterlimit="10" stroke-linejoin="miter" fill="none" stroke="rgb(0,0,255)" d="M 68.24567 -26.83331 L 48.9393 -15.68689 M 73.4884 -26.83331 L 92.79478 -15.68689 M 70.86703 -25.32947 L 70.86703 25.32947 "/>
<path transform="matrix(1,0,0,-1,28.566002,31.635986)" stroke-width="1.1955299" stroke-linecap="butt" stroke-dasharray="2.98883,2.98883" stroke-miterlimit="10" stroke-linejoin="miter" fill="none" stroke="rgb(255,0,0)" d="M 69.3535 25.72543 L 47.83138 -11.55202 M 49.33527 -14.17339 L 92.39882 -14.17339 M 93.90262 -11.55202 L 72.3805 25.72543 "/>
<path transform="matrix(1,0,0,-1,28.566002,31.635986)" d="M 144.55219 -28.3468 C 144.55219 -26.7904 143.2905 -25.52872 141.7341 -25.52872 C 140.1777 -25.52872 138.91602 -26.7904 138.91602 -28.3468 C 138.91602 -29.9032 140.1777 -31.16489 141.7341 -31.16489 C 143.2905 -31.16489 144.55219 -29.9032 144.55219 -28.3468 Z M 141.7341 -28.3468 " fill="rgb(255,0,0)"/>
<path transform="matrix(1,0,0,-1,28.566002,31.635986)" stroke-width=".3985" stroke-linecap="butt" stroke-miterlimit="10" stroke-linejoin="miter" fill="none" stroke="rgb(0,0,0)" d="M 144.55219 -28.3468 C 144.55219 -26.7904 143.2905 -25.52872 141.7341 -25.52872 C 140.1777 -25.52872 138.91602 -26.7904 138.91602 -28.3468 C 138.91602 -29.9032 140.1777 -31.16489 141.7341 -31.16489 C 143.2905 -31.16489 144.55219 -29.9032 144.55219 -28.3468 Z M 141.7341 -28.3468 "/>
<path transform="matrix(1,0,0,-1,28.566002,31.635986)" d="M 120.00307 -14.17339 C 120.00307 -12.61699 118.74138 -11.3553 117.185 -11.3553 C 115.6286 -11.3553 114.36691 -12.61699 114.36691 -14.17339 C 114.36691 -15.72978 115.6286 -16.99147 117.185 -16.99147 C 118.74138 -16.99147 120.00307 -15.72978 120.00307 -14.17339 Z M 117.185 -14.17339 " fill="rgb(0,0,255)"/>
<path transform="matrix(1,0,0,-1,28.566002,31.635986)" stroke-width=".3985" stroke-linecap="butt" stroke-miterlimit="10" stroke-linejoin="miter" fill="none" stroke="rgb(0,0,0)" d="M 120.00307 -14.17339 C 120.00307 -12.61699 118.74138 -11.3553 117.185 -11.3553 C 115.6286 -11.3553 114.36691 -12.61699 114.36691 -14.17339 C 114.36691 -15.72978 115.6286 -16.99147 117.185 -16.99147 C 118.74138 -16.99147 120.00307 -15.72978 120.00307 -14.17339 Z M 117.185 -14.17339 "/>
<path transform="matrix(1,0,0,-1,28.566002,31.635986)" d="M 169.1013 -14.17339 C 169.1013 -12.61699 167.83961 -11.3553 166.28322 -11.3553 C 164.72682 -11.3553 163.46513 -12.61699 163.46513 -14.17339 C 163.46513 -15.72978 164.72682 -16.99147 166.28322 -16.99147 C 167.83961 -16.99147 169.1013 -15.72978 169.1013 -14.17339 Z M 166.28322 -14.17339 " fill="rgb(0,0,255)"/>
<path transform="matrix(1,0,0,-1,28.566002,31.635986)" stroke-width=".3985" stroke-linecap="butt" stroke-miterlimit="10" stroke-linejoin="miter" fill="none" stroke="rgb(0,0,0)" d="M 169.1013 -14.17339 C 169.1013 -12.61699 167.83961 -11.3553 166.28322 -11.3553 C 164.72682 -11.3553 163.46513 -12.61699 163.46513 -14.17339 C 163.46513 -15.72978 164.72682 -16.99147 166.28322 -16.99147 C 167.83961 -16.99147 169.1013 -15.72978 169.1013 -14.17339 Z M 166.28322 -14.17339 "/>
<path transform="matrix(1,0,0,-1,28.566002,31.635986)" d="M 144.55219 28.3468 C 144.55219 29.9032 143.2905 31.16489 141.7341 31.16489 C 140.1777 31.16489 138.91602 29.9032 138.91602 28.3468 C 138.91602 26.7904 140.1777 25.52872 141.7341 25.52872 C 143.2905 25.52872 144.55219 26.7904 144.55219 28.3468 Z M 141.7341 28.3468 " fill="rgb(0,0,255)"/>
<path transform="matrix(1,0,0,-1,28.566002,31.635986)" stroke-width=".3985" stroke-linecap="butt" stroke-miterlimit="10" stroke-linejoin="miter" fill="none" stroke="rgb(0,0,0)" d="M 144.55219 28.3468 C 144.55219 29.9032 143.2905 31.16489 141.7341 31.16489 C 140.1777 31.16489 138.91602 29.9032 138.91602 28.3468 C 138.91602 26.7904 140.1777 25.52872 141.7341 25.52872 C 143.2905 25.52872 144.55219 26.7904 144.55219 28.3468 Z M 141.7341 28.3468 "/>
<path transform="matrix(1,0,0,-1,28.566002,31.635986)" stroke-width="1.1955299" stroke-linecap="butt" stroke-miterlimit="10" stroke-linejoin="miter" fill="none" stroke="rgb(0,0,255)" d="M 139.11273 -26.83331 L 119.80637 -15.68689 M 144.35547 -26.83331 L 163.66185 -15.68689 M 120.20233 -14.17339 L 163.26588 -14.17339 "/>
<path transform="matrix(1,0,0,-1,28.566002,31.635986)" stroke-width=".19925" stroke-linecap="butt" stroke-miterlimit="10" stroke-linejoin="miter" fill="none" stroke="rgb(0,0,255)" d="M 141.7341 -25.32947 L 141.7341 25.32947 "/>
<path transform="matrix(1,0,0,-1,28.566002,31.635986)" stroke-width=".19925" stroke-linecap="butt" stroke-dasharray="2.98883,2.98883" stroke-miterlimit="10" stroke-linejoin="miter" fill="none" stroke="rgb(255,0,0)" d="M 140.22057 25.72543 L 118.69844 -11.55202 M 164.76967 -11.55202 L 143.24754 25.72543 "/>
</g>
</svg>
