<?xml version="1.0" standalone="no"?>
<!DOCTYPE svg PUBLIC "-//W3C//DTD SVG 1.1//EN" "http://www.w3.org/Graphics/SVG/1.1/DTD/svg11.dtd">
<svg xmlns="http://www.w3.org/2000/svg" xmlns:xlink="http://www.w3.org/1999/xlink" version="1.1" width="2.6105556cm" height="2.6105556cm" viewBox="0 0 74 74">
<clipPath id="cp0">
<path transform="matrix(1,0,0,-1,-3,77)" d="M 0 0 L 81.105 0 L 81.105 79.75 L 0 79.75 Z "/>
</clipPath>
<g clip-path="url(#cp0)">
<text fill-opacity="0" transform="matrix(1,0,-0,1,-3,77)" font-size="9.96264" font-family="CGDZGW+CMMI10" x="3.321" y="-11.351">
P
</text>
<symbol id="font_1_3"><path d="M .263 .316 L .43300003 .316 C .575 .316 .714 .42000002 .714 .532 C .714 .609 .648 .683 .517 .683 L .193 .683 C .17400001 .683 .163 .683 .163 .66400003 C .163 .652 .172 .652 .192 .652 C .205 .652 .223 .651 .235 .65000004 C .25100002 .648 .25700003 .64500004 .25700003 .634 C .25700003 .63000005 .256 .62700003 .25300002 .615 L .119 .078 C .109 .039 .10699999 .031000001 .028 .031000001 C .011 .031000001 0 .031000001 0 .012 C 0 0 .011999998 0 .015000001 0 C .043 0 .11400001 .003 .142 .003 C .163 .003 .185 .002 .206 .002 C .228 .002 .25000003 0 .27100003 0 C .27800003 0 .29100004 0 .29100004 .020000001 C .29100004 .031000001 .28200004 .031000001 .263 .031000001 C .226 .031000001 .198 .031000001 .198 .049000002 C .198 .055000003 .2 .060000002 .201 .066 L .263 .316 M .33500004 .614 C .344 .64900005 .34600002 .652 .38900003 .652 L .48500004 .652 C .568 .652 .621 .625 .621 .55600005 C .621 .517 .601 .43100002 .56200004 .395 C .512 .35000002 .45200002 .342 .40800002 .342 L .26700002 .342 L .33500004 .614 Z "/>
</symbol><use xlink:href="#font_1_3" transform="matrix(9.96264,0,0,-9.96264,.7195057,65.649)"/>
<text fill-opacity="0" transform="matrix(1,0,-0,1,-3,77)" font-size="9.96264" font-family="CGDZGW+CMMI10" x="60.013" y="-11.351">
P
</text>
<use xlink:href="#font_1_3" transform="matrix(9.96264,0,0,-9.96264,57.411507,65.649)"/>
<text fill-opacity="0" transform="matrix(1,0,-0,1,-3,77)" font-size="9.96264" font-family="FELAFL+LMRoman10-Regular" x="50.022 55.561226 58.33084" y="-68.957 -68.957 -68.957">
dis
</text>
<symbol id="font_2_2f"><path d="M .493 .011000001 L .493 .042000003 C .423 .042000003 .41500002 .049000002 .41500002 .098000005 L .41500002 .705 L .271 .694 L .271 .663 C .34100002 .663 .349 .656 .349 .607 L .349 .39100003 C .32 .42700002 .277 .45300004 .22299999 .45300004 C .10500001 .45300004 0 .35500002 0 .22600001 C 0 .09900001 .098 0 .21200001 0 C .276 0 .321 .034 .34600002 .06600001 L .34600002 0 L .493 .011000001 M .34600002 .12900001 C .34600002 .111 .34600002 .109000005 .335 .092 C .305 .044 .26 .022000002 .21700001 .022000002 C .17200002 .022000002 .136 .048 .11200001 .086 C .086 .127 .083000004 .18400002 .083000004 .22500002 C .083000004 .26200002 .085 .32200003 .114 .367 C .13500002 .39800003 .17300001 .43100002 .227 .43100002 C .262 .43100002 .30400002 .41600004 .335 .37100002 C .34600002 .35400003 .34600002 .35200003 .34600002 .33400002 L .34600002 .12900001 Z "/>
</symbol><symbol id="font_2_42"><path d="M .21400002 0 L .21400002 .031000001 C .148 .031000001 .144 .036000002 .144 .075 L .144 .44200003 L .0040000007 .43100002 L .0040000007 .4 C .069000006 .4 .07800001 .39400002 .07800001 .34500003 L .07800001 .076000005 C .07800001 .031000001 .067 .031000001 0 .031000001 L 0 0 L .11000001 .003 C .14500001 .003 .18 .001 .21400002 0 M .15900001 .60400003 C .15900001 .63100004 .136 .657 .10600001 .657 C .072000004 .657 .052 .629 .052 .60400003 C .052 .577 .075 .551 .10500001 .551 C .139 .551 .15900001 .57900006 .15900001 .60400003 Z "/>
</symbol><symbol id="font_2_62"><path d="M .32700002 .13900001 C .32700002 .19200002 .29700002 .22200002 .28500003 .23400001 C .25200003 .26600003 .213 .27400002 .171 .28200004 C .115 .293 .048 .30600002 .048 .36400002 C .048 .39900002 .07400001 .44000003 .16 .44000003 C .27 .44000003 .27500004 .35000002 .277 .31900004 C .27800003 .31000003 .28900003 .31000003 .28900003 .31000003 C .30200002 .31000003 .30200002 .31500003 .30200002 .33400002 L .30200002 .43500003 C .30200002 .45200002 .30200002 .45900002 .291 .45900002 C .286 .45900002 .284 .45900002 .27100003 .44700003 C .26800004 .44300002 .25800002 .43400002 .254 .43100002 C .21600002 .45900002 .17500001 .45900002 .16 .45900002 C .038000003 .45900002 0 .39200002 0 .33600003 C 0 .30100003 .016000003 .27300003 .043000005 .25100002 C .075 .22500002 .10300001 .21900001 .17500001 .20500001 C .197 .20100002 .279 .18500002 .279 .113000005 C .279 .062000003 .24400002 .022000002 .16600001 .022000002 C .082 .022000002 .046000004 .079 .027000003 .16400002 C .024000004 .17700002 .023000002 .18100001 .013000004 .18100001 C 0 .18100001 0 .17400001 0 .15600002 L 0 .024 C 0 .0070000007 0 0 .011000004 0 C .016000003 0 .017 .0010000002 .036000006 .020000001 C .038000003 .022000002 .038000003 .024 .056 .043 C .1 .0010000002 .14500001 0 .16600001 0 C .28100002 0 .32700002 .067 .32700002 .13900001 Z "/>
</symbol><use xlink:href="#font_2_2f" transform="matrix(9.96264,0,0,-9.96264,47.36073,8.152588)"/>
<use xlink:href="#font_2_42" transform="matrix(9.96264,0,0,-9.96264,52.88999,8.042999)"/>
<use xlink:href="#font_2_62" transform="matrix(9.96264,0,0,-9.96264,55.659607,8.152588)"/>
<text fill-opacity="0" transform="matrix(1,0,-0,1,-3,77)" font-size="9.96264" font-family="KNHNJR+CMR10" x="62.256" y="-68.957">
(
</text>
<symbol id="font_3_1"><path d="M .23200002 .00999999 C .23200002 .012999982 .23200002 .014999986 .215 .03199999 C .09 .15799999 .058 .347 .058 .5 C .058 .674 .096 .84800005 .21900001 .97300005 C .23200002 .985 .23200002 .98700005 .23200002 .99 C .23200002 .99700004 .22800002 1 .222 1 C .21200001 1 .12200001 .93200004 .06299999 .805 C .012000002 .69500005 0 .584 0 .5 C 0 .422 .011 .301 .066 .188 C .126 .065 .21200001 0 .222 0 C .22800002 0 .23200002 .0029999912 .23200002 .00999999 Z "/>
</symbol><use xlink:href="#font_3_1" transform="matrix(9.96264,0,0,-9.96264,60.242302,10.533659)"/>
<text fill-opacity="0" transform="matrix(1,0,-0,1,-3,77)" font-size="9.96264" font-family="CGDZGW+CMMI10" x="66.13" y="-68.957">
P
</text>
<use xlink:href="#font_1_3" transform="matrix(9.96264,0,0,-9.96264,63.528503,8.042999)"/>
<text fill-opacity="0" transform="matrix(1,0,-0,1,-3,77)" font-size="9.96264" font-family="KNHNJR+CMR10" x="73.91" y="-68.957">
)
</text>
<symbol id="font_3_2"><path d="M .232 .5 C .232 .578 .22100002 .699 .16600001 .81200004 C .106 .93500006 .020000003 1 .009999998 1 C .0040000007 1 0 .99600005 0 .99 C 0 .98700005 0 .985 .019000001 .967 C .117000006 .86800003 .174 .709 .174 .5 C .174 .329 .137 .153 .012999997 .026999995 C 0 .014999986 0 .012999982 0 .00999999 C 0 .003999993 .0040000007 0 .009999998 0 C .020000003 0 .11000001 .06799999 .169 .195 C .22 .305 .232 .416 .232 .5 Z "/>
</symbol><use xlink:href="#font_3_2" transform="matrix(9.96264,0,0,-9.96264,71.477875,10.533659)"/>
<path transform="matrix(1,0,0,-1,4.21,62.245)" stroke-width=".3985" stroke-linecap="butt" stroke-miterlimit="10" stroke-linejoin="miter" fill="none" stroke="rgb(0,0,0)" d="M 7.40979 0 L 48.82556 0 "/>
<path transform="matrix(1,0,0,-1,53.03556,62.245)" stroke-width=".31879" stroke-linecap="round" stroke-linejoin="round" fill="none" stroke="rgb(0,0,0)" d="M -1.19551 1.59401 C -1.09587 .99626 0 .09961 .29886 0 C 0 -.09961 -1.09587 -.99626 -1.19551 -1.59401 "/>
<text fill-opacity="0" transform="matrix(1,0,-0,1,-3.000002,77)" font-size="9.96264" font-family="KNHNJR+CMR10" x="29.745" y="-4.815">
1
</text>
<symbol id="font_3_3"><path d="M .205 .64000005 C .205 .66400003 .205 .666 .18200003 .666 C .120000005 .60200006 .032000005 .60200006 0 .60200006 L 0 .57100004 C .020000003 .57100004 .07900001 .57100004 .13100001 .597 L .13100001 .079 C .13100001 .043 .128 .031000001 .038000003 .031000001 L .0060000047 .031000001 L .0060000047 0 C .04100001 .003 .128 .003 .168 .003 C .20800002 .003 .29500002 .003 .33000004 0 L .33000004 .031000001 L .29800004 .031000001 C .20800002 .031000001 .205 .042000003 .205 .079 L .205 .64000005 Z "/>
</symbol><use xlink:href="#font_3_3" transform="matrix(9.96264,0,0,-9.96264,27.631674,72.185)"/>
<text fill-opacity="0" transform="matrix(1,0,-0,1,-3.000002,77)" font-size="6.9738503" font-family="QCFPGG+CMMI7" x="34.726" y="-3.321">
P
</text>
<symbol id="font_4_1"><path d="M .27 .31 L .451 .31 C .62000006 .31 .7630001 .418 .7630001 .527 C .7630001 .611 .68100005 .683 .544 .683 L .194 .683 C .174 .683 .162 .683 .162 .661 C .162 .647 .17300001 .647 .195 .647 C .211 .647 .215 .647 .23300001 .64500004 C .253 .643 .255 .64100003 .255 .63100004 C .255 .629 .255 .624 .25100002 .609 L .11900001 .082 C .109000005 .043 .108 .036000002 .030000001 .036000002 C .012000002 .036000002 0 .036000002 0 .014 C 0 .013 0 0 .016000003 0 C .045 0 .117000006 .004 .146 .004 C .16300002 .004 .19800001 .004 .215 .003 C .23500001 .002 .26000002 0 .279 0 C .285 0 .3 0 .3 .022000002 C .3 .036000002 .28800002 .036000002 .268 .036000002 C .26700002 .036000002 .248 .036000002 .23000002 .038000003 C .20700002 .040000003 .20700002 .043 .20700002 .053000003 C .20700002 .054 .20700002 .060000002 .211 .075 L .27 .31 M .342 .61300004 C .35000002 .64400005 .351 .647 .393 .647 L .51000005 .647 C .60300004 .647 .6610001 .619 .6610001 .54800004 C .6610001 .517 .64900005 .43800002 .59900004 .393 C .563 .36100003 .50600004 .342 .434 .342 L .27400002 .342 L .342 .61300004 Z "/>
</symbol><use xlink:href="#font_4_1" transform="matrix(6.9738503,0,0,-6.9738503,32.22114,73.679)"/>
<path transform="matrix(1,0,0,-1,4.21,62.245)" stroke-width=".3985" stroke-linecap="butt" stroke-miterlimit="10" stroke-linejoin="miter" fill="none" stroke="rgb(0,0,0)" d="M 56.69363 48.19243 L 56.69363 7.38203 "/>
<path transform="matrix(0,1,1,0,60.90363,53.049778)" stroke-width=".31879" stroke-linecap="round" stroke-linejoin="round" fill="none" stroke="rgb(0,0,0)" d="M -1.19551 1.59401 C -1.09587 .99626 0 .09961 .29886 0 C 0 -.09961 -1.09587 -.99626 -1.19551 -1.59401 "/>
<path transform="matrix(0,1,1,0,60.90363,54.86297)" stroke-width=".31879" stroke-linecap="round" stroke-linejoin="round" fill="none" stroke="rgb(0,0,0)" d="M -1.19551 1.59401 C -1.09587 .99626 0 .09961 .29886 0 C 0 -.09961 -1.09587 -.99626 -1.19551 -1.59401 "/>
<text fill-opacity="0" transform="matrix(1,0,-0,1,-2.9999924,77)" font-size="9.96264" font-family="CGDZGW+CMMI10" x="67.423" y="-39.027">
i
</text>
<symbol id="font_1_8"><path d="M .255 .636 C .255 .656 .24100001 .672 .21800001 .672 C .19100001 .672 .164 .646 .164 .619 C .164 .6 .17800002 .583 .202 .583 C .22500001 .583 .255 .606 .255 .636 M .179 .26000002 C .19100001 .28900003 .19100001 .291 .201 .31800002 C .209 .33800003 .21400002 .35200003 .21400002 .37100002 C .21400002 .41600004 .18200001 .45300004 .13200001 .45300004 C .038000003 .45300004 0 .30800003 0 .29900002 C 0 .28900003 .01 .28900003 .012 .28900003 C .022000002 .28900003 .023 .291 .028000003 .307 C .055000007 .40100002 .095000006 .43100002 .12900001 .43100002 C .13700001 .43100002 .15400001 .43100002 .15400001 .39900002 C .15400001 .37800002 .14700001 .35700002 .143 .34700003 C .135 .321 .09 .20500001 .07400001 .16200002 C .064 .136 .051000006 .10300001 .051000006 .082 C .051000006 .035 .08500001 0 .133 0 C .22700001 0 .264 .14500001 .264 .15400001 C .264 .16400002 .255 .16400002 .252 .16400002 C .24200003 .16400002 .24200003 .16100001 .237 .14600001 C .21900001 .083000004 .186 .022000002 .135 .022000002 C .118 .022000002 .111 .032 .111 .055000003 C .111 .080000006 .11700001 .094000004 .14000002 .15500002 L .179 .26000002 Z "/>
</symbol><use xlink:href="#font_1_8" transform="matrix(9.96264,0,0,-9.96264,64.71192,38.08259)"/>
<path transform="matrix(1,0,0,-1,4.21,62.245)" stroke-width=".3985" stroke-linecap="butt" stroke-dasharray="2.98883,2.98883" stroke-miterlimit="10" stroke-linejoin="miter" fill="none" stroke="rgb(0,0,0)" d="M 6.92026 6.92375 L 47.87329 47.86841 "/>
<path transform="matrix(.70717,-.70703,-.70703,-.70717,52.08329,14.376591)" stroke-width=".31879" stroke-linecap="round" stroke-linejoin="round" fill="none" stroke="rgb(0,0,0)" d="M -1.19551 1.59401 C -1.09587 .99626 0 .09961 .29886 0 C 0 -.09961 -1.09587 -.99626 -1.19551 -1.59401 "/>
<text fill-opacity="0" transform="matrix(1,0,-0,1,-3,77)" font-size="9.96264" font-family="KNHNJR+CMR10" x="19.625 19.625" y="-49.458 -47.327">
&#x02c6;1
</text>
<symbol id="font_3_4"><path d="M .134 .15399998 L 0 .018000007 L .018 0 L .134 .102 L .24900001 0 L .26700002 .018000007 L .134 .15399998 Z "/>
</symbol><use xlink:href="#font_3_4" transform="matrix(9.96264,0,0,-9.96264,17.780666,22.162174)"/>
<use xlink:href="#font_3_3" transform="matrix(9.96264,0,0,-9.96264,17.511675,29.673)"/>
<text fill-opacity="0" transform="matrix(1,0,-0,1,-3,77)" font-size="6.9738503" font-family="QCFPGG+CMMI7" x="24.606" y="-45.833">
P
</text>
<use xlink:href="#font_4_1" transform="matrix(6.9738503,0,0,-6.9738503,22.101145,31.167)"/>
</g>
</svg>
