<?xml version="1.0" standalone="no"?>
<!DOCTYPE svg PUBLIC "-//W3C//DTD SVG 1.1//EN" "http://www.w3.org/Graphics/SVG/1.1/DTD/svg11.dtd">
<svg xmlns="http://www.w3.org/2000/svg" xmlns:xlink="http://www.w3.org/1999/xlink" version="1.1" width="2.4694445cm" height="2.5752778cm" viewBox="0 0 70 73">
<clipPath id="cp0">
<path transform="matrix(1,0,0,-1,-6,76)" d="M 0 0 L 79.271 0 L 79.271 81.709 L 0 81.709 Z "/>
</clipPath>
<g clip-path="url(#cp0)">
<text fill-opacity="0" transform="matrix(1,0,-0,1,-6,76)" font-size="9.96264" font-family="CGDZGW+CMMI10" x="63.827" y="-68.261">
E
</text>
<symbol id="font_1_2"><path d="M .67 .23300001 C .67200005 .238 .6750001 .245 .6750001 .24700001 C .6750001 .24800001 .6750001 .25800002 .66300005 .25800002 C .65400004 .25800002 .65200007 .252 .65000004 .246 C .58500004 .098000005 .54800004 .031000001 .37700003 .031000001 L .23100002 .031000001 C .21700002 .031000001 .21500002 .031000001 .209 .032 C .19900002 .033 .19600001 .034 .19600001 .042000003 C .19600001 .045 .19600001 .047000002 .201 .065000005 L .269 .33800003 L .36800003 .33800003 C .453 .33800003 .453 .317 .453 .29200003 C .453 .28500003 .453 .273 .44600004 .24300002 C .444 .238 .44300002 .23500001 .44300002 .23200001 C .44300002 .22700001 .44700003 .22100002 .45600003 .22100002 C .46400005 .22100002 .467 .22600001 .47100002 .24100001 L .52800006 .47500002 C .52800006 .48100004 .52300006 .48600003 .51600003 .48600003 C .507 .48600003 .50500005 .48000002 .50200003 .46800002 C .48100007 .39200002 .46300006 .36900002 .371 .36900002 L .277 .36900002 L .337 .61 C .34600002 .64500004 .347 .64900005 .39100003 .64900005 L .53200006 .64900005 C .65400004 .64900005 .6840001 .62 .6840001 .53800005 C .6840001 .514 .6840001 .512 .68000007 .485 C .68000007 .47900003 .679 .47200003 .679 .467 C .679 .462 .68200004 .455 .69100004 .455 C .702 .455 .70300007 .46100003 .70500004 .48000002 L .725 .65300006 C .72800004 .68 .72300005 .68 .6980001 .68 L .193 .68 C .17300001 .68 .163 .68 .163 .66 C .163 .64900005 .172 .64900005 .19100001 .64900005 C .228 .64900005 .25599998 .64900005 .25599998 .63100004 C .25599998 .62700003 .25599998 .625 .251 .60700005 L .119 .078 C .109 .039 .10700001 .031000001 .027999997 .031000001 C .011 .031000001 0 .031000001 0 .012 C 0 0 .009 0 .027999997 0 L .54700005 0 C .57000005 0 .57100004 .001 .57800007 .017 L .67 .23300001 Z "/>
</symbol><use xlink:href="#font_1_2" transform="matrix(9.96264,0,0,-9.96264,58.20558,7.7389984)"/>
<text fill-opacity="0" transform="matrix(1,0,-0,1,-6.000001,76)" font-size="9.96264" font-family="CGDZGW+CMMI10" x="6.641" y="-12.292">
A
</text>
<symbol id="font_1_1"><path d="M .14400001 .115 C .10400002 .048 .065 .034 .021000002 .031000001 C .009000003 .030000001 0 .030000001 0 .011000001 C 0 .0050000004 .0050000027 0 .013 0 C .040000003 0 .07100001 .003 .09900001 .003 C .13200001 .003 .16700001 0 .19900002 0 C .20500001 0 .21800002 0 .21800002 .019000001 C .21800002 .030000001 .20900002 .031000001 .20200002 .031000001 C .17900002 .033 .15500002 .041 .15500002 .066 C .15500002 .078 .16100001 .089 .16900001 .10300001 L .245 .231 L .49600002 .231 C .49800006 .21000001 .512 .074 .512 .064 C .512 .034 .46000004 .031000001 .44000003 .031000001 C .42600003 .031000001 .41600004 .031000001 .41600004 .011000001 C .41600004 0 .42800003 0 .43000004 0 C .47100005 0 .514 .003 .555 .003 C .58 .003 .643 0 .668 0 C .674 0 .686 0 .686 .020000001 C .686 .031000001 .676 .031000001 .663 .031000001 C .601 .031000001 .601 .038000003 .598 .067 L .537 .69200003 C .535 .712 .535 .716 .518 .716 C .502 .716 .49800006 .70900005 .492 .69900006 L .14400001 .115 M .26400003 .26200002 L .46100003 .592 L .493 .26200002 L .26400003 .26200002 Z "/>
</symbol><use xlink:href="#font_1_1" transform="matrix(9.96264,0,0,-9.96264,.98969126,63.708)"/>
<text fill-opacity="0" transform="matrix(1,0,-0,1,-6,76)" font-size="9.96264" font-family="CGDZGW+CMMI10" x="63.274" y="-12.292">
X
</text>
<symbol id="font_1_5"><path d="M .458 .411 L .374 .61 C .37100002 .61800003 .36900002 .62200004 .36900002 .623 C .36900002 .629 .386 .648 .428 .652 C .43800002 .65300006 .448 .65400004 .448 .671 C .448 .683 .43600002 .683 .433 .683 C .39200002 .683 .349 .68 .307 .68 C .282 .68 .22000001 .683 .19500002 .683 C .18900001 .683 .17700002 .683 .17700002 .66300005 C .17700002 .652 .18700002 .652 .20000002 .652 C .26 .652 .266 .642 .275 .62 L .393 .34100002 L .18200001 .11400001 L .16900001 .10300001 C .12 .05 .073 .034 .022000002 .031000001 C .0090000015 .030000001 0 .030000001 0 .011000001 C 0 .010000001 0 0 .013000002 0 C .042999998 0 .076000005 .003 .107 .003 C .14400001 .003 .18300001 0 .21900001 0 C .22500001 0 .237 0 .237 .020000001 C .237 .030000001 .22700001 .031000001 .22500001 .031000001 C .21600002 .032 .18500002 .034 .18500002 .062000003 C .18500002 .078 .20000002 .094000004 .21200001 .10700001 L .314 .215 L .404 .31300002 L .505 .074 C .509 .063 .51 .062000003 .51 .060000002 C .51 .052 .491 .035 .45200002 .031000001 C .441 .030000001 .432 .029000001 .432 .012 C .432 0 .44300002 0 .44700003 0 C .47500002 0 .545 .003 .573 .003 C .598 .003 .65900004 0 .684 0 C .69100004 0 .703 0 .703 .019000001 C .703 .031000001 .693 .031000001 .685 .031000001 C .61800003 .032 .616 .035 .59900004 .075 C .56 .16800001 .49300003 .324 .47 .384 C .538 .45400003 .643 .573 .675 .601 C .704 .625 .74200004 .64900005 .80200005 .652 C .81500006 .65300006 .824 .65300006 .824 .67200005 C .824 .67300004 .824 .683 .81100005 .683 C .781 .683 .748 .68 .717 .68 C .68 .68 .642 .683 .606 .683 C .6 .683 .587 .683 .587 .66300005 C .587 .656 .592 .65300006 .59900004 .652 C .60800004 .651 .639 .64900005 .639 .62100005 C .639 .60700005 .628 .59400004 .62 .58500004 L .458 .411 Z "/>
</symbol><use xlink:href="#font_1_5" transform="matrix(9.96264,0,0,-9.96264,57.542988,63.708)"/>
<path transform="matrix(1,0,0,-1,33.475,32.32)" stroke-width=".3985" stroke-linecap="butt" stroke-miterlimit="10" stroke-linejoin="miter" fill="none" stroke="rgb(0,0,0)" d="M -21.84264 -27.9846 L 19.82079 -27.9846 "/>
<path transform="matrix(1,0,0,-1,53.295788,60.3046)" stroke-width=".31879" stroke-linecap="round" stroke-linejoin="round" fill="none" stroke="rgb(0,0,0)" d="M -1.19551 1.59401 C -1.09587 .99626 0 .09961 .29886 0 C 0 -.09961 -1.09587 -.99626 -1.19551 -1.59401 "/>
<text fill-opacity="0" transform="matrix(1,0,-0,1,-6,76.00001)" font-size="9.96264" font-family="CGDZGW+CMMI10" x="35.718" y="-5.258">
f
</text>
<symbol id="font_1_7"><path d="M .314 .605 L .4 .605 C .42000002 .605 .43 .605 .43 .625 C .43 .63600004 .42000002 .63600004 .40300003 .63600004 L .32000002 .63600004 L .34100002 .75 C .34500003 .771 .35900003 .842 .365 .8540001 C .374 .873 .39100003 .888 .41200003 .888 C .416 .888 .44200003 .888 .461 .87 C .41700003 .86600006 .407 .8310001 .407 .816 C .407 .793 .425 .781 .444 .781 C .47 .781 .49900004 .8030001 .49900004 .8410001 C .49900004 .8870001 .45300004 .9100001 .41200003 .9100001 C .37800002 .9100001 .31500003 .8920001 .28500003 .793 C .279 .7720001 .27600002 .7620001 .252 .63600004 L .18300001 .63600004 C .164 .63600004 .15300001 .63600004 .15300001 .61700004 C .15300001 .605 .162 .605 .18100001 .605 L .24700001 .605 L .172 .21000001 C .15400001 .113000005 .13700001 .022 .08500001 .022 C .081 .022 .056 .022 .037 .040000007 C .083000004 .043000013 .09200001 .07900001 .09200001 .094000004 C .09200001 .117000006 .074 .12900001 .055 .12900001 C .029 .12900001 0 .10700001 0 .069000006 C 0 .024000004 .044 0 .08500001 0 C .14 0 .18 .059 .19800001 .09700001 C .23000002 .16000001 .25300002 .28100002 .254 .28800002 L .314 .605 Z "/>
</symbol><use xlink:href="#font_1_7" transform="matrix(9.96264,0,0,-9.96264,30.24602,72.78435)"/>
<path transform="matrix(1,0,0,-1,33.475,32.32)" stroke-width=".3985" stroke-linecap="butt" stroke-miterlimit="10" stroke-linejoin="miter" fill="none" stroke="rgb(0,0,0)" d="M 28.31671 21.06085 L 28.31671 -20.60257 "/>
<path transform="matrix(0,1,1,0,61.79171,51.109367)" stroke-width=".31879" stroke-linecap="round" stroke-linejoin="round" fill="none" stroke="rgb(0,0,0)" d="M -1.19551 1.59401 C -1.09587 .99626 0 .09961 .29886 0 C 0 -.09961 -1.09587 -.99626 -1.19551 -1.59401 "/>
<path transform="matrix(0,1,1,0,61.79171,52.92257)" stroke-width=".31879" stroke-linecap="round" stroke-linejoin="round" fill="none" stroke="rgb(0,0,0)" d="M -1.19551 1.59401 C -1.09587 .99626 0 .09961 .29886 0 C 0 -.09961 -1.09587 -.99626 -1.19551 -1.59401 "/>
<text fill-opacity="0" transform="matrix(1,0,-0,1,-6,76)" font-size="9.96264" font-family="CGDZGW+CMMI10" x="71.311" y="-41.536">
e
</text>
<symbol id="font_1_6"><path d="M .141 .24200001 C .17 .24200001 .24400002 .24400002 .294 .26500002 C .36400002 .29500002 .36900002 .35400003 .36900002 .36800003 C .36900002 .41200003 .331 .45300004 .26200002 .45300004 C .15100001 .45300004 0 .35600004 0 .18100001 C 0 .079 .059 0 .157 0 C .3 0 .384 .106000006 .384 .11800001 C .384 .124000005 .37800002 .13100001 .372 .13100001 C .367 .13100001 .365 .12900001 .35900003 .12100001 C .28 .022000002 .171 .022000002 .15900001 .022000002 C .081 .022000002 .072000004 .106000006 .072000004 .13800001 C .072000004 .15000002 .073 .18100001 .088 .24200001 L .141 .24200001 M .094 .26400003 C .133 .41600004 .236 .43100002 .26200002 .43100002 C .30900002 .43100002 .33600003 .40200004 .33600003 .36800003 C .33600003 .26400003 .17600001 .26400003 .135 .26400003 L .094 .26400003 Z "/>
</symbol><use xlink:href="#font_1_6" transform="matrix(9.96264,0,0,-9.96264,65.76928,34.57359)"/>
<path transform="matrix(1,0,0,-1,33.475,32.32)" stroke-width=".3985" stroke-linecap="butt" stroke-dasharray="2.98883,2.98883" stroke-miterlimit="10" stroke-linejoin="miter" fill="none" stroke="rgb(0,0,0)" d="M -21.99672 -21.06084 L 20.88943 20.74101 "/>
<path transform="matrix(.71608,-.69797,-.69797,-.71608,54.364418,11.579)" stroke-width=".31879" stroke-linecap="round" stroke-linejoin="round" fill="none" stroke="rgb(0,0,0)" d="M -1.19551 1.59401 C -1.09587 .99626 0 .09961 .29886 0 C 0 -.09961 -1.09587 -.99626 -1.19551 -1.59401 "/>
<text fill-opacity="0" transform="matrix(1,0,-0,1,-6.000002,76)" font-size="9.96264" font-family="KNHNJR+CMR10" x="31.761" y="-51.766">
&#x02c6;
</text>
<symbol id="font_2_4"><path d="M .134 .15399998 L 0 .018000007 L .018 0 L .134 .102 L .24900001 0 L .26700002 .018000007 L .134 .15399998 Z "/>
</symbol><use xlink:href="#font_2_4" transform="matrix(9.96264,0,0,-9.96264,26.916664,18.854176)"/>
<text fill-opacity="0" transform="matrix(1,0,-0,1,-6.000002,76)" font-size="9.96264" font-family="CGDZGW+CMMI10" x="29.616" y="-49.137">
f
</text>
<use xlink:href="#font_1_7" transform="matrix(9.96264,0,0,-9.96264,24.144018,28.90534)"/>
</g>
</svg>
