<?xml version="1.0" standalone="no"?>
<!DOCTYPE svg PUBLIC "-//W3C//DTD SVG 1.1//EN" "http://www.w3.org/Graphics/SVG/1.1/DTD/svg11.dtd">
<svg xmlns="http://www.w3.org/2000/svg" xmlns:xlink="http://www.w3.org/1999/xlink" version="1.1" width="8.078611cm" height="2.54cm" viewBox="0 0 229 72">
<clipPath id="cp0">
<path transform="matrix(1,0,0,-1,-72,792)" d="M 0 0 L 612 0 L 612 792 L 0 792 Z "/>
</clipPath>
<g clip-path="url(#cp0)">
<path transform="matrix(1,0,0,-1,142.131,71.23102)" stroke-width=".79701" stroke-linecap="butt" stroke-miterlimit="10" stroke-linejoin="miter" fill="none" stroke="rgb(0,0,0)" d="M -141.73404 56.69362 L 56.69362 56.69362 "/>
<text fill-opacity="0" transform="matrix(1,0,-0,1,-72,792)" font-size="7.97011" font-family="WUOZIU+CMMI8" x="275.207" y="-775.47">
&#x03b1;
</text>
<symbol id="font_1_1"><path d="M .46600005 .15 C .559 .252 .592 .382 .592 .39000002 C .592 .39900002 .586 .403 .577 .403 C .564 .403 .563 .39900002 .557 .37800002 C .529 .276 .469 .19800001 .46600005 .19800001 C .46400002 .19800001 .46400002 .22300002 .46400002 .23900002 C .46200004 .41500002 .34800002 .451 .28 .451 C .13900001 .451 0 .314 0 .17300001 C 0 .074 .069000006 0 .17500001 0 C .245 0 .319 .025000002 .39800003 .084 C .42000002 .0050000004 .47800002 0 .49600002 0 C .553 0 .586 .051000003 .586 .07 C .586 .082 .574 .082 .571 .082 C .56 .082 .558 .079 .555 .072000004 C .539 .030000001 .505 .028 .5 .028 C .48600003 .028 .47 .028 .46600005 .15 M .39100003 .117000006 C .32000002 .053000003 .236 .028 .17800002 .028 C .126 .028 .081 .058000002 .081 .13800001 C .081 .17300001 .097 .276 .14400001 .343 C .18400002 .39900002 .238 .423 .279 .423 C .33400002 .423 .365 .384 .37800002 .323 C .393 .255 .38500002 .17500001 .39100003 .117000006 Z "/>
</symbol><use xlink:href="#font_1_1" transform="matrix(7.97011,0,0,-7.97011,203.55768,16.60973)"/>
<text fill-opacity="0" transform="matrix(1,0,-0,1,-72,792)" font-size="7.97011" font-family="EJMKHP+CMR8" x="282.998" y="-775.47">
=
</text>
<symbol id="font_2_3"><path d="M .672 .212 C .68700004 .212 .707 .212 .707 .235 C .707 .25800002 .683 .25800002 .66800004 .25800002 L .039 .25800002 C .024 .25800002 0 .25800002 0 .235 C 0 .212 .02 .212 .035 .212 L .672 .212 M .66800004 0 C .683 0 .707 0 .707 .023000002 C .707 .046000004 .68700004 .046000004 .672 .046000004 L .035 .046000004 C .02 .046000004 0 .046000004 0 .023000002 C 0 0 .024 0 .039 0 L .66800004 0 Z "/>
</symbol><use xlink:href="#font_2_3" transform="matrix(7.97011,0,0,-7.97011,211.46822,15.565646)"/>
<text fill-opacity="0" transform="matrix(1,0,-0,1,-72,792)" font-size="7.97011" font-family="WUOZIU+CMMI8" x="291.937" y="-775.47">
&#x03b2;
</text>
<symbol id="font_1_2"><path d="M .57000005 .763 C .57000005 .85400003 .49600002 .89900005 .41300002 .89900005 C .284 .89900005 .18800001 .753 .16000001 .643 L .0020000003 .0119999945 C 0 .004999995 .008000001 0 .014000002 0 C .022 0 .030000001 0 .032 .0069999993 L .10000001 .275 C .12300001 .221 .17 .185 .24200001 .185 C .38000003 .185 .531 .283 .531 .44200003 C .531 .508 .50600004 .55200005 .45600003 .59300005 C .462 .594 .48000005 .607 .48500004 .61100006 C .53499997 .64500004 .57000005 .702 .57000005 .763 M .37300003 .59300005 C .35500002 .59000003 .337 .58800006 .31800002 .58800006 C .307 .58800006 .296 .58800006 .28500003 .592 C .30400002 .597 .324 .597 .34300002 .597 C .35300002 .597 .363 .596 .37300003 .59300005 M .50699997 .782 C .50699997 .73200005 .48500004 .67300004 .45000002 .638 C .44500002 .633 .42400002 .614 .418 .61300004 C .39000002 .61800003 .36800003 .625 .33900002 .625 C .31300002 .625 .25 .62700003 .25 .58800006 C .25 .558 .307 .56000006 .32700002 .56000006 C .358 .56000006 .38700002 .563 .416 .574 C .446 .55 .46100003 .518 .46100003 .46800002 C .46100003 .409 .441 .343 .41200003 .303 C .37500003 .25 .31300002 .213 .238 .213 C .172 .213 .120000005 .264 .120000005 .334 C .120000005 .347 .12100001 .36 .12400001 .37 L .19000001 .63600004 C .21200001 .72400004 .29700002 .87100005 .409 .87100005 C .46 .87100005 .50699997 .846 .50699997 .782 Z "/>
</symbol><use xlink:href="#font_1_2" transform="matrix(7.97011,0,0,-7.97011,220.17612,18.076231)"/>
<text fill-opacity="0" transform="matrix(1,0,-0,1,-72,792)" font-size="5.97758" font-family="KJOPXG+CMMI6" x="296.689" y="-774.064">
k
</text>
<symbol id="font_3_2"><path d="M .24100001 .674 C .242 .67800003 .244 .684 .244 .689 C .244 .70500004 .22400002 .704 .212 .703 L .10000001 .694 C .083000004 .693 .07000001 .69200003 .07000001 .66800004 C .07000001 .653 .083000004 .653 .09900001 .653 C .128 .653 .135 .65000004 .148 .646 C .148 .634 .148 .632 .14400001 .616 L .0040000007 .057000004 C 0 .041 0 .036000002 0 .034 C 0 .009000001 .020000003 0 .034999996 0 C .045 0 .06300001 .0040000007 .076000005 .023000002 C .083000004 .036000002 .12300001 .202 .13000001 .23400001 C .19700001 .22900002 .269 .21300001 .269 .15400001 C .269 .14900002 .269 .14400001 .26600003 .133 C .263 .118 .263 .112 .263 .104 C .263 .038000003 .319 0 .376 0 C .473 0 .508 .14600001 .508 .15400001 C .508 .15600002 .507 .16800001 .48900002 .16800001 C .47500002 .16800001 .473 .16200002 .468 .14500001 C .458 .109000005 .43 .033000004 .379 .033000004 C .34100002 .033000004 .34100002 .076 .34100002 .087000005 C .34100002 .103 .34100002 .104 .34600002 .124000005 C .34600002 .125 .351 .14500001 .351 .157 C .351 .23400001 .264 .25800002 .18700002 .26500002 C .21100001 .28 .23200001 .296 .272 .331 C .32200003 .375 .374 .418 .42900002 .418 C .44200003 .418 .454 .41500002 .463 .405 C .42800003 .398 .413 .37 .413 .349 C .413 .317 .439 .31 .453 .31 C .47500002 .31 .51100004 .326 .51100004 .37600002 C .51100004 .419 .47900003 .451 .43 .451 C .36700004 .451 .30800003 .403 .26200002 .363 C .21000002 .31800002 .179 .292 .142 .278 L .24100001 .674 Z "/>
</symbol><use xlink:href="#font_3_2" transform="matrix(5.97758,0,0,-5.97758,225.23296,17.99575)"/>
<path transform="matrix(1,0,0,-1,142.131,71.23102)" stroke-width=".3985" stroke-linecap="butt" stroke-miterlimit="10" stroke-linejoin="miter" fill="none" stroke="rgb(128,128,128)" stroke-opacity=".5" d="M -113.38724 141.73404 L -113.38724 0 "/>
<path transform="matrix(1,0,0,-1,142.131,71.23102)" d="M -111.9782 14.17339 C -111.9782 14.95158 -112.60904 15.58243 -113.38724 15.58243 C -114.16542 15.58243 -114.79628 14.95158 -114.79628 14.17339 C -114.79628 13.3952 -114.16542 12.76434 -113.38724 12.76434 C -112.60904 12.76434 -111.9782 13.3952 -111.9782 14.17339 Z M -113.38724 14.17339 "/>
<path transform="matrix(1,0,0,-1,142.131,71.23102)" d="M -111.9782 36.85092 C -111.9782 37.62912 -112.60904 38.25996 -113.38724 38.25996 C -114.16542 38.25996 -114.79628 37.62912 -114.79628 36.85092 C -114.79628 36.07274 -114.16542 35.44188 -113.38724 35.44188 C -112.60904 35.44188 -111.9782 36.07274 -111.9782 36.85092 Z M -113.38724 36.85092 "/>
<path transform="matrix(1,0,0,-1,142.131,71.23102)" d="M -111.9782 51.02432 C -111.9782 51.8025 -112.60904 52.43336 -113.38724 52.43336 C -114.16542 52.43336 -114.79628 51.8025 -114.79628 51.02432 C -114.79628 50.24614 -114.16542 49.61528 -113.38724 49.61528 C -112.60904 49.61528 -111.9782 50.24614 -111.9782 51.02432 Z M -113.38724 51.02432 "/>
<path transform="matrix(1,0,0,-1,142.131,71.23102)" stroke-width=".3985" stroke-linecap="butt" stroke-miterlimit="10" stroke-linejoin="miter" fill="none" stroke="rgb(128,128,128)" stroke-opacity=".5" d="M -70.867 113.38724 L -70.867 0 "/>
<path transform="matrix(1,0,0,-1,142.131,71.23102)" stroke-width=".3985" stroke-linecap="butt" stroke-miterlimit="10" stroke-linejoin="miter" fill="none" stroke="rgb(128,128,128)" stroke-opacity=".5" d="M -28.3468 96.37898 L -28.3468 0 "/>
<path transform="matrix(1,0,0,-1,142.131,71.23102)" d="M -26.93776 8.50412 C -26.93776 9.2823 -27.56862 9.91316 -28.3468 9.91316 C -29.12498 9.91316 -29.75584 9.2823 -29.75584 8.50412 C -29.75584 7.72592 -29.12498 7.09508 -28.3468 7.09508 C -27.56862 7.09508 -26.93776 7.72592 -26.93776 8.50412 Z M -28.3468 8.50412 "/>
<path transform="matrix(1,0,0,-1,142.131,71.23102)" d="M -26.93776 14.17339 C -26.93776 14.95158 -27.56862 15.58243 -28.3468 15.58243 C -29.12498 15.58243 -29.75584 14.95158 -29.75584 14.17339 C -29.75584 13.3952 -29.12498 12.76434 -28.3468 12.76434 C -27.56862 12.76434 -26.93776 13.3952 -26.93776 14.17339 Z M -28.3468 14.17339 "/>
<path transform="matrix(1,0,0,-1,142.131,71.23102)" d="M -26.93776 25.51193 C -26.93776 26.29013 -27.56862 26.92097 -28.3468 26.92097 C -29.12498 26.92097 -29.75584 26.29013 -29.75584 25.51193 C -29.75584 24.73375 -29.12498 24.10289 -28.3468 24.10289 C -27.56862 24.10289 -26.93776 24.73375 -26.93776 25.51193 Z M -28.3468 25.51193 "/>
<path transform="matrix(1,0,0,-1,142.131,71.23102)" d="M -26.93776 34.01608 C -26.93776 34.79427 -27.56862 35.42511 -28.3468 35.42511 C -29.12498 35.42511 -29.75584 34.79427 -29.75584 34.01608 C -29.75584 33.23788 -29.12498 32.60704 -28.3468 32.60704 C -27.56862 32.60704 -26.93776 33.23788 -26.93776 34.01608 Z M -28.3468 34.01608 "/>
<path transform="matrix(1,0,0,-1,142.131,71.23102)" d="M -26.93776 42.5202 C -26.93776 43.29839 -27.56862 43.92924 -28.3468 43.92924 C -29.12498 43.92924 -29.75584 43.29839 -29.75584 42.5202 C -29.75584 41.742 -29.12498 41.11116 -28.3468 41.11116 C -27.56862 41.11116 -26.93776 41.742 -26.93776 42.5202 Z M -28.3468 42.5202 "/>
<g>
<path transform="matrix(1,0,0,-1,142.131,71.23102)" stroke-width="14.17339" stroke-linecap="round" stroke-miterlimit="10" stroke-linejoin="miter" fill="none" stroke="rgb(128,128,128)" stroke-opacity=".5" d="M -28.3468 10.11241 L -28.3468 40.91191 "/>
</g>
<path transform="matrix(1,0,0,-1,142.131,71.23102)" stroke-width=".3985" stroke-linecap="butt" stroke-miterlimit="10" stroke-linejoin="miter" fill="none" stroke="rgb(0,0,0)" d="M -37.42114 -.5702 L -37.42114 51.59453 "/>
<path transform="matrix(1,0,0,-1,142.131,71.23102)" stroke-width=".3985" stroke-linecap="butt" stroke-miterlimit="10" stroke-linejoin="miter" fill="none" stroke="rgb(0,0,0)" d="M -19.27246 -.5702 L -19.27246 51.59453 "/>
<text fill-opacity="0" transform="matrix(1,0,-0,1,-72.00001,792)" font-size="7.97011" font-family="EJMKHP+CMR8" x="199.042" y="-744.289">
=
</text>
<use xlink:href="#font_2_3" transform="matrix(7.97011,0,0,-7.97011,127.51224,46.746616)"/>
<text fill-opacity="0" transform="matrix(1,0,-0,1,-72.00001,792)" font-size="7.97011" font-family="WUOZIU+CMMI8" x="207.981" y="-744.289">
&#x03c1;
</text>
<symbol id="font_1_3"><path d="M .0040000007 .05399999 C 0 .038000003 0 .032999992 0 .030999988 C 0 .0059999973 .020000003 0 .032000005 0 C .037 0 .060000002 .0009999871 .07300001 .026999995 C .07800001 .038000003 .09800001 .13 .134 .26700002 C .146 .246 .178 .205 .23900002 .205 C .36100003 .205 .49600005 .33900002 .49600005 .48900002 C .49600005 .602 .42100003 .656 .344 .656 C .25200003 .656 .134 .573 .09800001 .42900002 L .0040000007 .05399999 M .23800004 .23300001 C .169 .23300001 .14700001 .305 .14700001 .319 C .14700001 .323 .17300001 .425 .17500001 .432 C .22000003 .609 .31500003 .628 .34300002 .628 C .39100003 .628 .41800004 .58500004 .41800004 .53000003 C .41800004 .49400002 .39800003 .394 .36800003 .333 C .33900002 .27600002 .28700003 .23300001 .23800004 .23300001 Z "/>
</symbol><use xlink:href="#font_1_3" transform="matrix(7.97011,0,0,-7.97011,136.244,49.424572)"/>
<text fill-opacity="0" transform="matrix(1,0,-0,1,-72.00001,792)" font-size="5.97758" font-family="EZGPUP+CMR6" x="212.318" y="-743.182">
1
</text>
<symbol id="font_4_2"><path d="M .23800002 .63500005 C .23800002 .665 .23400001 .665 .20400001 .665 C .138 .601 .036 .601 0 .601 L 0 .56200004 C .025999993 .56200004 .09200001 .56200004 .152 .59000003 L .152 .085 C .152 .052 .152 .039 .048999995 .039 L .0059999973 .039 L .0059999973 0 C .061000004 .004 .13900001 .004 .19500001 .004 C .251 .004 .329 .004 .384 0 L .384 .039 L .34100002 .039 C .23800002 .039 .23800002 .052 .23800002 .085 L .23800002 .63500005 Z "/>
</symbol><use xlink:href="#font_4_2" transform="matrix(5.97758,0,0,-5.97758,141.04128,48.817993)"/>
<text fill-opacity="0" transform="matrix(1,0,-0,1,-72.00001,792)" font-size="7.97011" font-family="EJMKHP+CMR8" x="216.469" y="-744.289">
(
</text>
<symbol id="font_2_1"><path d="M .22999999 0 C .238 0 .25 0 .25 .0119999945 C .25 .015999988 .24900001 .01699999 .236 .029999986 C .099 .159 .065000005 .345 .065000005 .5 C .065000005 .78800005 .18399999 .92300004 .23500001 .96900004 C .24900001 .98200005 .25 .98300004 .25 .98800004 C .25 .99300003 .24599999 1 .236 1 C .22 1 .16999999 .94900006 .162 .94000006 C .028000005 .8 0 .62 0 .5 C 0 .276 .094000004 .095999986 .22999999 0 Z "/>
</symbol><use xlink:href="#font_2_1" transform="matrix(7.97011,0,0,-7.97011,145.28992,49.703526)"/>
<text fill-opacity="0" transform="matrix(1,0,-0,1,-72.00001,792)" font-size="7.97011" font-family="WUOZIU+CMMI8" x="219.762 225.1976 228.95949" y="-744.289 -744.289 -744.289">
&#x03b1;,&#x03b2;
</text>
<symbol id="font_1_4"><path d="M .095 .208 C .095 .143 .081 .085999995 .019000001 .023999989 C .015000001 .020999998 .012999997 .018999994 .012999997 .013999999 C .012999997 .0059999973 .020999998 0 .027999997 0 C .03999999 0 .122999996 .078999996 .122999996 .19600001 C .122999996 .26 .09900001 .30400002 .054999992 .30400002 C .019999996 .30400002 0 .27600002 0 .24900001 C 0 .221 .019000001 .193 .055999994 .193 C .08 .193 .095 .207 .095 .208 Z "/>
</symbol><use xlink:href="#font_1_1" transform="matrix(7.97011,0,0,-7.97011,148.11267,47.7907)"/>
<use xlink:href="#font_1_4" transform="matrix(7.97011,0,0,-7.97011,153.93085,49.24923)"/>
<use xlink:href="#font_1_2" transform="matrix(7.97011,0,0,-7.97011,157.19858,49.2572)"/>
<text fill-opacity="0" transform="matrix(1,0,-0,1,-72.00001,792)" font-size="7.97011" font-family="EJMKHP+CMR8" x="234.126" y="-744.289">
)
</text>
<symbol id="font_2_2"><path d="M .24900001 .5 C .24900001 .595 .23300001 .709 .171 .827 C .12200001 .919 .031000003 1 .013000004 1 C .0029999986 1 0 .99300003 0 .98800004 C 0 .984 0 .98200005 .012000002 .97 C .15200001 .837 .18400002 .65400004 .18400002 .5 C .18400002 .213 .065 .07699999 .013999999 .030999988 C .001000002 .017999992 0 .01699999 0 .0119999945 C 0 .0069999844 .0029999986 0 .013000004 0 C .029 0 .07900001 .050999984 .087 .059999987 C .22100002 .2 .24900001 .38 .24900001 .5 Z "/>
</symbol><use xlink:href="#font_2_2" transform="matrix(7.97011,0,0,-7.97011,162.60422,49.703526)"/>
<path transform="matrix(1,0,0,-1,142.131,71.23102)" stroke-width=".3985" stroke-linecap="butt" stroke-dasharray="2.98883,2.98883" stroke-miterlimit="10" stroke-linejoin="miter" fill="none" stroke="rgb(0,0,0)" d="M -141.73404 73.70186 L 56.69362 73.70186 "/>
<text fill-opacity="0" transform="matrix(1,0,-0,1,-72,792.00006)" font-size="7.97011" font-family="WUOZIU+CMMI8" x="275.007" y="-792.478">
&#x03b2;
</text>
<use xlink:href="#font_1_2" transform="matrix(7.97011,0,0,-7.97011,203.2461,1.068235)"/>
<text fill-opacity="0" transform="matrix(1,0,-0,1,-72,792.00006)" font-size="5.97758" font-family="EZGPUP+CMR6" x="279.759" y="-791.371">
3
</text>
<symbol id="font_4_4"><path d="M .231 .35300002 C .316 .35300002 .37300003 .296 .37300003 .194 C .37300003 .08400001 .307 .036000002 .23400003 .036000002 C .20700002 .036000002 .10400001 .042000003 .059000008 .10000001 C .09800001 .104 .114 .13000001 .114 .157 C .114 .191 .09000001 .214 .057000004 .214 C .030000001 .214 0 .19700001 0 .155 C 0 .056 .11000001 0 .23700002 0 C .38500002 0 .48400006 .095 .48400006 .194 C .48400006 .26700002 .42800003 .344 .30900002 .374 C .38800004 .4 .45200005 .46400002 .45200005 .54600006 C .45200005 .62600005 .35800004 .68600005 .23800004 .68600005 C .121000014 .68600005 .032000005 .632 .032000005 .5500001 C .032000005 .507 .065000005 .49500003 .085 .49500003 C .11100001 .49500003 .13800001 .513 .13800001 .54800004 C .13800001 .57900006 .116000004 .59700006 .08900001 .6010001 C .136 .65300006 .22700003 .65300006 .23600003 .65300006 C .28700003 .65300006 .35100004 .62900007 .35100004 .54600006 C .35100004 .49100003 .32000002 .395 .22000003 .38900003 C .20200002 .388 .17500001 .386 .16600001 .386 C .15600002 .38500002 .14500001 .384 .14500001 .36900002 C .14500001 .35300002 .15600002 .35300002 .17300001 .35300002 L .231 .35300002 Z "/>
</symbol><use xlink:href="#font_4_4" transform="matrix(5.97758,0,0,-5.97758,208.13559,.7546185)"/>
<path transform="matrix(1,0,0,-1,142.131,71.23102)" stroke-width=".3985" stroke-linecap="butt" stroke-miterlimit="10" stroke-linejoin="miter" fill="none" stroke="rgb(128,128,128)" stroke-opacity=".5" d="M 14.17339 73.70186 L 14.17339 0 "/>
<path transform="matrix(1,0,0,-1,142.131,71.23102)" d="M 15.58243 62.36288 C 15.58243 63.14108 14.95158 63.77193 14.17339 63.77193 C 13.3952 63.77193 12.76434 63.14108 12.76434 62.36288 C 12.76434 61.5847 13.3952 60.95384 14.17339 60.95384 C 14.95158 60.95384 15.58243 61.5847 15.58243 62.36288 Z M 14.17339 62.36288 "/>
<path transform="matrix(1,0,0,-1,142.131,71.23102)" d="M 15.58243 65.19774 C 15.58243 65.97592 14.95158 66.60678 14.17339 66.60678 C 13.3952 66.60678 12.76434 65.97592 12.76434 65.19774 C 12.76434 64.41954 13.3952 63.7887 14.17339 63.7887 C 14.95158 63.7887 15.58243 64.41954 15.58243 65.19774 Z M 14.17339 65.19774 "/>
<path transform="matrix(1,0,0,-1,142.131,71.23102)" d="M 15.58243 2.83484 C 15.58243 3.61304 14.95158 4.24388 14.17339 4.24388 C 13.3952 4.24388 12.76434 3.61304 12.76434 2.83484 C 12.76434 2.05666 13.3952 1.4258 14.17339 1.4258 C 14.95158 1.4258 15.58243 2.05666 15.58243 2.83484 Z M 14.17339 2.83484 "/>
<path transform="matrix(1,0,0,-1,142.131,71.23102)" d="M 15.58243 36.85092 C 15.58243 37.62912 14.95158 38.25996 14.17339 38.25996 C 13.3952 38.25996 12.76434 37.62912 12.76434 36.85092 C 12.76434 36.07274 13.3952 35.44188 14.17339 35.44188 C 14.95158 35.44188 15.58243 36.07274 15.58243 36.85092 Z M 14.17339 36.85092 "/>
<path transform="matrix(1,0,0,-1,142.131,71.23102)" d="M 15.58243 46.77203 C 15.58243 47.550232 14.95158 48.18108 14.17339 48.18108 C 13.3952 48.18108 12.76434 47.550232 12.76434 46.77203 C 12.76434 45.99385 13.3952 45.363 14.17339 45.363 C 14.95158 45.363 15.58243 45.99385 15.58243 46.77203 Z M 14.17339 46.77203 "/>
<path transform="matrix(1,0,0,-1,142.131,71.23102)" d="M 15.58243 52.44176 C 15.58243 53.21994 14.95158 53.8508 14.17339 53.8508 C 13.3952 53.8508 12.76434 53.21994 12.76434 52.44176 C 12.76434 51.66356 13.3952 51.03271 14.17339 51.03271 C 14.95158 51.03271 15.58243 51.66356 15.58243 52.44176 Z M 14.17339 52.44176 "/>
<path transform="matrix(1,0,0,-1,142.131,71.23102)" stroke-width="1.1955299" stroke-linecap="butt" stroke-dasharray="1.1955299,1.99255" stroke-miterlimit="10" stroke-linejoin="miter" fill="none" stroke="rgb(0,0,0)" d="M 14.17339 66.80603 L 14.17339 73.70186 "/>
<path transform="matrix(1,0,0,-1,142.131,71.23102)" stroke-width=".79701" stroke-linecap="butt" stroke-miterlimit="10" stroke-linejoin="miter" fill="none" stroke="rgb(128,128,128)" d="M -28.3468 96.37898 C -26.75227 99.56807 -21.26012 110.55238 -14.1734 110.55238 C 0 110.55238 10.98427 81.99345 13.91908 74.36308 "/>
<path transform="matrix(1,0,0,-1,142.131,71.23102)" stroke-width=".79701" stroke-linecap="butt" stroke-miterlimit="10" stroke-linejoin="miter" fill="none" stroke="rgb(128,128,128)" d="M 14.17339 73.70186 C 15.76793 76.89095 21.26009 87.87526 28.34679 87.87526 "/>
<path transform="matrix(1,0,0,-1,142.131,71.23102)" stroke-width=".79701" stroke-linecap="butt" stroke-dasharray=".79701,1.99255" stroke-miterlimit="10" stroke-linejoin="miter" fill="none" stroke="rgb(128,128,128)" d="M 28.34679 87.87526 C 35.43349 87.87526 40.92563 70.30032 42.5202 65.19774 "/>
<path transform="matrix(1,0,0,-1,142.131,71.23102)" stroke-width=".79701" stroke-linecap="butt" stroke-miterlimit="10" stroke-linejoin="miter" fill="none" stroke="rgb(128,128,128)" d="M 42.5202 65.19774 L 45.13113 57.36533 "/>
<path transform="matrix(.31656,.94962,.94962,-.31656,187.26212,13.865688)" stroke-width=".6376" stroke-linecap="round" stroke-linejoin="round" fill="none" stroke="rgb(128,128,128)" d="M -1.55415 2.0722 C -1.4246399 1.29512 0 .1295 .38852 0 C 0 -.1295 -1.4246399 -1.29512 -1.55415 -2.0722 "/>
</g>
</svg>
