<?xml version="1.0" standalone="no"?>
<!DOCTYPE svg PUBLIC "-//W3C//DTD SVG 1.1//EN" "http://www.w3.org/Graphics/SVG/1.1/DTD/svg11.dtd">
<svg xmlns="http://www.w3.org/2000/svg" xmlns:xlink="http://www.w3.org/1999/xlink" version="1.1" width="2.4341667cm" height="2.5752778cm" viewBox="0 0 69 73">
<clipPath id="cp0">
<path transform="matrix(1,0,0,-1,-3,76)" d="M 0 0 L 74.834 0 L 74.834 79.113 L 0 79.113 Z "/>
</clipPath>
<g clip-path="url(#cp0)">
<text fill-opacity="0" transform="matrix(1,0,-0,1,-3,76)" font-size="9.96264" font-family="CGDZGW+CMMI10" x="3.321" y="-12.292">
S
</text>
<symbol id="font_1_4"><path d="M .59300005 .71700007 C .59300005 .72 .591 .72700006 .582 .72700006 C .577 .72700006 .57600003 .7260001 .56400007 .7120001 L .51600003 .65500003 C .49000007 .702 .43800002 .72700006 .37300003 .72700006 C .246 .72700006 .126 .61200005 .126 .49100003 C .126 .41000003 .179 .36400002 .23 .34900004 L .337 .32100004 C .374 .31200004 .42900002 .29700002 .42900002 .215 C .42900002 .12500001 .347 .031000003 .24900003 .031000003 C .18500002 .031000003 .074 .053000003 .074 .177 C .074 .201 .07900001 .22500001 .08 .231 C .081 .23500001 .082 .23600002 .082 .238 C .082 .24800001 .075 .24900001 .07000001 .24900001 C .065000005 .24900001 .063 .24800001 .060000002 .245 C .056 .24100001 0 .013000001 0 .010000002 C 0 .0040000007 .0050000027 0 .011 0 C .016000003 0 .017000005 .0010000002 .029 .0150000015 L .07800001 .072000004 C .12100001 .014000001 .18900001 0 .24700002 0 C .38300002 0 .50100005 .13300002 .50100005 .25700003 C .50100005 .32600003 .46700007 .36000004 .45200002 .37400004 C .42900002 .39700004 .41400003 .40100002 .325 .42400002 C .30300003 .43000004 .26700002 .44000003 .25800002 .44200003 C .23100002 .45100003 .19700001 .48000005 .19700001 .53300005 C .19700001 .614 .277 .69900006 .37200004 .69900006 C .45500004 .69900006 .51600003 .656 .51600003 .544 C .51600003 .512 .512 .49400005 .512 .48800004 C .512 .48700005 .512 .47800004 .52400005 .47800004 C .53400004 .47800004 .535 .48100004 .53900003 .49800003 L .59300005 .71700007 Z "/>
</symbol><use xlink:href="#font_1_4" transform="matrix(9.96264,0,0,-9.96264,.8390574,63.927177)"/>
<text fill-opacity="0" transform="matrix(1,0,-0,1,-3.0000038,76)" font-size="9.96264" font-family="CGDZGW+CMMI10" x="58.837" y="-12.292">
X
</text>
<symbol id="font_1_5"><path d="M .458 .411 L .374 .61 C .37100002 .61800003 .36900002 .62200004 .36900002 .623 C .36900002 .629 .386 .648 .428 .652 C .43800002 .65300006 .448 .65400004 .448 .671 C .448 .683 .43600002 .683 .433 .683 C .39200002 .683 .349 .68 .307 .68 C .282 .68 .22000001 .683 .19500002 .683 C .18900001 .683 .17700002 .683 .17700002 .66300005 C .17700002 .652 .18700002 .652 .20000002 .652 C .26 .652 .266 .642 .275 .62 L .393 .34100002 L .18200001 .11400001 L .16900001 .10300001 C .12 .05 .073 .034 .022000002 .031000001 C .0090000015 .030000001 0 .030000001 0 .011000001 C 0 .010000001 0 0 .013000002 0 C .042999998 0 .076000005 .003 .107 .003 C .14400001 .003 .18300001 0 .21900001 0 C .22500001 0 .237 0 .237 .020000001 C .237 .030000001 .22700001 .031000001 .22500001 .031000001 C .21600002 .032 .18500002 .034 .18500002 .062000003 C .18500002 .078 .20000002 .094000004 .21200001 .10700001 L .314 .215 L .404 .31300002 L .505 .074 C .509 .063 .51 .062000003 .51 .060000002 C .51 .052 .491 .035 .45200002 .031000001 C .441 .030000001 .432 .029000001 .432 .012 C .432 0 .44300002 0 .44700003 0 C .47500002 0 .545 .003 .573 .003 C .598 .003 .65900004 0 .684 0 C .69100004 0 .703 0 .703 .019000001 C .703 .031000001 .693 .031000001 .685 .031000001 C .61800003 .032 .616 .035 .59900004 .075 C .56 .16800001 .49300003 .324 .47 .384 C .538 .45400003 .643 .573 .675 .601 C .704 .625 .74200004 .64900005 .80200005 .652 C .81500006 .65300006 .824 .65300006 .824 .67200005 C .824 .67300004 .824 .683 .81100005 .683 C .781 .683 .748 .68 .717 .68 C .68 .68 .642 .683 .606 .683 C .6 .683 .587 .683 .587 .66300005 C .587 .656 .592 .65300006 .59900004 .652 C .60800004 .651 .639 .64900005 .639 .62100005 C .639 .60700005 .628 .59400004 .62 .58500004 L .458 .411 Z "/>
</symbol><use xlink:href="#font_1_5" transform="matrix(9.96264,0,0,-9.96264,56.105988,63.708)"/>
<text fill-opacity="0" transform="matrix(1,0,-0,1,-3,76)" font-size="9.96264" font-family="CGDZGW+CMMI10" x="59.391" y="-68.985">
E
</text>
<symbol id="font_1_2"><path d="M .67 .23300001 C .67200005 .238 .6750001 .245 .6750001 .24700001 C .6750001 .24800001 .6750001 .25800002 .66300005 .25800002 C .65400004 .25800002 .65200007 .252 .65000004 .246 C .58500004 .098000005 .54800004 .031000001 .37700003 .031000001 L .23100002 .031000001 C .21700002 .031000001 .21500002 .031000001 .209 .032 C .19900002 .033 .19600001 .034 .19600001 .042000003 C .19600001 .045 .19600001 .047000002 .201 .065000005 L .269 .33800003 L .36800003 .33800003 C .453 .33800003 .453 .317 .453 .29200003 C .453 .28500003 .453 .273 .44600004 .24300002 C .444 .238 .44300002 .23500001 .44300002 .23200001 C .44300002 .22700001 .44700003 .22100002 .45600003 .22100002 C .46400005 .22100002 .467 .22600001 .47100002 .24100001 L .52800006 .47500002 C .52800006 .48100004 .52300006 .48600003 .51600003 .48600003 C .507 .48600003 .50500005 .48000002 .50200003 .46800002 C .48100007 .39200002 .46300006 .36900002 .371 .36900002 L .277 .36900002 L .337 .61 C .34600002 .64500004 .347 .64900005 .39100003 .64900005 L .53200006 .64900005 C .65400004 .64900005 .6840001 .62 .6840001 .53800005 C .6840001 .514 .6840001 .512 .68000007 .485 C .68000007 .47900003 .679 .47200003 .679 .467 C .679 .462 .68200004 .455 .69100004 .455 C .702 .455 .70300007 .46100003 .70500004 .48000002 L .725 .65300006 C .72800004 .68 .72300005 .68 .6980001 .68 L .193 .68 C .17300001 .68 .163 .68 .163 .66 C .163 .64900005 .172 .64900005 .19100001 .64900005 C .228 .64900005 .25599998 .64900005 .25599998 .63100004 C .25599998 .62700003 .25599998 .625 .251 .60700005 L .119 .078 C .109 .039 .10700001 .031000001 .027999997 .031000001 C .011 .031000001 0 .031000001 0 .012 C 0 0 .009 0 .027999997 0 L .54700005 0 C .57000005 0 .57100004 .001 .57800007 .017 L .67 .23300001 Z "/>
</symbol><use xlink:href="#font_1_2" transform="matrix(9.96264,0,0,-9.96264,56.76958,7.0149994)"/>
<path transform="matrix(1,0,0,-1,3.6620002,60.304)" stroke-width=".3985" stroke-linecap="butt" stroke-miterlimit="10" stroke-linejoin="miter" fill="none" stroke="rgb(0,0,0)" d="M 6.8614798 0 L 48.1977 0 "/>
<path transform="matrix(1,0,0,-1,51.8597,60.304)" stroke-width=".31879" stroke-linecap="round" stroke-linejoin="round" fill="none" stroke="rgb(0,0,0)" d="M -1.19551 1.59401 C -1.09587 .99626 0 .09961 .29886 0 C 0 -.09961 -1.09587 -.99626 -1.19551 -1.59401 "/>
<text fill-opacity="0" transform="matrix(1,0,-0,1,-2.999998,76.00001)" font-size="9.96264" font-family="CGDZGW+CMMI10" x="31.446" y="-5.258">
f
</text>
<symbol id="font_1_7"><path d="M .314 .605 L .4 .605 C .42000002 .605 .43 .605 .43 .625 C .43 .63600004 .42000002 .63600004 .40300003 .63600004 L .32000002 .63600004 L .34100002 .75 C .34500003 .771 .35900003 .842 .365 .8540001 C .374 .873 .39100003 .888 .41200003 .888 C .416 .888 .44200003 .888 .461 .87 C .41700003 .86600006 .407 .8310001 .407 .816 C .407 .793 .425 .781 .444 .781 C .47 .781 .49900004 .8030001 .49900004 .8410001 C .49900004 .8870001 .45300004 .9100001 .41200003 .9100001 C .37800002 .9100001 .31500003 .8920001 .28500003 .793 C .279 .7720001 .27600002 .7620001 .252 .63600004 L .18300001 .63600004 C .164 .63600004 .15300001 .63600004 .15300001 .61700004 C .15300001 .605 .162 .605 .18100001 .605 L .24700001 .605 L .172 .21000001 C .15400001 .113000005 .13700001 .022 .08500001 .022 C .081 .022 .056 .022 .037 .040000007 C .083000004 .043000013 .09200001 .07900001 .09200001 .094000004 C .09200001 .117000006 .074 .12900001 .055 .12900001 C .029 .12900001 0 .10700001 0 .069000006 C 0 .024000004 .044 0 .08500001 0 C .14 0 .18 .059 .19800001 .09700001 C .23000002 .16000001 .25300002 .28100002 .254 .28800002 L .314 .605 Z "/>
</symbol><use xlink:href="#font_1_7" transform="matrix(9.96264,0,0,-9.96264,28.974022,72.78435)"/>
<path transform="matrix(1,0,0,-1,3.6620002,60.304)" stroke-width=".3985" stroke-linecap="butt" stroke-miterlimit="10" stroke-linejoin="miter" fill="none" stroke="rgb(0,0,0)" d="M 56.69363 49.76987 L 56.69363 7.38203 "/>
<path transform="matrix(0,1,1,0,60.35563,51.10878)" stroke-width=".31879" stroke-linecap="round" stroke-linejoin="round" fill="none" stroke="rgb(0,0,0)" d="M -1.19551 1.59401 C -1.09587 .99626 0 .09961 .29886 0 C 0 -.09961 -1.09587 -.99626 -1.19551 -1.59401 "/>
<path transform="matrix(0,1,1,0,60.35563,52.92197)" stroke-width=".31879" stroke-linecap="round" stroke-linejoin="round" fill="none" stroke="rgb(0,0,0)" d="M -1.19551 1.59401 C -1.09587 .99626 0 .09961 .29886 0 C 0 -.09961 -1.09587 -.99626 -1.19551 -1.59401 "/>
<text fill-opacity="0" transform="matrix(1,0,-0,1,-3,76)" font-size="9.96264" font-family="CGDZGW+CMMI10" x="66.875" y="-41.898">
e
</text>
<symbol id="font_1_6"><path d="M .141 .24200001 C .17 .24200001 .24400002 .24400002 .294 .26500002 C .36400002 .29500002 .36900002 .35400003 .36900002 .36800003 C .36900002 .41200003 .331 .45300004 .26200002 .45300004 C .15100001 .45300004 0 .35600004 0 .18100001 C 0 .079 .059 0 .157 0 C .3 0 .384 .106000006 .384 .11800001 C .384 .124000005 .37800002 .13100001 .372 .13100001 C .367 .13100001 .365 .12900001 .35900003 .12100001 C .28 .022000002 .171 .022000002 .15900001 .022000002 C .081 .022000002 .072000004 .106000006 .072000004 .13800001 C .072000004 .15000002 .073 .18100001 .088 .24200001 L .141 .24200001 M .094 .26400003 C .133 .41600004 .236 .43100002 .26200002 .43100002 C .30900002 .43100002 .33600003 .40200004 .33600003 .36800003 C .33600003 .26400003 .17600001 .26400003 .135 .26400003 L .094 .26400003 Z "/>
</symbol><use xlink:href="#font_1_6" transform="matrix(9.96264,0,0,-9.96264,64.33328,34.21159)"/>
<path transform="matrix(1,0,0,-1,3.6620002,60.304)" stroke-width=".3985" stroke-linecap="butt" stroke-miterlimit="10" stroke-linejoin="miter" fill="none" stroke="rgb(0,0,0)" d="M 6.8614798 6.85686 L 49.44984 49.44583 "/>
<path transform="matrix(.70715,-.7071,-.7071,-.70715,53.111828,10.85817)" stroke-width=".31879" stroke-linecap="round" stroke-linejoin="round" fill="none" stroke="rgb(0,0,0)" d="M -1.19551 1.59401 C -1.09587 .99626 0 .09961 .29886 0 C 0 -.09961 -1.09587 -.99626 -1.19551 -1.59401 "/>
<text fill-opacity="0" transform="matrix(1,0,-0,1,-3,76)" font-size="9.96264" font-family="KNHNJR+CMR10" x="27.655" y="-52.095">
&#x02c6;
</text>
<symbol id="font_2_4"><path d="M .134 .15399998 L 0 .018000007 L .018 0 L .134 .102 L .24900001 0 L .26700002 .018000007 L .134 .15399998 Z "/>
</symbol><use xlink:href="#font_2_4" transform="matrix(9.96264,0,0,-9.96264,25.810667,18.525173)"/>
<text fill-opacity="0" transform="matrix(1,0,-0,1,-3,76)" font-size="9.96264" font-family="CGDZGW+CMMI10" x="25.51" y="-49.466">
f
</text>
<use xlink:href="#font_1_7" transform="matrix(9.96264,0,0,-9.96264,23.038021,28.576342)"/>
</g>
</svg>
