<?xml version="1.0" standalone="no"?>
<!DOCTYPE svg PUBLIC "-//W3C//DTD SVG 1.1//EN" "http://www.w3.org/Graphics/SVG/1.1/DTD/svg11.dtd">
<svg xmlns="http://www.w3.org/2000/svg" xmlns:xlink="http://www.w3.org/1999/xlink" version="1.1" width="5.538611cm" height="5.5033336cm" viewBox="0 0 157 156">
<clipPath id="cp0">
<path transform="matrix(1,0,0,-1,-6,158)" d="M 0 0 L 162.844 0 L 162.844 166.065 L 0 166.065 Z "/>
</clipPath>
<g clip-path="url(#cp0)">
<path transform="matrix(1,0,0,-1,57.056,77.522)" stroke-width=".3985" stroke-linecap="butt" stroke-dasharray="2.98883,2.98883" stroke-miterlimit="10" stroke-linejoin="miter" fill="none" stroke="rgb(0,0,0)" d="M 42.52022 73.64738 C 22.1828 85.38918 -13.34012 61.93495 -36.82368 21.2601 C -60.30725 -19.41475 -62.85764 -61.90561 -42.52022 -73.64738 C -22.1828 -85.38918 13.34012 -61.93495 36.82368 -21.2601 C 60.30725 19.41475 62.85764 61.90561 42.52022 73.64738 Z M 0 0 "/>
<text fill-opacity="0" transform="matrix(1,0,-0,1,-6.000004,158)" font-size="9.96264" font-family="JIEOXL+CMR10" x="41.823" y="-138.683">
&#x02d9;
</text>
<symbol id="font_1_1"><path d="M .107 .053000033 C .107 .07999998 .084000014 .106000006 .054000013 .106000006 C .020000003 .106000006 0 .07800001 0 .053000033 C 0 .026000023 .023000002 0 .05300001 0 C .087000005 0 .107 .027999997 .107 .053000033 Z "/>
</symbol><use xlink:href="#font_1_1" transform="matrix(9.96264,0,0,-9.96264,36.669823,13.7080345)"/>
<text fill-opacity="0" transform="matrix(1,0,-0,1,-6.000004,158)" font-size="9.96264" font-family="NCCSMV+CMMI10" x="38.087" y="-136.165">
A
</text>
<symbol id="font_2_2"><path d="M .14400001 .115 C .10400002 .048 .065 .034 .021000002 .031000001 C .009000003 .030000001 0 .030000001 0 .011000001 C 0 .0050000004 .0050000027 0 .013 0 C .040000003 0 .07100001 .003 .09900001 .003 C .13200001 .003 .16700001 0 .19900002 0 C .20500001 0 .21800002 0 .21800002 .019000001 C .21800002 .030000001 .20900002 .031000001 .20200002 .031000001 C .17900002 .033 .15500002 .041 .15500002 .066 C .15500002 .078 .16100001 .089 .16900001 .10300001 L .245 .231 L .49600002 .231 C .49800006 .21000001 .512 .074 .512 .064 C .512 .034 .46000004 .031000001 .44000003 .031000001 C .42600003 .031000001 .41600004 .031000001 .41600004 .011000001 C .41600004 0 .42800003 0 .43000004 0 C .47100005 0 .514 .003 .555 .003 C .58 .003 .643 0 .668 0 C .674 0 .686 0 .686 .020000001 C .686 .031000001 .676 .031000001 .663 .031000001 C .601 .031000001 .601 .038000003 .598 .067 L .537 .69200003 C .535 .712 .535 .716 .518 .716 C .502 .716 .49800006 .70900005 .492 .69900006 L .14400001 .115 M .26400003 .26200002 L .46100003 .592 L .493 .26200002 L .26400003 .26200002 Z "/>
</symbol><use xlink:href="#font_2_2" transform="matrix(9.96264,0,0,-9.96264,32.43569,21.835007)"/>
<path transform="matrix(1,0,0,-1,57.056,77.522)" stroke-width=".3985" stroke-linecap="butt" stroke-miterlimit="10" stroke-linejoin="miter" fill="none" stroke="rgb(0,0,0)" d="M 99.59012 -23.80742 C 99.59012 5.93845 67.86235 30.05157 28.72307 30.05157 C -10.4162 30.05157 -42.14397 5.93845 -42.14397 -23.80742 C -42.14397 -53.5533 -10.4162 -77.66641 28.72307 -77.66641 C 67.86235 -77.66641 99.59012 -53.5533 99.59012 -23.80742 Z M 28.72307 -23.80742 "/>
<text fill-opacity="0" transform="matrix(1,0,-0,1,-6.0000153,158)" font-size="9.96264" font-family="NCCSMV+CMMI10" x="138.322" y="-3.321">
M
</text>
<symbol id="font_2_3"><path d="M .88400006 .606 C .89300007 .642 .89500004 .652 .9700001 .652 C .9930001 .652 1.002 .652 1.002 .67200005 C 1.002 .683 .99200004 .683 .9750001 .683 L .84300005 .683 C .81700003 .683 .81600004 .683 .804 .66400003 L .43900004 .094000004 L .36100003 .66 C .358 .683 .35600004 .683 .33 .683 L .19300002 .683 C .174 .683 .16300002 .683 .16300002 .66400003 C .16300002 .652 .17200002 .652 .192 .652 C .20500001 .652 .22300002 .651 .23500001 .65000004 C .25100002 .648 .25700003 .64500004 .25700003 .634 C .25700003 .63000005 .256 .62700003 .25300002 .615 L .12600002 .106000006 C .116000004 .066 .099 .034 .018 .031000001 C .013 .031000001 0 .030000001 0 .012 C 0 .003 .0059999973 0 .013999999 0 C .046000004 0 .081 .003 .114 .003 C .148 .003 .18400002 0 .21700001 0 C .222 0 .23500001 0 .23500001 .020000001 C .23500001 .031000001 .224 .031000001 .21700001 .031000001 C .16 .032 .14900002 .052 .14900002 .075 C .14900002 .082 .15 .087000005 .153 .098000005 L .28900003 .643 L .29000002 .643 L .37600002 .023000002 C .37800002 .011000001 .37900004 0 .39100003 0 C .40200004 0 .40800002 .011000001 .41300002 .018000001 L .81700003 .651 L .818 .651 L .675 .078 C .665 .039 .66300005 .031000001 .58400005 .031000001 C .56700003 .031000001 .55600005 .031000001 .55600005 .012 C .55600005 0 .568 0 .57100004 0 C .59900004 0 .66700006 .003 .69500005 .003 C .73600006 .003 .77900004 0 .82000005 0 C .82600003 0 .83900005 0 .83900005 .020000001 C .83900005 .031000001 .83000004 .031000001 .81100005 .031000001 C .77400005 .031000001 .74600005 .031000001 .74600005 .049000002 C .74600005 .053000003 .74600005 .055000003 .75100005 .07300001 L .88400006 .606 Z "/>
</symbol><use xlink:href="#font_2_3" transform="matrix(9.96264,0,0,-9.96264,132.74042,154.679)"/>
<clipPath id="cp3">
<path transform="matrix(1,0,0,-1,57.056,77.522)" d="M 99.59012 -23.80742 C 99.59012 5.93832 67.86235 30.05136 28.72307 30.05136 C -10.4162 30.05136 -42.14397 5.93832 -42.14397 -23.80742 C -42.14397 -53.55318 -10.4162 -77.6662 28.72307 -77.6662 C 67.86235 -77.6662 99.59012 -53.55318 99.59012 -23.80742 Z M 28.72307 -23.80742 "/>
</clipPath>
<g clip-path="url(#cp3)">
<path transform="matrix(1,0,0,-1,57.056,77.522)" d="M 42.52022 73.64738 C 22.1828 85.38918 -13.34012 61.93495 -36.82368 21.2601 C -60.30725 -19.41475 -62.85764 -61.90561 -42.52022 -73.64738 C -22.1828 -85.38918 13.34012 -61.93495 36.82368 -21.2601 C 60.30725 19.41475 62.85764 61.90561 42.52022 73.64738 Z M 0 0 " fill="rgb(128,128,128)" fill-opacity=".5"/>
</g>
<text fill-opacity="0" transform="matrix(1,0,-0,1,-6,158)" font-size="9.96264" font-family="NCCSMV+CMMI10" x="88.437" y="-117.083">
S
</text>
<symbol id="font_2_4"><path d="M .59300005 .71700007 C .59300005 .72 .591 .72700006 .582 .72700006 C .577 .72700006 .57600003 .7260001 .56400007 .7120001 L .51600003 .65500003 C .49000007 .702 .43800002 .72700006 .37300003 .72700006 C .246 .72700006 .126 .61200005 .126 .49100003 C .126 .41000003 .179 .36400002 .23 .34900004 L .337 .32100004 C .374 .31200004 .42900002 .29700002 .42900002 .215 C .42900002 .12500001 .347 .031000003 .24900003 .031000003 C .18500002 .031000003 .074 .053000003 .074 .177 C .074 .201 .07900001 .22500001 .08 .231 C .081 .23500001 .082 .23600002 .082 .238 C .082 .24800001 .075 .24900001 .07000001 .24900001 C .065000005 .24900001 .063 .24800001 .060000002 .245 C .056 .24100001 0 .013000001 0 .010000002 C 0 .0040000007 .0050000027 0 .011 0 C .016000003 0 .017000005 .0010000002 .029 .0150000015 L .07800001 .072000004 C .12100001 .014000001 .18900001 0 .24700002 0 C .38300002 0 .50100005 .13300002 .50100005 .25700003 C .50100005 .32600003 .46700007 .36000004 .45200002 .37400004 C .42900002 .39700004 .41400003 .40100002 .325 .42400002 C .30300003 .43000004 .26700002 .44000003 .25800002 .44200003 C .23100002 .45100003 .19700001 .48000005 .19700001 .53300005 C .19700001 .614 .277 .69900006 .37200004 .69900006 C .45500004 .69900006 .51600003 .656 .51600003 .544 C .51600003 .512 .512 .49400005 .512 .48800004 C .512 .48700005 .512 .47800004 .52400005 .47800004 C .53400004 .47800004 .535 .48100004 .53900003 .49800003 L .59300005 .71700007 Z "/>
</symbol><use xlink:href="#font_2_4" transform="matrix(9.96264,0,0,-9.96264,82.955055,41.136177)"/>
<text fill-opacity="0" transform="matrix(1,0,-0,1,-6,158)" font-size="9.96264" font-family="NCCSMV+CMMI10" x="101.35" y="-94.43">
&#x03be;
</text>
<symbol id="font_2_1"><path d="M .13100001 .51100004 C .022 .439 0 .34500003 0 .30900002 C 0 .261 .026999999 .23300001 .029 .23000002 C .061000004 .19700001 .07 .19300002 .14500001 .165 L .266 .11800001 C .28100002 .11100001 .301 .10400001 .301 .075 C .301 .052 .28300002 .022 .252 .022 C .208 .022 .17500001 .046000004 .164 .054000005 C .158 .058000013 .157 .059 .15300001 .059 C .14500001 .059 .143 .052 .143 .048000008 C .143 .036 .19600001 0 .252 0 C .314 0 .356 .058000013 .356 .10700001 C .356 .15500002 .319 .17300001 .30800003 .17800002 C .294 .18300001 .26000002 .19600001 .24700001 .20100002 C .227 .209 .207 .21700001 .186 .224 L .126 .24800001 C .081 .26600003 .051 .29500002 .051 .337 C .051 .37800002 .09 .46500003 .17400001 .507 C .21100001 .49400002 .241 .49400002 .26200002 .49400002 C .29200003 .49400002 .35500002 .49400002 .35500002 .52500004 C .35500002 .5500001 .312 .55200005 .273 .55200005 C .25500003 .55200005 .22600001 .55200005 .18900001 .54 C .163 .56600004 .15900001 .59900004 .15900001 .61800003 C .15900001 .674 .19500001 .75100005 .27 .788 C .28800002 .76600003 .31100002 .76600003 .33400002 .76600003 C .35900003 .76600003 .423 .76600003 .423 .79700005 C .423 .8230001 .379 .824 .34 .824 C .32700002 .824 .303 .824 .277 .819 C .27400002 .82800007 .272 .83500004 .272 .852 C .272 .86600006 .277 .8870001 .277 .88900006 C .277 .8970001 .272 .90200007 .26500002 .90200007 C .24700001 .90200007 .24700001 .85600007 .24700001 .85300004 C .24700001 .83300006 .25300002 .8180001 .254 .814 C .147 .78400004 .079 .704 .079 .62700003 C .079 .59000003 .097 .54800004 .14400001 .521 L .13100001 .51100004 M .293 .79700005 C .30900002 .80200005 .33 .80200005 .34100002 .80200005 C .37500003 .80200005 .379 .801 .397 .796 C .38900003 .793 .379 .788 .335 .788 C .316 .788 .30400002 .788 .293 .79700005 M .215 .52400005 C .238 .53000003 .26000002 .53000003 .272 .53000003 C .307 .53000003 .31100002 .52900004 .32900003 .52400005 C .321 .52000004 .31100002 .51600003 .26500002 .51600003 C .24200001 .51600003 .23300001 .51600003 .215 .52400005 Z "/>
</symbol><use xlink:href="#font_2_1" transform="matrix(9.96264,0,0,-9.96264,95.57914,65.61234)"/>
<text fill-opacity="0" transform="matrix(1,0,-0,1,-6,158)" font-size="6.9738503" font-family="NGUJSL+CMR7" x="105.709" y="-92.936">
0
</text>
<symbol id="font_4_1"><path d="M .46400005 .33900002 C .46400005 .44900003 .45100003 .528 .40500003 .598 C .374 .644 .31200004 .684 .23200001 .684 C 0 .684 0 .41100004 0 .33900002 C 0 .26700002 0 0 .23200001 0 C .46400005 0 .46400005 .26700002 .46400005 .33900002 M .23200001 .028 C .186 .028 .125 .055 .105000004 .13700001 C .091000006 .19600001 .091000006 .27800003 .091000006 .35200003 C .091000006 .42500004 .091000006 .50100005 .106000006 .556 C .127 .635 .19100001 .656 .23200001 .656 C .286 .656 .338 .623 .356 .565 C .37200004 .51100004 .37300003 .43900004 .37300003 .35200003 C .37300003 .27800003 .37300003 .20400001 .36 .141 C .34000003 .050000004 .272 .028 .23200001 .028 Z "/>
</symbol><use xlink:href="#font_4_1" transform="matrix(6.9738503,0,0,-6.9738503,100.07164,65.20348)"/>
<text fill-opacity="0" transform="matrix(1,0,-0,1,-6,158)" font-size="9.96264" font-family="NCCSMV+CMMI10" x="78.673" y="-66.084">
&#x03be;
</text>
<use xlink:href="#font_2_1" transform="matrix(9.96264,0,0,-9.96264,72.90214,93.95834)"/>
<text fill-opacity="0" transform="matrix(1,0,-0,1,-6,158)" font-size="6.9738503" font-family="NGUJSL+CMR7" x="83.031" y="-64.589">
1
</text>
<symbol id="font_4_2"><path d="M .22600001 .63600004 C .22600001 .66300005 .224 .66400003 .19600001 .66400003 C .132 .601 .041 .6 0 .6 L 0 .564 C .023999996 .564 .09000001 .564 .14500001 .592 L .14500001 .082 C .14500001 .049000002 .14500001 .036000002 .04500001 .036000002 L .0069999993 .036000002 L .0069999993 0 C .024999999 .001 .148 .004 .185 .004 C .21600002 .004 .34200004 .001 .36400002 0 L .36400002 .036000002 L .32600003 .036000002 C .22600001 .036000002 .22600001 .049000002 .22600001 .082 L .22600001 .63600004 Z "/>
</symbol><use xlink:href="#font_4_2" transform="matrix(6.9738503,0,0,-6.9738503,77.791145,93.411)"/>
<path transform="matrix(1,0,0,-1,57.056,77.522)" stroke-width=".3985" stroke-linecap="butt" stroke-miterlimit="10" stroke-linejoin="miter" fill="none" stroke="rgb(0,0,0)" d="M 36.35124 8.49538 L 26.38805 -3.9559999 "/>
<text fill-opacity="0" transform="matrix(1,0,-0,1,-6,158)" font-size="9.96264" font-family="NCCSMV+CMMI10" x="55.391" y="-37.737">
&#x03be;
</text>
<use xlink:href="#font_2_1" transform="matrix(9.96264,0,0,-9.96264,49.62014,122.30534)"/>
<text fill-opacity="0" transform="matrix(1,0,-0,1,-6,158)" font-size="6.9738503" font-family="SENBEP+CMMI7" x="59.75" y="-36.243">
&#x03b1;
</text>
<symbol id="font_5_1"><path d="M .48500004 .15100001 C .5770001 .24600002 .6140001 .379 .6140001 .39000002 C .6140001 .403 .60200006 .403 .59700006 .403 C .58300006 .403 .58300006 .4 .57600003 .37800002 C .558 .312 .52500004 .25100002 .483 .19700001 C .48200002 .21200001 .48000005 .279 .47800002 .28800002 C .46300003 .387 .388 .451 .28800002 .451 C .141 .451 0 .314 0 .17400001 C 0 .082 .067 0 .183 0 C .275 0 .358 .042000003 .414 .085 C .437 .012000001 .488 0 .51800007 0 C .57600003 0 .61200005 .049000002 .61200005 .07 C .61200005 .082 .6000001 .082 .595 .082 C .5820001 .082 .58000004 .078 .57800007 .072000004 C .56400007 .034 .53300005 .028 .521 .028 C .507 .028 .49000004 .028 .48500004 .15100001 M .407 .117000006 C .30900002 .037 .224 .028 .186 .028 C .120000005 .028 .083000004 .072000004 .083000004 .13900001 C .083000004 .16800001 .097 .277 .149 .34600002 C .195 .40600002 .252 .423 .287 .423 C .367 .423 .39000002 .34600002 .398 .284 C .404 .24100001 .402 .17000002 .407 .117000006 Z "/>
</symbol><use xlink:href="#font_5_1" transform="matrix(6.9738503,0,0,-6.9738503,54.182377,121.826744)"/>
<path transform="matrix(1,0,0,-1,57.056,77.522)" stroke-width="1.1955299" stroke-linecap="butt" stroke-dasharray="1.1955299,.99628" stroke-miterlimit="10" stroke-linejoin="miter" fill="none" stroke="rgb(0,0,0)" d="M 13.67323 -19.85143 L 4.02928 -31.9043 "/>
<path transform="matrix(1,0,0,-1,57.056,77.522)" stroke-width="1.1955299" stroke-linecap="butt" stroke-dasharray="1.1955299,.99628" stroke-miterlimit="10" stroke-linejoin="miter" fill="none" stroke="rgb(0,0,0)" d="M -9.32304 -48.59674 L -18.64822 -60.2511 "/>
<text fill-opacity="0" transform="matrix(1,0,-0,1,-6,158)" font-size="9.96264" font-family="NCCSMV+CMMI10" x="78.069" y="-15.06">
&#x03be;
</text>
<use xlink:href="#font_2_1" transform="matrix(9.96264,0,0,-9.96264,72.29814,144.98235)"/>
<text fill-opacity="0" transform="matrix(1,0,-0,1,-6,158)" font-size="6.9738503" font-family="SENBEP+CMMI7" x="82.427" y="-13.566">
&#x03b1;
</text>
<use xlink:href="#font_5_1" transform="matrix(6.9738503,0,0,-6.9738503,76.85938,144.50374)"/>
<path transform="matrix(1,0,0,-1,57.056,77.522)" stroke-width=".3985" stroke-linecap="butt" stroke-miterlimit="10" stroke-linejoin="miter" fill="none" stroke="rgb(0,0,0)" d="M 5.69849 -48.59674 L 12.08363 -54.98024 "/>
<text fill-opacity="0" transform="matrix(1,0,-0,1,-6,158)" font-size="9.96264" font-family="NCCSMV+CMMI10" x="101.35" y="-37.737">
&#x03be;
</text>
<use xlink:href="#font_2_1" transform="matrix(9.96264,0,0,-9.96264,95.57914,122.30534)"/>
<text fill-opacity="0" transform="matrix(1,0,-0,1,-6,158)" font-size="6.9738503" font-family="NGUJSL+CMR7" x="105.709" y="-36.243">
1
</text>
<use xlink:href="#font_4_2" transform="matrix(6.9738503,0,0,-6.9738503,100.46915,121.757)"/>
<path transform="matrix(1,0,0,-1,57.056,77.522)" stroke-width=".3985" stroke-linecap="butt" stroke-miterlimit="10" stroke-linejoin="miter" fill="none" stroke="rgb(0,0,0)" d="M 26.38792 -19.85143 L 36.35117 -32.3028 "/>
<text fill-opacity="0" transform="matrix(1,0,-0,1,-6,158)" font-size="9.96264" font-family="NCCSMV+CMMI10" x="124.027" y="-66.084">
&#x03be;
</text>
<use xlink:href="#font_2_1" transform="matrix(9.96264,0,0,-9.96264,118.25614,93.95834)"/>
<text fill-opacity="0" transform="matrix(1,0,-0,1,-6,158)" font-size="6.9738503" font-family="NGUJSL+CMR7" x="128.386" y="-64.589">
0
</text>
<use xlink:href="#font_4_1" transform="matrix(6.9738503,0,0,-6.9738503,122.74864,93.55048)"/>
<path transform="matrix(1,0,0,-1,57.056,77.522)" stroke-width=".3985" stroke-linecap="butt" stroke-miterlimit="10" stroke-linejoin="miter" fill="none" stroke="rgb(0,0,0)" d="M 49.06544 8.49538 L 59.02869 -3.9559999 "/>
<text fill-opacity="0" transform="matrix(1,0,-0,1,-6,158)" font-size="9.96264" font-family="NCCSMV+CMMI10" x="78.186" y="-94.441">
p
</text>
<symbol id="font_2_5"><path d="M .07700001 .072 C .069000006 .038000003 .067 .031000003 .023000002 .031000003 C .011 .031000003 0 .031000003 0 .0119999945 C 0 .003999993 .005000001 0 .013 0 C .040000003 0 .069000006 .0029999912 .097 .0029999912 C .13000001 .0029999912 .164 0 .19600001 0 C .20100002 0 .21400002 0 .21400002 .019999996 C .21400002 .031000003 .20400001 .031000003 .19000001 .031000003 C .14 .031000003 .14 .038000003 .14 .047000006 C .14 .059 .18200001 .222 .18900001 .24700001 C .202 .21800001 .23000002 .183 .28100002 .183 C .397 .183 .522 .329 .522 .476 C .522 .57000005 .46500003 .63600004 .38900003 .63600004 C .33900002 .63600004 .291 .6 .25800002 .561 C .24800001 .615 .20500001 .63600004 .16800001 .63600004 C .12200001 .63600004 .103 .597 .094000004 .579 C .076000005 .545 .063 .485 .063 .48200002 C .063 .47200003 .073 .47200003 .075 .47200003 C .08500001 .47200003 .086 .47300002 .09200001 .49500003 C .10900001 .566 .12900001 .614 .165 .614 C .18200001 .614 .19600001 .60600007 .19600001 .568 C .19600001 .545 .19300002 .53400004 .18900001 .517 L .07700001 .072 M .25300002 .50600004 C .26000002 .533 .28700003 .561 .305 .57600003 C .34000003 .607 .36900002 .614 .386 .614 C .42600003 .614 .45000002 .579 .45000002 .52 C .45000002 .46100003 .41700003 .34600002 .39900002 .30800003 C .365 .238 .31700003 .20500001 .28 .20500001 C .21400002 .20500001 .20100002 .28800002 .20100002 .294 C .20100002 .296 .20100002 .298 .20400001 .31 L .25300002 .50600004 Z "/>
</symbol><use xlink:href="#font_2_5" transform="matrix(9.96264,0,0,-9.96264,71.867195,65.49175)"/>
<text fill-opacity="0" transform="matrix(1,0,-0,1,-6,158)" font-size="6.9738503" font-family="NGUJSL+CMR7" x="83.199" y="-92.947">
0
</text>
<use xlink:href="#font_4_1" transform="matrix(6.9738503,0,0,-6.9738503,77.56164,65.19248)"/>
<text fill-opacity="0" transform="matrix(1,0,-0,1,-6,158)" font-size="9.96264" font-family="VJBEXT+MSAM10" x="90.436" y="-94.441">
?
</text>
<symbol id="font_6_1"><path d="M .04 .65900004 C .04 .67600006 .04 .694 .020000003 .694 C 0 .694 0 .675 0 .65800005 L 0 .036000002 C 0 .019000001 0 0 .020000003 0 C .04 0 .04 .018000001 .04 .035 L .04 .65900004 M .23400003 .32700002 L .57400006 .32700002 C .591 .32700002 .609 .32700002 .609 .347 C .609 .367 .591 .367 .57400006 .367 L .23400003 .367 L .23400003 .65900004 C .23400003 .67600006 .23400003 .694 .21400002 .694 C .194 .694 .194 .675 .194 .65800005 L .194 .036000002 C .194 .019000001 .194 0 .21400002 0 C .23400003 0 .23400003 .018000001 .23400003 .035 L .23400003 .32700002 Z "/>
</symbol><use xlink:href="#font_6_1" transform="matrix(9.96264,0,0,-9.96264,84.993904,63.559)"/>
<text fill-opacity="0" transform="matrix(-1,0,0,1,281.53802,158)" font-size="9.96264" font-family="VJBEXT+MSAM10" x="143.769" y="-66.095">
?
</text>
<use xlink:href="#font_6_1" transform="matrix(-9.96264,0,0,-9.96264,137.21112,91.905)"/>
<text fill-opacity="0" transform="matrix(1,0,-0,1,-5.9999847,158)" font-size="9.96264" font-family="NCCSMV+CMMI10" x="146.537" y="-66.095">
q
</text>
<symbol id="font_2_6"><path d="M .41200003 .625 C .41200003 .62900007 .40900004 .635 .40200004 .635 C .39100003 .635 .35100004 .595 .33400002 .566 C .31200004 .62 .27300003 .63600004 .24100001 .63600004 C .122999996 .63600004 0 .488 0 .343 C 0 .245 .059000004 .183 .132 .183 C .175 .183 .214 .207 .25000003 .243 C .24100001 .208 .208 .073 .205 .063999996 C .19700001 .036 .18900001 .032000005 .133 .031000003 C .120000005 .031000003 .11 .031000003 .11 .0109999925 C .11 .00999999 .11 0 .122999996 0 C .155 0 .19 .0029999912 .223 .0029999912 C .25700003 .0029999912 .293 0 .32600003 0 C .33100003 0 .344 0 .344 .019999996 C .344 .031000003 .33400002 .031000003 .31800002 .031000003 C .27 .031000003 .27 .038000003 .27 .047000006 C .27 .054000005 .272 .060000002 .27400002 .069000006 L .41200003 .625 M .135 .20500001 C .075 .20500001 .07100001 .282 .07100001 .29900002 C .07100001 .347 .099999994 .45600003 .117 .49800003 C .148 .572 .2 .614 .24100001 .614 C .30600002 .614 .32000002 .533 .32000002 .526 C .32000002 .52 .26500002 .301 .26200002 .29700002 C .247 .269 .191 .20500001 .135 .20500001 Z "/>
</symbol><use xlink:href="#font_2_6" transform="matrix(9.96264,0,0,-9.96264,140.93552,93.83775)"/>
<text fill-opacity="0" transform="matrix(1,0,-0,1,-5.9999847,158)" font-size="6.9738503" font-family="NGUJSL+CMR7" x="150.984" y="-64.6">
0
</text>
<use xlink:href="#font_4_1" transform="matrix(6.9738503,0,0,-6.9738503,145.34665,93.53948)"/>
<text fill-opacity="0" transform="matrix(1,0,-0,1,-6,158)" font-size="9.96264" font-family="NCCSMV+CMMI10" x="55.509" y="-66.095">
p
</text>
<use xlink:href="#font_2_5" transform="matrix(9.96264,0,0,-9.96264,49.190193,93.83775)"/>
<text fill-opacity="0" transform="matrix(1,0,-0,1,-6,158)" font-size="6.9738503" font-family="NGUJSL+CMR7" x="60.522" y="-64.6">
1
</text>
<use xlink:href="#font_4_2" transform="matrix(6.9738503,0,0,-6.9738503,55.28215,93.4)"/>
<text fill-opacity="0" transform="matrix(1,0,-0,1,-6,158)" font-size="9.96264" font-family="VJBEXT+MSAM10" x="67.758" y="-66.095">
?
</text>
<use xlink:href="#font_6_1" transform="matrix(9.96264,0,0,-9.96264,62.31591,91.905)"/>
<text fill-opacity="0" transform="matrix(-1,0,0,1,236.184,158)" font-size="9.96264" font-family="VJBEXT+MSAM10" x="121.092" y="-37.748">
?
</text>
<use xlink:href="#font_6_1" transform="matrix(-9.96264,0,0,-9.96264,114.534096,120.252)"/>
<text fill-opacity="0" transform="matrix(1,0,-0,1,-6,158)" font-size="9.96264" font-family="NCCSMV+CMMI10" x="123.86" y="-37.748">
q
</text>
<use xlink:href="#font_2_6" transform="matrix(9.96264,0,0,-9.96264,118.25851,122.18475)"/>
<text fill-opacity="0" transform="matrix(1,0,-0,1,-6,158)" font-size="6.9738503" font-family="NGUJSL+CMR7" x="128.307" y="-36.254">
1
</text>
<use xlink:href="#font_4_2" transform="matrix(6.9738503,0,0,-6.9738503,123.067154,121.746)"/>
<text fill-opacity="0" transform="matrix(1,0,-0,1,-6.000002,158)" font-size="9.96264" font-family="NCCSMV+CMMI10" x="30.621" y="-37.748">
p
</text>
<use xlink:href="#font_2_5" transform="matrix(9.96264,0,0,-9.96264,24.302195,122.18475)"/>
<text fill-opacity="0" transform="matrix(1,0,-0,1,-6.000002,158)" font-size="6.9738503" font-family="SENBEP+CMMI7" x="35.634" y="-36.254">
&#x03b1;
</text>
<use xlink:href="#font_5_1" transform="matrix(6.9738503,0,0,-6.9738503,30.066376,121.81574)"/>
<text fill-opacity="0" transform="matrix(1,0,-0,1,-6.000002,158)" font-size="9.96264" font-family="VJBEXT+MSAM10" x="44.079" y="-37.748">
?
</text>
<use xlink:href="#font_6_1" transform="matrix(9.96264,0,0,-9.96264,38.6369,120.252)"/>
<text fill-opacity="0" transform="matrix(-1,0,0,1,192.038,158)" font-size="9.96264" font-family="VJBEXT+MSAM10" x="99.019" y="-15.071">
?
</text>
<use xlink:href="#font_6_1" transform="matrix(-9.96264,0,0,-9.96264,92.46109,142.929)"/>
<text fill-opacity="0" transform="matrix(1,0,-0,1,-6,158)" font-size="9.96264" font-family="NCCSMV+CMMI10" x="101.786" y="-15.071">
q
</text>
<use xlink:href="#font_2_6" transform="matrix(9.96264,0,0,-9.96264,96.18451,144.86176)"/>
<text fill-opacity="0" transform="matrix(1,0,-0,1,-6,158)" font-size="6.9738503" font-family="SENBEP+CMMI7" x="106.234" y="-13.577">
&#x03b1;
</text>
<use xlink:href="#font_5_1" transform="matrix(6.9738503,0,0,-6.9738503,100.66638,144.49274)"/>
</g>
</svg>
