<?xml version="1.0" standalone="no"?>
<!DOCTYPE svg PUBLIC "-//W3C//DTD SVG 1.1//EN" "http://www.w3.org/Graphics/SVG/1.1/DTD/svg11.dtd">
<svg xmlns="http://www.w3.org/2000/svg" xmlns:xlink="http://www.w3.org/1999/xlink" version="1.1" width="4.4097223cm" height="4.903611cm" viewBox="0 0 125 139">
<clipPath id="cp0">
<path transform="matrix(1,0,0,-1,0,142)" d="M 0 0 L 130.35 0 L 130.35 145.93 L 0 145.93 Z "/>
</clipPath>
<g clip-path="url(#cp0)">
<path transform="matrix(1,0,0,-1,57.092,129.778)" stroke-width=".79701" stroke-linecap="butt" stroke-dasharray=".79701,.99628" stroke-miterlimit="10" stroke-linejoin="miter" fill="none" stroke="rgb(0,0,0)" d="M -21.95924 17.00902 L 21.95924 17.00902 "/>
<text fill-opacity="0" transform="matrix(1,0,-0,1,69.883,76.307)" font-size="7.9701" font-family="HNIPYH+CMR8" x="-14.908" y="61.709">
0
</text>
<symbol id="font_1_32"><path d="M .448 .34 C .448 .44700003 .437 .512 .404 .57600003 C .36 .66400003 .279 .68600005 .224 .68600005 C .09800001 .68600005 .052 .59200007 .038000003 .56400007 C .0020000003 .49100003 0 .39200002 0 .34 C 0 .27400002 .0030000024 .17300001 .051000006 .09300001 C .09700001 .019000001 .171 0 .224 0 C .272 0 .358 .0150000015 .40800002 .11400001 C .44500002 .186 .448 .275 .448 .34 M .224 .028 C .19 .028 .121 .044000003 .1 .149 C .08900001 .206 .08900001 .3 .08900001 .35200003 C .08900001 .421 .08900001 .49100003 .1 .54600006 C .121 .64800006 .199 .65800005 .224 .65800005 C .25800002 .65800005 .32700002 .64100003 .347 .5500001 C .359 .49500003 .359 .42000002 .359 .35200003 C .359 .293 .359 .20300001 .347 .147 C .326 .042000003 .257 .028 .224 .028 Z "/>
</symbol><use xlink:href="#font_1_32" transform="matrix(7.9701,0,0,-7.9701,55.301777,138.18336)"/>
<path transform="matrix(1,0,0,-1,57.092,129.778)" stroke-width=".3985" stroke-linecap="butt" stroke-miterlimit="10" stroke-linejoin="miter" fill="none" stroke="rgb(0,0,0)" d="M -2.26787 17.00813 L 2.26787 17.00813 "/>
<text fill-opacity="0" transform="matrix(1,0,-0,1,78.295,52.777)" font-size="7.9701" font-family="NLWSSV+CMMI8" x="-14.908" y="61.709">
&#x03c9;
</text>
<symbol id="font_2_22"><path d="M .62500006 .37600002 C .62500006 .407 .61600006 .45200002 .5770001 .45200002 C .5500001 .45200002 .52400005 .42700002 .52400005 .39900002 C .52400005 .384 .535 .375 .54600006 .365 C .56100005 .35 .57600003 .324 .57600003 .287 C .57600003 .22000001 .507 .078 .407 .078 C .35500002 .078 .319 .109000005 .307 .157 C .323 .19100001 .344 .24600002 .344 .274 C .344 .291 .33600003 .304 .317 .304 C .272 .304 .266 .19300002 .266 .16100001 C .231 .119 .19000001 .078 .132 .078 C .068 .078 .038000003 .12900001 .038000003 .18800001 C .038000003 .23500001 .051 .277 .071 .316 C .1 .374 .139 .412 .139 .428 C .139 .439 .13000001 .447 .119 .447 C .1 .447 .085 .418 .074 .4 C .031000001 .329 0 .23600002 0 .15300001 C 0 .076 .029000001 .0010000002 .117 .0010000002 C .20300001 .0010000002 .252 .07 .27400002 .098000005 C .289 .043 .33 0 .391 0 C .47300002 0 .51400006 .053000003 .55500007 .122 C .5870001 .17500001 .62500006 .313 .62500006 .37600002 Z "/>
</symbol><use xlink:href="#font_2_22" transform="matrix(7.9701,0,0,-7.9701,63.51452,114.565704)"/>
<path transform="matrix(1,0,0,-1,57.092,129.778)" stroke-width=".3985" stroke-linecap="butt" stroke-miterlimit="10" stroke-linejoin="miter" fill="none" stroke="rgb(0,0,0)" d="M -2.26787 45.35506 L 2.26787 45.35506 "/>
<text fill-opacity="0" transform="matrix(1,0,-0,1,80.898,23.876)" font-size="7.9701" font-family="NLWSSV+CMMI8" x="-14.908" y="61.709">
&#x03c9;
</text>
<use xlink:href="#font_2_22" transform="matrix(7.9701,0,0,-7.9701,66.11753,85.6647)"/>
<text fill-opacity="0" transform="matrix(1,0,-0,1,80.898,23.876)" font-size="5.9776" font-family="TUJAHH+CMR6" x="-9.643" y="62.815998">
1
</text>
<symbol id="font_3_33"><path d="M .23800002 .63500005 C .23800002 .665 .23400001 .665 .20400001 .665 C .138 .601 .036 .601 0 .601 L 0 .56200004 C .025999993 .56200004 .09200001 .56200004 .152 .59000003 L .152 .085 C .152 .052 .152 .039 .048999995 .039 L .0059999973 .039 L .0059999973 0 C .061000004 .004 .13900001 .004 .19500001 .004 C .251 .004 .329 .004 .384 0 L .384 .039 L .34100002 .039 C .23800002 .039 .23800002 .052 .23800002 .085 L .23800002 .63500005 Z "/>
</symbol><use xlink:href="#font_3_33" transform="matrix(5.9776,0,0,-5.9776,71.978294,86.692)"/>
<path transform="matrix(1,0,0,-1,57.092,129.778)" stroke-width=".3985" stroke-linecap="butt" stroke-miterlimit="10" stroke-linejoin="miter" fill="none" stroke="rgb(0,0,0)" d="M 0 0 L 0 113.38766 "/>
<text fill-opacity="0" transform="matrix(1,0,-0,1,64.193,-49.753998)" font-size="11.9552" font-family="XJRWKI+LMRoman12-Regular" x="-14.908 -5.7981367" y="61.709 61.709">
On
</text>
<symbol id="font_4_50"><path d="M .653 .36 C .653 .56700003 .501 .7250001 .32700002 .7250001 C .149 .7250001 0 .56500006 0 .36 C 0 .157 .15100001 0 .32600003 0 C .505 0 .653 .15900001 .653 .36 M .56 .375 C .56 .11500001 .42400002 .023000002 .32700002 .023000002 C .22500001 .023000002 .092999995 .119 .092999995 .375 C .092999995 .62000006 .23200001 .70300007 .32600003 .70300007 C .42500004 .70300007 .56 .61700004 .56 .375 Z "/>
</symbol><symbol id="font_4_4d"><path d="M .48900002 0 L .48900002 .029000001 C .439 .029000001 .414 .029000001 .41300002 .059000004 L .41300002 .24300002 C .41300002 .33600003 .41300002 .36400002 .39000002 .39600003 C .361 .43500003 .314 .441 .28 .441 C .183 .441 .145 .358 .13700001 .33800003 L .136 .33800003 L .136 .441 L 0 .43 L 0 .40100002 C .068 .40100002 .076000005 .39400002 .076000005 .34500003 L .076000005 .074 C .076000005 .029000001 .065 .029000001 0 .029000001 L 0 0 C .026 .002 .08 .002 .107999995 .002 C .13700001 .002 .191 .002 .21700001 0 L .21700001 .029000001 C .153 .029000001 .141 .029000001 .141 .074 L .141 .26000002 C .141 .365 .21000001 .42100003 .272 .42100003 C .33400002 .42100003 .34800002 .37 .34800002 .30900002 L .34800002 .074 C .34800002 .029000001 .337 .029000001 .272 .029000001 L .272 0 C .298 .002 .352 .002 .38000003 .002 C .409 .002 .46300003 .002 .48900002 0 Z "/>
</symbol><use xlink:href="#font_4_50" transform="matrix(11.9552,0,0,-11.9552,49.93058,12.206061)"/>
<use xlink:href="#font_4_4d" transform="matrix(11.9552,0,0,-11.9552,58.777428,11.955002)"/>
<path transform="matrix(1,0,0,-1,57.092,129.778)" stroke-width=".79701" stroke-linecap="butt" stroke-miterlimit="10" stroke-linejoin="miter" fill="none" stroke="rgb(0,0,0)" d="M -56.69382 113.38766 C -50.3156 87.87476 -28.34691 0 0 0 C 28.3469 0 50.31558 87.87474 56.69382 113.38766 "/>
<text fill-opacity="0" transform="matrix(1,0,-0,1,116.112,-52.691)" font-size="11.9552" font-family="WUWDGV+CMMI12" x="-14.908" y="61.709">
V
</text>
<symbol id="font_5_57"><path d="M .565 .59300005 C .59900004 .6470001 .63 .67100006 .681 .6750001 C .69100004 .67600006 .699 .67600006 .699 .69400007 C .699 .6980001 .697 .70400006 .688 .70400006 C .67 .70400006 .62700003 .7020001 .609 .7020001 C .58 .7020001 .55 .70400006 .522 .70400006 C .514 .70400006 .504 .70400006 .504 .68500006 C .504 .67600006 .513 .6750001 .517 .6750001 C .554 .67200005 .558 .65400004 .558 .6420001 C .558 .62700003 .544 .60400003 .543 .60300004 L .22900002 .105000004 L .15900001 .64400005 C .15900001 .67300004 .21100001 .6750001 .22200002 .6750001 C .237 .6750001 .246 .6750001 .246 .69400007 C .246 .70400006 .235 .70400006 .23200001 .70400006 C .21500002 .70400006 .19500001 .7020001 .178 .7020001 L .12200001 .7020001 C .049000006 .7020001 .019000005 .70400006 .018000003 .70400006 C .011999998 .70400006 0 .70400006 0 .68600005 C 0 .6750001 .007000003 .6750001 .023000006 .6750001 C .074 .6750001 .07700001 .66600007 .08 .64100003 L .16000001 .024000002 C .163 .0030000005 .163 0 .177 0 C .18900001 0 .194 .0030000005 .20400001 .019000001 L .565 .59300005 Z "/>
</symbol><use xlink:href="#font_5_57" transform="matrix(11.9552,0,0,-11.9552,101.84959,9.269057)"/>
<text fill-opacity="0" transform="matrix(1,0,-0,1,116.112,-52.691)" font-size="11.9552" font-family="EEICHW+CMR12" x="-5.483" y="61.709">
[
</text>
<symbol id="font_6_5d"><path d="M .134 0 L .134 .036999986 L .037000008 .036999986 L .037000008 .96300006 L .134 .96300006 L .134 1 L 0 1 L 0 0 L .134 0 Z "/>
</symbol><use xlink:href="#font_6_5d" transform="matrix(11.9552,0,0,-11.9552,112.0158,12.006798)"/>
<text fill-opacity="0" transform="matrix(1,0,-0,1,116.112,-52.691)" font-size="11.9552" font-family="WUWDGV+CMMI12" x="-2.2309997" y="61.709">
G
</text>
<symbol id="font_5_48"><path d="M .69600004 .7160001 C .69600004 .7250001 .689 .7250001 .68700004 .7250001 C .685 .7250001 .681 .7250001 .67300004 .71500003 L .60400003 .632 C .59900004 .64000005 .579 .6750001 .54 .6980001 C .49700004 .7250001 .454 .7250001 .439 .7250001 C .22500001 .7250001 0 .507 0 .271 C 0 .106000006 .11400001 0 .264 0 C .336 0 .42700002 .024000002 .477 .087 C .48800004 .049000002 .51 .022000002 .517 .022000002 C .522 .022000002 .523 .025000002 .524 .025000002 C .52500004 .027000003 .533 .062000003 .538 .080000006 L .554 .14400001 C .56200004 .177 .56600004 .191 .573 .221 C .583 .259 .58500004 .26200002 .64000005 .263 C .644 .263 .656 .263 .656 .282 C .656 .29200003 .646 .29200003 .643 .29200003 C .62600005 .29200003 .607 .29000002 .58900005 .29000002 L .535 .29000002 C .49300003 .29000002 .449 .29200003 .40800002 .29200003 C .39900002 .29200003 .387 .29200003 .387 .27400002 C .387 .26400003 .395 .26400003 .395 .263 L .42000002 .263 C .499 .263 .499 .25500003 .499 .24000001 C .499 .23900001 .48000002 .13800001 .46100003 .10800001 C .423 .052 .344 .029000003 .285 .029000003 C .20800002 .029000003 .083000004 .069000006 .083000004 .24200001 C .083000004 .30900002 .10700001 .462 .20400001 .57500005 C .267 .6470001 .36 .69600004 .448 .69600004 C .56600004 .69600004 .60800004 .595 .60800004 .503 C .60800004 .48700002 .60400003 .46500003 .60400003 .451 C .60400003 .44200003 .614 .44200003 .61700004 .44200003 C .628 .44200003 .629 .44300002 .633 .46100003 L .69600004 .7160001 Z "/>
</symbol><use xlink:href="#font_5_48" transform="matrix(11.9552,0,0,-11.9552,114.47876,9.269057)"/>
<text fill-opacity="0" transform="matrix(1,0,-0,1,116.112,-52.691)" font-size="11.9552" font-family="EEICHW+CMR12" x="7.0030003" y="61.709">
]
</text>
<symbol id="font_6_5f"><path d="M .134 1 L 0 1 L 0 .96300006 L .097 .96300006 L .097 .036999986 L 0 .036999986 L 0 0 L .134 0 L .134 1 Z "/>
</symbol><use xlink:href="#font_6_5f" transform="matrix(11.9552,0,0,-11.9552,123.36606,12.006798)"/>
<path transform="matrix(1,0,0,-1,57.092,129.778)" d="M 39.96077 68.0326 C 39.96077 68.81078 39.32991 69.44162 38.55173 69.44162 C 37.77353 69.44162 37.14268 68.81078 37.14268 68.0326 C 37.14268 67.2544 37.77353 66.62355 38.55173 66.62355 C 39.32991 66.62355 39.96077 67.2544 39.96077 68.0326 Z M 38.55173 68.0326 "/>
<text fill-opacity="0" transform="matrix(1,0,-0,1,105.937,-5.7590027)" font-size="11.9552" font-family="WUWDGV+CMMI12" x="-14.908" y="61.709">
G
</text>
<use xlink:href="#font_5_48" transform="matrix(11.9552,0,0,-11.9552,91.62676,56.201057)"/>
<path transform="matrix(1,0,0,-1,57.092,129.778)" stroke-width=".79701" stroke-linecap="butt" stroke-miterlimit="10" stroke-linejoin="miter" fill="none" stroke="rgb(0,0,0)" d="M -39.68567 113.38766 L -21.95924 17.00902 M 21.95924 17.00902 L 39.68567 113.38766 "/>
<text fill-opacity="0" transform="matrix(1,0,-0,1,106.973,-49.702003)" font-size="11.9552" font-family="WUWDGV+CMMI12" x="-14.908" y="61.709">
V
</text>
<use xlink:href="#font_5_57" transform="matrix(11.9552,0,0,-11.9552,92.71059,12.258056)"/>
</g>
</svg>
