<?xml version="1.0" standalone="no"?>
<!DOCTYPE svg PUBLIC "-//W3C//DTD SVG 1.1//EN" "http://www.w3.org/Graphics/SVG/1.1/DTD/svg11.dtd">
<svg xmlns="http://www.w3.org/2000/svg" xmlns:xlink="http://www.w3.org/1999/xlink" version="1.1" width="4.3744445cm" height="4.7977777cm" viewBox="0 0 124 136">
<clipPath id="cp0">
<path transform="matrix(1,0,0,-1,0,139)" d="M 0 0 L 127.802 0 L 127.802 141.625 L 0 141.625 Z "/>
</clipPath>
<g clip-path="url(#cp0)">
<path transform="matrix(1,0,0,-1,57.092,127.763)" stroke-width=".79701" stroke-linecap="butt" stroke-dasharray=".79701,.99628" stroke-miterlimit="10" stroke-linejoin="miter" fill="none" stroke="rgb(0,0,0)" d="M -21.95924 17.00902 L 21.95924 17.00902 "/>
<text fill-opacity="0" transform="matrix(1,0,-0,1,0,139)" font-size="6.9738503" font-family="REOFEC+CMR7" x="55.106" y="-3.321">
0
</text>
<symbol id="font_1_1"><path d="M .46400005 .33900002 C .46400005 .44900003 .45100003 .528 .40500003 .598 C .374 .644 .31200004 .684 .23200001 .684 C 0 .684 0 .41100004 0 .33900002 C 0 .26700002 0 0 .23200001 0 C .46400005 0 .46400005 .26700002 .46400005 .33900002 M .23200001 .028 C .186 .028 .125 .055 .105000004 .13700001 C .091000006 .19600001 .091000006 .27800003 .091000006 .35200003 C .091000006 .42500004 .091000006 .50100005 .106000006 .556 C .127 .635 .19100001 .656 .23200001 .656 C .286 .656 .338 .623 .356 .565 C .37200004 .51100004 .37300003 .43900004 .37300003 .35200003 C .37300003 .27800003 .37300003 .20400001 .36 .141 C .34000003 .050000004 .272 .028 .23200001 .028 Z "/>
</symbol><use xlink:href="#font_1_1" transform="matrix(6.9738503,0,0,-6.9738503,55.46864,135.81848)"/>
<path transform="matrix(1,0,0,-1,57.092,127.763)" stroke-width=".3985" stroke-linecap="butt" stroke-miterlimit="10" stroke-linejoin="miter" fill="none" stroke="rgb(0,0,0)" d="M -2.26787 17.00813 L 2.26787 17.00813 "/>
<text fill-opacity="0" transform="matrix(1,0,-0,1,0,139)" font-size="6.9738503" font-family="SSUIRG+CMMI7" x="63.528" y="-26.744">
&#x03c9;
</text>
<symbol id="font_2_2"><path d="M .64900005 .38 C .64900005 .41 .63600004 .451 .595 .451 C .57100004 .451 .544 .421 .544 .396 C .544 .363 .59800005 .356 .59800005 .28800002 C .59800005 .22400002 .53400004 .08 .42200002 .08 C .374 .08 .33400002 .113000005 .32 .157 C .333 .17900002 .35700002 .24800001 .35700002 .274 C .35700002 .289 .34800002 .304 .331 .304 C .28 .304 .276 .19600001 .276 .16100001 C .248 .125 .19800001 .08 .13300002 .08 C .079 .08 .039000005 .12900001 .039000005 .19600001 C .039000005 .312 .14200002 .409 .14200002 .42400002 C .14200002 .43600002 .132 .447 .121 .447 C .11100001 .447 .10500001 .442 .098 .433 C .085 .418 .072000004 .396 .060000002 .37600002 C .025000002 .316 0 .23100002 0 .15900001 C 0 .079 .031999998 0 .124000005 0 C .19100001 0 .24900001 .044000003 .285 .098000005 C .30400002 .038000003 .34800002 .0010000002 .412 .0010000002 C .58800006 .0010000002 .64900005 .297 .64900005 .38 Z "/>
</symbol><use xlink:href="#font_2_2" transform="matrix(6.9738503,0,0,-6.9738503,63.76511,112.32574)"/>
<path transform="matrix(1,0,0,-1,57.092,127.763)" stroke-width=".3985" stroke-linecap="butt" stroke-miterlimit="10" stroke-linejoin="miter" fill="none" stroke="rgb(0,0,0)" d="M -2.26787 45.35506 L 2.26787 45.35506 "/>
<text fill-opacity="0" transform="matrix(1,0,-0,1,0,139)" font-size="6.9738503" font-family="SSUIRG+CMMI7" x="66.244" y="-55.588">
&#x03c9;
</text>
<use xlink:href="#font_2_2" transform="matrix(6.9738503,0,0,-6.9738503,66.48112,83.48174)"/>
<text fill-opacity="0" transform="matrix(1,0,-0,1,0,139)" font-size="4.98132" font-family="POWUVC+CMR5" x="71.263" y="-54.592">
1
</text>
<symbol id="font_3_1"><path d="M .25500003 .63600004 C .25500003 .666 .252 .666 .21900001 .666 C .148 .60200006 .037 .60200006 .017000005 .60200006 L 0 .60200006 L 0 .558 L .017000005 .558 C .040000007 .558 .105000004 .56100005 .16300002 .586 L .16300002 .086 C .16300002 .055000003 .16300002 .044000003 .056999996 .044000003 L .0069999993 .044000003 L .0069999993 0 C .062000006 .004 .151 .004 .20900002 .004 C .26700002 .004 .356 .004 .411 0 L .411 .044000003 L .361 .044000003 C .25500003 .044000003 .25500003 .055000003 .25500003 .086 L .25500003 .63600004 Z "/>
</symbol><use xlink:href="#font_3_1" transform="matrix(4.98132,0,0,-4.98132,71.97533,84.408005)"/>
<path transform="matrix(1,0,0,-1,57.092,127.763)" stroke-width=".3985" stroke-linecap="butt" stroke-miterlimit="10" stroke-linejoin="miter" fill="none" stroke="rgb(0,0,0)" d="M 0 0 L 0 113.38766 "/>
<text fill-opacity="0" transform="matrix(1,0,-0,1,0,139)" font-size="9.96264" font-family="NIAIDA+LMRoman10-Regular" x="50.447 58.197933" y="-128.362 -128.362">
On
</text>
<symbol id="font_4_50"><path d="M .665 .36100003 C .665 .56500006 .51400006 .72700006 .33200002 .72700006 C .153 .72700006 0 .56700003 0 .36100003 C 0 .156 .15400001 0 .33200002 0 C .51400006 0 .665 .15900001 .665 .36100003 M .56200004 .37500003 C .56200004 .11000001 .42500004 .026000002 .33300003 .026000002 C .23700002 .026000002 .10300001 .11400001 .10300001 .37500003 C .10300001 .63400006 .24900001 .702 .33200002 .702 C .41900003 .702 .56200004 .63100004 .56200004 .37500003 Z "/>
</symbol><symbol id="font_4_4d"><path d="M .503 0 L .503 .031000001 C .451 .031000001 .42600003 .031000001 .425 .061000004 L .425 .252 C .425 .33800003 .425 .36900002 .39400002 .40500003 C .38000003 .42200002 .347 .44200003 .289 .44200003 C .216 .44200003 .169 .39900002 .141 .337 L .141 .44200003 L 0 .43100002 L 0 .4 C .07000001 .4 .07800001 .393 .07800001 .344 L .07800001 .076000005 C .07800001 .031000001 .067 .031000001 0 .031000001 L 0 0 L .113000005 .003 L .225 0 L .225 .031000001 C .158 .031000001 .147 .031000001 .147 .076000005 L .147 .26000002 C .147 .36400002 .218 .42000002 .282 .42000002 C .345 .42000002 .356 .36600003 .356 .30900002 L .356 .076000005 C .356 .031000001 .345 .031000001 .278 .031000001 L .278 0 L .391 .003 L .503 0 Z "/>
</symbol><use xlink:href="#font_4_50" transform="matrix(9.96264,0,0,-9.96264,51.004906,10.857179)"/>
<use xlink:href="#font_4_4d" transform="matrix(9.96264,0,0,-9.96264,58.51674,10.6380005)"/>
<path transform="matrix(1,0,0,-1,57.092,127.763)" stroke-width=".79701" stroke-linecap="butt" stroke-miterlimit="10" stroke-linejoin="miter" fill="none" stroke="rgb(0,0,0)" d="M -56.69382 113.38766 C -50.3156 87.87476 -28.34691 0 0 0 C 28.3469 0 50.31558 87.87474 56.69382 113.38766 "/>
<text fill-opacity="0" transform="matrix(1,0,-0,1,0,139)" font-size="9.96264" font-family="LXURMQ+CMMI10" x="103.088" y="-130.833">
V
</text>
<symbol id="font_5_3"><path d="M .572 .591 C .62100005 .669 .66300005 .67200005 .70000005 .674 C .712 .6750001 .71300006 .69200003 .71300006 .693 C .71300006 .70100003 .70800006 .70500004 .70000005 .70500004 C .674 .70500004 .64500004 .702 .61800003 .702 C .58500004 .702 .55100006 .70500004 .51900005 .70500004 C .513 .70500004 .50000006 .70500004 .50000006 .68600005 C .50000006 .6750001 .509 .674 .51600003 .674 C .54300004 .67200005 .56200004 .66200006 .56200004 .64100003 C .56200004 .62600005 .54700005 .60400003 .54700005 .60300004 L .24000001 .115 L .17200002 .64400005 C .17200002 .6610001 .19500002 .674 .24100003 .674 C .25500003 .674 .26600003 .674 .26600003 .69400007 C .26600003 .70300007 .25800002 .70500004 .25200003 .70500004 C .21200001 .70500004 .169 .702 .12800002 .702 C .11000001 .702 .091 .70300007 .07300001 .70300007 C .055000007 .70300007 .036000006 .70500004 .019000001 .70500004 C .012000002 .70500004 0 .70500004 0 .68600005 C 0 .674 .009000003 .674 .024999999 .674 C .08100001 .674 .08200001 .665 .085 .64000005 L .164 .023000002 C .167 .0030000005 .171 0 .18400002 0 C .20000002 0 .20400003 .005000001 .21200001 .018000001 L .572 .591 Z "/>
</symbol><use xlink:href="#font_5_3" transform="matrix(9.96264,0,0,-9.96264,103.645905,8.386186)"/>
<text fill-opacity="0" transform="matrix(1,0,-0,1,0,139)" font-size="9.96264" font-family="XWULZC+CMR10" x="111.113" y="-130.833">
[
</text>
<symbol id="font_6_2"><path d="M .13700002 0 L .13700002 .03999999 L .04 .03999999 L .04 .96000004 L .13700002 .96000004 L .13700002 1 L 0 1 L 0 0 L .13700002 0 Z "/>
</symbol><use xlink:href="#font_6_2" transform="matrix(9.96264,0,0,-9.96264,112.28859,10.657667)"/>
<text fill-opacity="0" transform="matrix(1,0,-0,1,0,139)" font-size="9.96264" font-family="LXURMQ+CMMI10" x="113.881" y="-130.833">
G
</text>
<symbol id="font_5_1"><path d="M .71000004 .71700007 C .71000004 .72 .708 .72700006 .699 .72700006 C .69600004 .72700006 .69500005 .7260001 .684 .71500003 L .614 .6380001 C .605 .65200007 .559 .72700006 .448 .72700006 C .22500001 .72700006 0 .50600004 0 .27400002 C 0 .115 .11100002 0 .273 0 C .317 0 .36200002 .0090000015 .398 .024000002 C .448 .044000003 .467 .065000005 .485 .085 C .49400002 .060000002 .52000004 .023000002 .53000003 .023000002 C .535 .023000002 .537 .026000002 .537 .027000003 C .53900003 .029000003 .549 .067 .554 .088 L .573 .165 C .577 .18200001 .582 .199 .586 .216 C .597 .261 .598 .263 .65500003 .26400003 C .66 .26400003 .671 .26500002 .671 .28400004 C .671 .29100004 .666 .29500002 .658 .29500002 C .63500005 .29500002 .57600003 .29200003 .55300003 .29200003 C .522 .29200003 .444 .29500002 .41300002 .29500002 C .404 .29500002 .39200002 .29500002 .39200002 .27500004 C .39200002 .26400003 .4 .26400003 .42200002 .26400003 C .423 .26400003 .45200002 .26400003 .47500002 .26200002 C .501 .25900003 .50600004 .256 .50600004 .24300002 C .50600004 .23400001 .495 .18900001 .485 .15200001 C .45700002 .042000003 .327 .031000003 .292 .031000003 C .19600001 .031000003 .091000006 .088 .091000006 .24100001 C .091000006 .272 .10100001 .43700004 .20600002 .56700003 C .26 .63500005 .357 .69600004 .45600003 .69600004 C .558 .69600004 .61700004 .619 .61700004 .503 C .61700004 .46300003 .614 .46200004 .614 .45200002 C .614 .44200003 .625 .44200003 .629 .44200003 C .642 .44200003 .642 .44400004 .647 .46200004 L .71000004 .71700007 Z "/>
</symbol><use xlink:href="#font_5_1" transform="matrix(9.96264,0,0,-9.96264,114.37913,8.386186)"/>
<text fill-opacity="0" transform="matrix(1,0,-0,1,0,139)" font-size="9.96264" font-family="XWULZC+CMR10" x="121.714" y="-130.833">
]
</text>
<symbol id="font_6_3"><path d="M .13700001 1 L 0 1 L 0 .96000004 L .097 .96000004 L .097 .03999999 L 0 .03999999 L 0 0 L .13700001 0 L .13700001 1 Z "/>
</symbol><use xlink:href="#font_6_3" transform="matrix(9.96264,0,0,-9.96264,121.933174,10.657667)"/>
<path transform="matrix(1,0,0,-1,57.092,127.763)" d="M 39.96077 68.0326 C 39.96077 68.81078 39.32991 69.44162 38.55173 69.44162 C 37.77353 69.44162 37.14268 68.81078 37.14268 68.0326 C 37.14268 67.2544 37.77353 66.62355 38.55173 66.62355 C 39.32991 66.62355 39.96077 67.2544 39.96077 68.0326 Z M 38.55173 68.0326 "/>
<text fill-opacity="0" transform="matrix(1,0,-0,1,0,139)" font-size="9.96264" font-family="LXURMQ+CMMI10" x="91.728" y="-84.4">
G
</text>
<use xlink:href="#font_5_1" transform="matrix(9.96264,0,0,-9.96264,92.22613,54.819176)"/>
<path transform="matrix(1,0,0,-1,57.092,127.763)" stroke-width=".79701" stroke-linecap="butt" stroke-miterlimit="10" stroke-linejoin="miter" fill="none" stroke="rgb(0,0,0)" d="M -39.68567 113.38766 L -21.95924 17.00902 M 21.95924 17.00902 L 39.68567 113.38766 "/>
<text fill-opacity="0" transform="matrix(1,0,-0,1,0,139)" font-size="9.96264" font-family="LXURMQ+CMMI10" x="92.764" y="-128.342">
V
</text>
<use xlink:href="#font_5_3" transform="matrix(9.96264,0,0,-9.96264,93.32191,10.877183)"/>
</g>
</svg>
