<?xml version="1.0" standalone="no"?>
<!DOCTYPE svg PUBLIC "-//W3C//DTD SVG 1.1//EN" "http://www.w3.org/Graphics/SVG/1.1/DTD/svg11.dtd">
<svg xmlns="http://www.w3.org/2000/svg" xmlns:xlink="http://www.w3.org/1999/xlink" version="1.1" width="5.009444cm" height="6.5969443cm" viewBox="0 0 142 187">
<clipPath id="cp0">
<path transform="matrix(1,0,0,-1,-2,190)" d="M 0 0 L 148.907 0 L 148.907 189.105 L 0 189.105 Z "/>
</clipPath>
<g clip-path="url(#cp0)">
<path transform="matrix(1,0,0,-1,88.866,13.4869995)" d="M 51.08675 12.5931 C 44.13132 16.18356 20.84232 -15.09859 -.93147 -57.27866 C -22.70529 -99.45874 -34.71762 -136.56204 -27.76219 -140.1525 C -20.80678 -143.74297 2.48222 -112.46082 24.25603 -70.28073 C 46.02983 -28.10065 58.04216 9.00264 51.08675 12.5931 Z M 11.66226 -63.7797 " fill="rgb(128,128,128)" fill-opacity=".5"/>
<text fill-opacity="0" transform="matrix(1,0,-0,1,-2,190)" font-size="9.96264" font-family="UBZMTO+CMMI10" x="86.125" y="-175.336">
p
</text>
<symbol id="font_1_2"><path d="M .07700001 .072 C .069000006 .038000003 .067 .031000003 .023000002 .031000003 C .011 .031000003 0 .031000003 0 .0119999945 C 0 .003999993 .005000001 0 .013 0 C .040000003 0 .069000006 .0029999912 .097 .0029999912 C .13000001 .0029999912 .164 0 .19600001 0 C .20100002 0 .21400002 0 .21400002 .019999996 C .21400002 .031000003 .20400001 .031000003 .19000001 .031000003 C .14 .031000003 .14 .038000003 .14 .047000006 C .14 .059 .18200001 .222 .18900001 .24700001 C .202 .21800001 .23000002 .183 .28100002 .183 C .397 .183 .522 .329 .522 .476 C .522 .57000005 .46500003 .63600004 .38900003 .63600004 C .33900002 .63600004 .291 .6 .25800002 .561 C .24800001 .615 .20500001 .63600004 .16800001 .63600004 C .12200001 .63600004 .103 .597 .094000004 .579 C .076000005 .545 .063 .485 .063 .48200002 C .063 .47200003 .073 .47200003 .075 .47200003 C .08500001 .47200003 .086 .47300002 .09200001 .49500003 C .10900001 .566 .12900001 .614 .165 .614 C .18200001 .614 .19600001 .60600007 .19600001 .568 C .19600001 .545 .19300002 .53400004 .18900001 .517 L .07700001 .072 M .25300002 .50600004 C .26000002 .533 .28700003 .561 .305 .57600003 C .34000003 .607 .36900002 .614 .386 .614 C .42600003 .614 .45000002 .579 .45000002 .52 C .45000002 .46100003 .41700003 .34600002 .39900002 .30800003 C .365 .238 .31700003 .20500001 .28 .20500001 C .21400002 .20500001 .20100002 .28800002 .20100002 .294 C .20100002 .296 .20100002 .298 .20400001 .31 L .25300002 .50600004 Z "/>
</symbol><use xlink:href="#font_1_2" transform="matrix(9.96264,0,0,-9.96264,83.8062,16.596754)"/>
<text fill-opacity="0" transform="matrix(1,0,-0,1,-2,190)" font-size="6.9738503" font-family="SYGXDD+CMR7" x="91.138" y="-173.842">
0
</text>
<symbol id="font_2_1"><path d="M .46400005 .33900002 C .46400005 .44900003 .45100003 .528 .40500003 .598 C .374 .644 .31200004 .684 .23200001 .684 C 0 .684 0 .41100004 0 .33900002 C 0 .26700002 0 0 .23200001 0 C .46400005 0 .46400005 .26700002 .46400005 .33900002 M .23200001 .028 C .186 .028 .125 .055 .105000004 .13700001 C .091000006 .19600001 .091000006 .27800003 .091000006 .35200003 C .091000006 .42500004 .091000006 .50100005 .106000006 .556 C .127 .635 .19100001 .656 .23200001 .656 C .286 .656 .338 .623 .356 .565 C .37200004 .51100004 .37300003 .43900004 .37300003 .35200003 C .37300003 .27800003 .37300003 .20400001 .36 .141 C .34000003 .050000004 .272 .028 .23200001 .028 Z "/>
</symbol><use xlink:href="#font_2_1" transform="matrix(6.9738503,0,0,-6.9738503,89.50064,16.297482)"/>
<text fill-opacity="0" transform="matrix(1,0,-0,1,-2,190)" font-size="9.96264" font-family="UBZMTO+CMMI10" x="64.865" y="-132.817">
p
</text>
<use xlink:href="#font_1_2" transform="matrix(9.96264,0,0,-9.96264,62.546192,59.11575)"/>
<text fill-opacity="0" transform="matrix(1,0,-0,1,-2,190)" font-size="6.9738503" font-family="SYGXDD+CMR7" x="69.878" y="-131.322">
1
</text>
<symbol id="font_2_2"><path d="M .22600001 .63600004 C .22600001 .66300005 .224 .66400003 .19600001 .66400003 C .132 .601 .041 .6 0 .6 L 0 .564 C .023999996 .564 .09000001 .564 .14500001 .592 L .14500001 .082 C .14500001 .049000002 .14500001 .036000002 .04500001 .036000002 L .0069999993 .036000002 L .0069999993 0 C .024999999 .001 .148 .004 .185 .004 C .21600002 .004 .34200004 .001 .36400002 0 L .36400002 .036000002 L .32600003 .036000002 C .22600001 .036000002 .22600001 .049000002 .22600001 .082 L .22600001 .63600004 Z "/>
</symbol><use xlink:href="#font_2_2" transform="matrix(6.9738503,0,0,-6.9738503,68.638145,58.677994)"/>
<path transform="matrix(1,0,0,-1,88.866,13.4869995)" stroke-width=".3985" stroke-linecap="butt" stroke-miterlimit="10" stroke-linejoin="miter" fill="none" stroke="rgb(0,0,0)" d="M -3.31606 -6.63316 L -17.94472 -35.88704 "/>
<text fill-opacity="0" transform="matrix(1,0,-0,1,-2.0000038,190)" font-size="9.96264" font-family="UBZMTO+CMMI10" x="43.605" y="-90.297">
p
</text>
<use xlink:href="#font_1_2" transform="matrix(9.96264,0,0,-9.96264,41.28619,101.63576)"/>
<text fill-opacity="0" transform="matrix(1,0,-0,1,-2.0000038,190)" font-size="6.9738503" font-family="SYGXDD+CMR7" x="48.618" y="-88.803">
2
</text>
<symbol id="font_2_3"><path d="M .442 .18200001 L .40800002 .18200001 C .40500003 .16000001 .39500004 .101 .38200003 .091000006 C .374 .085 .29700002 .085 .28300002 .085 L .099 .085 C .20400003 .178 .23900002 .20600002 .29900002 .25300002 C .37300003 .312 .442 .374 .442 .469 C .442 .59000003 .33600003 .66400003 .20800003 .66400003 C .084 .66400003 0 .577 0 .485 C 0 .43400002 .043000005 .42900002 .053000003 .42900002 C .077 .42900002 .10600001 .446 .10600001 .48200002 C .10600001 .5 .099 .535 .047000006 .535 C .078 .606 .146 .628 .19300002 .628 C .293 .628 .34500003 .55 .34500003 .469 C .34500003 .38200003 .28300002 .31300002 .25100002 .277 L .010000005 .039 C 0 .030000001 0 .028 0 0 L .41200003 0 L .442 .18200001 Z "/>
</symbol><use xlink:href="#font_2_3" transform="matrix(6.9738503,0,0,-6.9738503,47.05735,101.197)"/>
<path transform="matrix(1,0,0,-1,88.866,13.4869995)" stroke-width=".3985" stroke-linecap="butt" stroke-miterlimit="10" stroke-linejoin="miter" fill="none" stroke="rgb(0,0,0)" d="M -24.57616 -49.15338 L -39.2048 -78.40727 "/>
<text fill-opacity="0" transform="matrix(.5,-.86603,.86603,.5,48.127132,189.5065)" font-size="9.96264" font-family="UBZMTO+CMMI10" x="24.636 29.059412 33.492786" y="-43.658 -43.658 -43.658">
...
</text>
<symbol id="font_1_1"><path d="M .106 .053000003 C .106 .082 .08200001 .106000006 .05300001 .106000006 C .024000004 .106000006 0 .082 0 .053000003 C 0 .024 .024000004 0 .05300001 0 C .08200001 0 .106 .024 .106 .053000003 Z "/>
</symbol><use xlink:href="#font_1_1" transform="matrix(4.98132,-8.627945,-8.627945,-4.98132,23.064388,145.59998)"/>
<use xlink:href="#font_1_1" transform="matrix(4.98132,-8.627945,-8.627945,-4.98132,25.276093,141.76917)"/>
<use xlink:href="#font_1_1" transform="matrix(4.98132,-8.627945,-8.627945,-4.98132,27.49278,137.92975)"/>
<path transform="matrix(1,0,0,-1,88.866,13.4869995)" stroke-width=".3985" stroke-linecap="butt" stroke-miterlimit="10" stroke-linejoin="miter" fill="none" stroke="rgb(0,0,0)" d="M -45.83594 -91.67361 L -59.59927 -119.19955 "/>
<text fill-opacity="0" transform="matrix(1,0,-0,1,-2.000001,190)" font-size="9.96264" font-family="UBZMTO+CMMI10" x="3.321" y="-5.258">
p
</text>
<use xlink:href="#font_1_2" transform="matrix(9.96264,0,0,-9.96264,1.0021946,186.67476)"/>
<path transform="matrix(1,0,0,-1,88.866,13.4869995)" stroke-width=".3985" stroke-linecap="butt" stroke-miterlimit="10" stroke-linejoin="miter" fill="none" stroke="rgb(0,0,0)" d="M -67.96123 -135.92175 L -81.72498 -163.44771 "/>
<text fill-opacity="0" transform="matrix(1,0,-0,1,-2.0000076,190)" font-size="9.96264" font-family="UBZMTO+CMMI10" x="65.148" y="-47.777">
q
</text>
<symbol id="font_1_3"><path d="M .41200003 .625 C .41200003 .62900007 .40900004 .635 .40200004 .635 C .39100003 .635 .35100004 .595 .33400002 .566 C .31200004 .62 .27300003 .63600004 .24100001 .63600004 C .122999996 .63600004 0 .488 0 .343 C 0 .245 .059000004 .183 .132 .183 C .175 .183 .214 .207 .25000003 .243 C .24100001 .208 .208 .073 .205 .063999996 C .19700001 .036 .18900001 .032000005 .133 .031000003 C .120000005 .031000003 .11 .031000003 .11 .0109999925 C .11 .00999999 .11 0 .122999996 0 C .155 0 .19 .0029999912 .223 .0029999912 C .25700003 .0029999912 .293 0 .32600003 0 C .33100003 0 .344 0 .344 .019999996 C .344 .031000003 .33400002 .031000003 .31800002 .031000003 C .27 .031000003 .27 .038000003 .27 .047000006 C .27 .054000005 .272 .060000002 .27400002 .069000006 L .41200003 .625 M .135 .20500001 C .075 .20500001 .07100001 .282 .07100001 .29900002 C .07100001 .347 .099999994 .45600003 .117 .49800003 C .148 .572 .2 .614 .24100001 .614 C .30600002 .614 .32000002 .533 .32000002 .526 C .32000002 .52 .26500002 .301 .26200002 .29700002 C .247 .269 .191 .20500001 .135 .20500001 Z "/>
</symbol><use xlink:href="#font_1_3" transform="matrix(9.96264,0,0,-9.96264,63.5465,144.15575)"/>
<text fill-opacity="0" transform="matrix(1,0,-0,1,-2.0000076,190)" font-size="6.9738503" font-family="SYGXDD+CMR7" x="69.595" y="-46.283">
3
</text>
<symbol id="font_2_4"><path d="M .219 .35400003 C .29700002 .35400003 .35300002 .3 .35300002 .193 C .35300002 .069000006 .28100002 .032 .223 .032 C .18300001 .032 .095 .043000005 .053000007 .102000006 C .10000001 .10400001 .111 .13700001 .111 .158 C .111 .19 .087 .213 .056000005 .213 C .028 .213 0 .19600001 0 .155 C 0 .061000004 .104 0 .22500001 0 C .36400002 0 .46 .09300001 .46 .193 C .46 .27100003 .39600003 .34900004 .286 .37200004 C .39100003 .41000003 .42900002 .48500004 .42900002 .546 C .42900002 .625 .33800003 .684 .22700001 .684 C .116 .684 .031 .63 .031 .55 C .031 .51600003 .053000007 .49700004 .083000004 .49700004 C .11400001 .49700004 .134 .52 .134 .548 C .134 .577 .11400001 .598 .083000004 .6 C .118 .644 .187 .65500003 .22400002 .65500003 C .26900002 .65500003 .33200002 .633 .33200002 .546 C .33200002 .504 .31800002 .45800003 .29200003 .42700002 C .25900003 .38900003 .23100002 .38700002 .18100001 .38400003 C .156 .38200003 .154 .38200003 .149 .38100004 C .147 .38100004 .139 .37900004 .139 .36800003 C .139 .35400003 .148 .35400003 .165 .35400003 L .219 .35400003 Z "/>
</symbol><use xlink:href="#font_2_4" transform="matrix(6.9738503,0,0,-6.9738503,67.97158,143.85648)"/>
<path transform="matrix(1,0,0,-1,88.866,13.4869995)" stroke-width=".3985" stroke-linecap="butt" stroke-miterlimit="10" stroke-linejoin="miter" fill="none" stroke="rgb(0,0,0)" d="M -39.2041 -91.67361 L -24.57541 -120.92749 "/>
<text fill-opacity="0" transform="matrix(1,0,-0,1,-2,190)" font-size="9.96264" font-family="UBZMTO+CMMI10" x="86.408" y="-90.297">
q
</text>
<use xlink:href="#font_1_3" transform="matrix(9.96264,0,0,-9.96264,84.8065,101.63576)"/>
<text fill-opacity="0" transform="matrix(1,0,-0,1,-2,190)" font-size="6.9738503" font-family="SYGXDD+CMR7" x="90.855" y="-88.803">
2
</text>
<use xlink:href="#font_2_3" transform="matrix(6.9738503,0,0,-6.9738503,89.29436,101.197)"/>
<path transform="matrix(1,0,0,-1,88.866,13.4869995)" stroke-width=".3985" stroke-linecap="butt" stroke-miterlimit="10" stroke-linejoin="miter" fill="none" stroke="rgb(0,0,0)" d="M -17.94402 -49.15338 L -3.31532 -78.40727 "/>
<text fill-opacity="0" transform="matrix(1,0,-0,1,-2,190)" font-size="9.96264" font-family="UBZMTO+CMMI10" x="107.667" y="-132.817">
q
</text>
<use xlink:href="#font_1_3" transform="matrix(9.96264,0,0,-9.96264,106.065506,59.11575)"/>
<text fill-opacity="0" transform="matrix(1,0,-0,1,-2,190)" font-size="6.9738503" font-family="SYGXDD+CMR7" x="112.115" y="-131.322">
1
</text>
<use xlink:href="#font_2_2" transform="matrix(6.9738503,0,0,-6.9738503,110.875145,58.677994)"/>
<path transform="matrix(1,0,0,-1,88.866,13.4869995)" stroke-width=".3985" stroke-linecap="butt" stroke-miterlimit="10" stroke-linejoin="miter" fill="none" stroke="rgb(0,0,0)" d="M 3.31606 -6.63316 L 17.94476 -35.88704 "/>
<text fill-opacity="0" transform="matrix(1,0,-0,1,-2,190)" font-size="9.96264" font-family="UBZMTO+CMMI10" x="130.993" y="-175.336">
q
</text>
<use xlink:href="#font_1_3" transform="matrix(9.96264,0,0,-9.96264,129.3915,16.596754)"/>
<text fill-opacity="0" transform="matrix(1,0,-0,1,-2,190)" font-size="6.9738503" font-family="SYGXDD+CMR7" x="135.44" y="-173.842">
0
</text>
<use xlink:href="#font_2_1" transform="matrix(6.9738503,0,0,-6.9738503,133.80264,16.297482)"/>
<text fill-opacity="0" transform="matrix(1,0,-0,1,-2,190)" font-size="9.96264" font-family="CPKAZH+CMSY10" x="109.284" y="-173.053">
&#x22a5;
</text>
<symbol id="font_3_1"><path d="M .354 .632 C .354 .65000004 .354 .66800004 .33400002 .66800004 C .314 .66800004 .314 .647 .314 .632 L .314 .040000003 L .036000002 .040000003 C .021000002 .040000003 0 .040000003 0 .020000001 C 0 0 .021000002 0 .036000002 0 L .633 0 C .65000004 0 .66800004 0 .66800004 .020000001 C .66800004 .040000003 .65000004 .040000003 .633 .040000003 L .354 .040000003 L .354 .632 Z "/>
</symbol><use xlink:href="#font_3_1" transform="matrix(9.96264,0,0,-9.96264,107.83194,16.947006)"/>
<text fill-opacity="0" transform="matrix(1,0,-0,1,-2,190)" font-size="9.96264" font-family="CPKAZH+CMSY10" x="86.992" y="-130.534">
&#x22a5;
</text>
<use xlink:href="#font_3_1" transform="matrix(9.96264,0,0,-9.96264,85.53994,59.466003)"/>
<text fill-opacity="0" transform="matrix(1,0,-0,1,-2.0000076,190)" font-size="9.96264" font-family="CPKAZH+CMSY10" x="65.732" y="-88.014">
&#x22a5;
</text>
<use xlink:href="#font_3_1" transform="matrix(9.96264,0,0,-9.96264,64.27994,101.986)"/>
<text fill-opacity="0" transform="matrix(1,0,-0,1,-2,190)" font-size="9.96264" font-family="CPKAZH+CMSY10" x="106.933" y="-68.025">
A
</text>
<symbol id="font_3_2"><path d="M .568 .215 C .573 .15200001 .58500004 .106000006 .59000003 .087 C .601 .042 .606 .02 .64900005 .02 C .694 .02 .771 .065 .771 .085 C .771 .09 .767 .09200001 .762 .09200001 C .749 .09200001 .72800004 .081 .725 .079 C .71800005 .075 .716 .075 .71400005 .075 C .68600005 .075 .68 .102 .66800004 .162 C .661 .19500001 .652 .235 .644 .37200004 C .637 .47400004 .633 .57600003 .633 .67800003 C .633 .702 .634 .72800004 .634 .75200003 C .634 .76800007 .634 .7720001 .623 .7720001 C .609 .7720001 .568 .75500005 .55 .72800004 L .54300004 .71700007 C .46400002 .54800004 .39000002 .42700002 .338 .34600002 C .279 .25500003 .17500001 .09200001 .121 .09200001 C .08400001 .09200001 .053000003 .116 .044 .15200001 C .042999998 .154 .041 .16000001 .037 .16000001 C .022000002 .16000001 0 .112 0 .08400001 C 0 .044 .042999998 0 .09 0 C .15900001 0 .27400002 .18 .296 .215 L .568 .215 M .54800004 .64900005 L .54800004 .591 C .54800004 .533 .55 .47500002 .55300003 .41700003 C .554 .397 .558 .32200003 .563 .27 L .38 .27 C .36400002 .27 .349 .27 .323 .254 C .393 .36200002 .451 .46600002 .45700002 .47700003 C .507 .56600004 .53400004 .624 .547 .64900005 L .54800004 .64900005 Z "/>
</symbol><use xlink:href="#font_3_2" transform="matrix(9.96264,0,0,-9.96264,105.20199,122.47313)"/>
</g>
</svg>
