<?xml version="1.0" standalone="no"?>
<!DOCTYPE svg PUBLIC "-//W3C//DTD SVG 1.1//EN" "http://www.w3.org/Graphics/SVG/1.1/DTD/svg11.dtd">
<svg xmlns="http://www.w3.org/2000/svg" xmlns:xlink="http://www.w3.org/1999/xlink" version="1.1" width="4.8330555cm" height="2.9633334cm" viewBox="0 0 137 84">
<clipPath id="cp0">
<path transform="matrix(1,0,0,-1,0,84)" d="M 0 0 L 136.08 0 L 136.08 90.627 L 0 90.627 Z "/>
</clipPath>
<g clip-path="url(#cp0)">
<text fill-opacity="0" transform="matrix(1,0,-0,1,.0000076293945,84)" font-size="9.96264" font-family="IAQWVT+CMMI10" x="37.301" y="-76.514">
V
</text>
<symbol id="font_1_3"><path d="M .572 .591 C .62100005 .669 .66300005 .67200005 .70000005 .674 C .712 .6750001 .71300006 .69200003 .71300006 .693 C .71300006 .70100003 .70800006 .70500004 .70000005 .70500004 C .674 .70500004 .64500004 .702 .61800003 .702 C .58500004 .702 .55100006 .70500004 .51900005 .70500004 C .513 .70500004 .50000006 .70500004 .50000006 .68600005 C .50000006 .6750001 .509 .674 .51600003 .674 C .54300004 .67200005 .56200004 .66200006 .56200004 .64100003 C .56200004 .62600005 .54700005 .60400003 .54700005 .60300004 L .24000001 .115 L .17200002 .64400005 C .17200002 .6610001 .19500002 .674 .24100003 .674 C .25500003 .674 .26600003 .674 .26600003 .69400007 C .26600003 .70300007 .25800002 .70500004 .25200003 .70500004 C .21200001 .70500004 .169 .702 .12800002 .702 C .11000001 .702 .091 .70300007 .07300001 .70300007 C .055000007 .70300007 .036000006 .70500004 .019000001 .70500004 C .012000002 .70500004 0 .70500004 0 .68600005 C 0 .674 .009000003 .674 .024999999 .674 C .08100001 .674 .08200001 .665 .085 .64000005 L .164 .023000002 C .167 .0030000005 .171 0 .18400002 0 C .20000002 0 .20400003 .005000001 .21200001 .018000001 L .572 .591 Z "/>
</symbol><use xlink:href="#font_1_3" transform="matrix(9.96264,0,0,-9.96264,37.858913,7.7051783)"/>
<text fill-opacity="0" transform="matrix(1,0,-0,1,.0000076293945,84)" font-size="9.96264" font-family="WCFTGI+CMR10" x="45.326" y="-76.514">
[
</text>
<symbol id="font_2_2"><path d="M .13700002 0 L .13700002 .03999999 L .04 .03999999 L .04 .96000004 L .13700002 .96000004 L .13700002 1 L 0 1 L 0 0 L .13700002 0 Z "/>
</symbol><use xlink:href="#font_2_2" transform="matrix(9.96264,0,0,-9.96264,46.5016,9.97666)"/>
<text fill-opacity="0" transform="matrix(1,0,-0,1,.0000076293945,84)" font-size="9.96264" font-family="IAQWVT+CMMI10" x="48.093" y="-76.514">
G
</text>
<symbol id="font_1_1"><path d="M .71000004 .71700007 C .71000004 .72 .708 .72700006 .699 .72700006 C .69600004 .72700006 .69500005 .7260001 .684 .71500003 L .614 .6380001 C .605 .65200007 .559 .72700006 .448 .72700006 C .22500001 .72700006 0 .50600004 0 .27400002 C 0 .115 .11100002 0 .273 0 C .317 0 .36200002 .0090000015 .398 .024000002 C .448 .044000003 .467 .065000005 .485 .085 C .49400002 .060000002 .52000004 .023000002 .53000003 .023000002 C .535 .023000002 .537 .026000002 .537 .027000003 C .53900003 .029000003 .549 .067 .554 .088 L .573 .165 C .577 .18200001 .582 .199 .586 .216 C .597 .261 .598 .263 .65500003 .26400003 C .66 .26400003 .671 .26500002 .671 .28400004 C .671 .29100004 .666 .29500002 .658 .29500002 C .63500005 .29500002 .57600003 .29200003 .55300003 .29200003 C .522 .29200003 .444 .29500002 .41300002 .29500002 C .404 .29500002 .39200002 .29500002 .39200002 .27500004 C .39200002 .26400003 .4 .26400003 .42200002 .26400003 C .423 .26400003 .45200002 .26400003 .47500002 .26200002 C .501 .25900003 .50600004 .256 .50600004 .24300002 C .50600004 .23400001 .495 .18900001 .485 .15200001 C .45700002 .042000003 .327 .031000003 .292 .031000003 C .19600001 .031000003 .091000006 .088 .091000006 .24100001 C .091000006 .272 .10100001 .43700004 .20600002 .56700003 C .26 .63500005 .357 .69600004 .45600003 .69600004 C .558 .69600004 .61700004 .619 .61700004 .503 C .61700004 .46300003 .614 .46200004 .614 .45200002 C .614 .44200003 .625 .44200003 .629 .44200003 C .642 .44200003 .642 .44400004 .647 .46200004 L .71000004 .71700007 Z "/>
</symbol><use xlink:href="#font_1_1" transform="matrix(9.96264,0,0,-9.96264,48.591137,7.7051783)"/>
<text fill-opacity="0" transform="matrix(1,0,-0,1,.0000076293945,84)" font-size="9.96264" font-family="WCFTGI+CMR10" x="55.927 61.456264" y="-76.514 -76.514">
]=
</text>
<symbol id="font_2_3"><path d="M .13700001 1 L 0 1 L 0 .96000004 L .097 .96000004 L .097 .03999999 L 0 .03999999 L 0 0 L .13700001 0 L .13700001 1 Z "/>
</symbol><symbol id="font_2_1"><path d="M .63100004 .19400002 C .646 .19400002 .665 .19400002 .665 .214 C .665 .23400001 .646 .23400001 .632 .23400001 L .033 .23400001 C .019000001 .23400001 0 .23400001 0 .214 C 0 .19400002 .019000001 .19400002 .034 .19400002 L .63100004 .19400002 M .632 0 C .646 0 .665 0 .665 .02000001 C .665 .040000007 .646 .040000007 .63100004 .040000007 L .034 .040000007 C .019000001 .040000007 0 .040000007 0 .02000001 C 0 0 .019000001 0 .033 0 L .632 0 Z "/>
</symbol><use xlink:href="#font_2_3" transform="matrix(9.96264,0,0,-9.96264,56.146183,9.97666)"/>
<use xlink:href="#font_2_1" transform="matrix(9.96264,0,0,-9.96264,62.01418,6.160969)"/>
<text fill-opacity="0" transform="matrix(1,0,-0,1,.0000076293945,84)" font-size="9.96264" font-family="IAQWVT+CMMI10" x="71.977" y="-76.514">
W
</text>
<symbol id="font_1_4"><path d="M .86200005 .58900005 C .887 .633 .911 .669 .97400004 .674 C .9830001 .6750001 .9930001 .6750001 .9930001 .69400007 C .9930001 .6980001 .989 .70500004 .981 .70500004 C .9570001 .70500004 .929 .702 .90400004 .702 C .87000006 .702 .83300006 .70500004 .8 .70500004 C .794 .70500004 .781 .70500004 .781 .68600005 C .781 .6750001 .79 .674 .796 .674 C .82000005 .67300004 .855 .665 .855 .63500005 C .855 .6240001 .85 .61600006 .842 .60200006 L .572 .13100001 L .535 .62700003 C .53400004 .647 .532 .67300004 .605 .674 C .62200004 .674 .632 .674 .632 .69400007 C .632 .70400006 .62100005 .70500004 .61700004 .70500004 C .577 .70500004 .535 .702 .495 .702 C .472 .702 .41300002 .70500004 .39000002 .70500004 C .384 .70500004 .37100002 .70500004 .37100002 .68500006 C .37100002 .674 .381 .674 .395 .674 C .439 .674 .44600004 .66800004 .448 .64900005 L .454 .572 L .201 .13100001 L .163 .6380001 C .163 .65000004 .163 .67300004 .239 .674 C .24900001 .674 .26000002 .674 .26000002 .69400007 C .26000002 .70500004 .248 .70500004 .24600002 .70500004 C .206 .70500004 .164 .702 .122999996 .702 C .088 .702 .052000005 .70500004 .018000003 .70500004 C .013 .70500004 0 .70500004 0 .68600005 C 0 .674 .009 .674 .025000002 .674 C .075 .674 .076000005 .665 .077999994 .637 L .122999996 .026000002 C .124 .008000001 .125 0 .139 0 C .15100001 0 .154 .006000001 .163 .021000002 L .45700002 .531 L .49400002 .026000002 C .496 .005000001 .49800003 0 .51 0 C .523 0 .52900004 .010000002 .53400004 .019000001 L .86200005 .58900005 Z "/>
</symbol><use xlink:href="#font_1_4" transform="matrix(9.96264,0,0,-9.96264,72.52495,7.7051783)"/>
<text fill-opacity="0" transform="matrix(1,0,-0,1,.0000076293945,84)" font-size="9.96264" font-family="WCFTGI+CMR10" x="82.77" y="-76.514">
[
</text>
<use xlink:href="#font_2_2" transform="matrix(9.96264,0,0,-9.96264,83.945595,9.97666)"/>
<text fill-opacity="0" transform="matrix(1,0,-0,1,.0000076293945,84)" font-size="9.96264" font-family="IAQWVT+CMMI10" x="85.538" y="-76.514">
H
</text>
<symbol id="font_1_2"><path d="M .72400004 .606 C .73300004 .642 .7350001 .652 .8080001 .652 C .83400005 .652 .84200007 .652 .84200007 .67200005 C .84200007 .683 .8310001 .683 .82800007 .683 C .8000001 .683 .72800004 .68 .70000005 .68 C .67100006 .68 .6000001 .683 .57100004 .683 C .5630001 .683 .55200005 .683 .55200005 .66300005 C .55200005 .652 .56100005 .652 .58000004 .652 C .5820001 .652 .6010001 .652 .61800003 .65000004 C .63600004 .648 .64500004 .647 .64500004 .634 C .64500004 .63000005 .64400005 .628 .64100003 .615 L .58100003 .37100002 L .27600002 .37100002 L .335 .606 C .344 .642 .347 .652 .41900003 .652 C .44500002 .652 .453 .652 .453 .67200005 C .453 .683 .44200003 .683 .439 .683 C .411 .683 .33900002 .68 .31100002 .68 C .282 .68 .211 .683 .18200001 .683 C .17400001 .683 .163 .683 .163 .66300005 C .163 .652 .172 .652 .191 .652 C .193 .652 .21200001 .652 .229 .65000004 C .24700001 .648 .256 .647 .256 .634 C .256 .63000005 .255 .62700003 .252 .615 L .118 .078 C .107999995 .039 .106000006 .031000001 .026999999 .031000001 C .009 .031000001 0 .031000001 0 .011000001 C 0 0 .012000002 0 .014000002 0 C .042 0 .113000005 .003 .141 .003 C .162 .003 .184 .002 .20500001 .002 C .227 .002 .24900001 0 .27 0 C .278 0 .29000002 0 .29000002 .020000001 C .29000002 .031000001 .28100002 .031000001 .26200002 .031000001 C .225 .031000001 .19700001 .031000001 .19700001 .049000002 C .19700001 .055000003 .199 .060000002 .2 .066 L .268 .34 L .5730001 .34 C .5310001 .17400001 .5080001 .079 .50400007 .064 C .49400005 .032 .475 .031000001 .41300002 .031000001 C .398 .031000001 .38900003 .031000001 .38900003 .011000001 C .38900003 0 .40100002 0 .40300003 0 C .43100002 0 .50200003 .003 .53000003 .003 C .55100006 .003 .5730001 .002 .59400004 .002 C .61600006 .002 .6380001 0 .65900004 0 C .66700006 0 .6790001 0 .6790001 .020000001 C .6790001 .031000001 .6700001 .031000001 .6510001 .031000001 C .6140001 .031000001 .586 .031000001 .586 .049000002 C .586 .055000003 .58800006 .060000002 .58900005 .066 L .72400004 .606 Z "/>
</symbol><use xlink:href="#font_1_2" transform="matrix(9.96264,0,0,-9.96264,85.92655,7.486)"/>
<text fill-opacity="0" transform="matrix(1,0,-0,1,.0000076293945,84)" font-size="9.96264" font-family="WCFTGI+CMR10" x="94.629" y="-76.514">
]
</text>
<use xlink:href="#font_2_3" transform="matrix(9.96264,0,0,-9.96264,94.84818,9.97666)"/>
<text fill-opacity="0" transform="matrix(1,0,-0,1,.000005722046,84)" font-size="9.96264" font-family="IAQWVT+CMMI10" x="8.461" y="-32.228">
V
</text>
<use xlink:href="#font_1_3" transform="matrix(9.96264,0,0,-9.96264,9.018914,51.991177)"/>
<text fill-opacity="0" transform="matrix(1,0,-0,1,.0000076293945,84)" font-size="9.96264" font-family="IAQWVT+CMMI10" x="118.21" y="-32.228">
W
</text>
<use xlink:href="#font_1_4" transform="matrix(9.96264,0,0,-9.96264,118.75795,51.991177)"/>
<path transform="matrix(1,0,0,-1,68.732,25.893002)" stroke-width=".3985" stroke-linecap="butt" stroke-miterlimit="10" stroke-linejoin="miter" fill="none" stroke="rgb(0,0,0)" d="M -48.7265 -16.52522 L -12.13683 12.3967 M 9.63776 12.3967 L 45.95905 -15.60457 "/>
<path transform="matrix(1,0,0,-1,68.732,25.893002)" stroke-width=".3985" stroke-linecap="butt" stroke-miterlimit="10" stroke-linejoin="miter" fill="none" stroke="rgb(0,0,0)" d="M -56.2591 -36.64876 L -68.53365 -57.90884 L -43.98454 -57.90884 Z "/>
<path transform="matrix(1,0,0,-1,68.732,25.893002)" stroke-width=".3985" stroke-linecap="butt" stroke-miterlimit="10" stroke-linejoin="miter" fill="none" stroke="rgb(0,0,0)" d="M 54.87537 -36.64876 L 42.60081 -57.90884 L 67.14992 -57.90884 Z "/>
</g>
</svg>
