<?xml version="1.0" standalone="no"?>
<!DOCTYPE svg PUBLIC "-//W3C//DTD SVG 1.1//EN" "http://www.w3.org/Graphics/SVG/1.1/DTD/svg11.dtd">
<svg xmlns="http://www.w3.org/2000/svg" xmlns:xlink="http://www.w3.org/1999/xlink" version="1.1" width="2.4694445cm" height="1.9755555cm" viewBox="0 0 70 56">
<clipPath id="cp0">
<path transform="matrix(1,0,0,-1,-7,62)" d="M 0 0 L 84.122 0 L 84.122 67.636 L 0 67.636 Z "/>
</clipPath>
<g clip-path="url(#cp0)">
<text fill-opacity="0" transform="matrix(1,0,-0,1,-7,62)" font-size="9.96264" font-family="LXURMQ+CMMI10" x="6.641" y="-51.364">
M
</text>
<symbol id="font_1_2"><path d="M .88400006 .606 C .89300007 .642 .89500004 .652 .9700001 .652 C .9930001 .652 1.002 .652 1.002 .67200005 C 1.002 .683 .99200004 .683 .9750001 .683 L .84300005 .683 C .81700003 .683 .81600004 .683 .804 .66400003 L .43900004 .094000004 L .36100003 .66 C .358 .683 .35600004 .683 .33 .683 L .19300002 .683 C .174 .683 .16300002 .683 .16300002 .66400003 C .16300002 .652 .17200002 .652 .192 .652 C .20500001 .652 .22300002 .651 .23500001 .65000004 C .25100002 .648 .25700003 .64500004 .25700003 .634 C .25700003 .63000005 .256 .62700003 .25300002 .615 L .12600002 .106000006 C .116000004 .066 .099 .034 .018 .031000001 C .013 .031000001 0 .030000001 0 .012 C 0 .003 .0059999973 0 .013999999 0 C .046000004 0 .081 .003 .114 .003 C .148 .003 .18400002 0 .21700001 0 C .222 0 .23500001 0 .23500001 .020000001 C .23500001 .031000001 .224 .031000001 .21700001 .031000001 C .16 .032 .14900002 .052 .14900002 .075 C .14900002 .082 .15 .087000005 .153 .098000005 L .28900003 .643 L .29000002 .643 L .37600002 .023000002 C .37800002 .011000001 .37900004 0 .39100003 0 C .40200004 0 .40800002 .011000001 .41300002 .018000001 L .81700003 .651 L .818 .651 L .675 .078 C .665 .039 .66300005 .031000001 .58400005 .031000001 C .56700003 .031000001 .55600005 .031000001 .55600005 .012 C .55600005 0 .568 0 .57100004 0 C .59900004 0 .66700006 .003 .69500005 .003 C .73600006 .003 .77900004 0 .82000005 0 C .82600003 0 .83900005 0 .83900005 .020000001 C .83900005 .031000001 .83000004 .031000001 .81100005 .031000001 C .77400005 .031000001 .74600005 .031000001 .74600005 .049000002 C .74600005 .053000003 .74600005 .055000003 .75100005 .07300001 L .88400006 .606 Z "/>
</symbol><use xlink:href="#font_1_2" transform="matrix(9.96264,0,0,-9.96264,.05943069,10.636002)"/>
<text fill-opacity="0" transform="matrix(1,0,-0,1,-7,62)" font-size="6.9738503" font-family="VFZHAJ+CMSY7" x="17.392" y="-56.152">
&#x2193;
</text>
<symbol id="font_2_3"><path d="M .284 .84800005 C .284 .864 .284 .888 .26000002 .888 C .23500001 .888 .23500001 .865 .23500001 .84800005 L .23500001 .146 C .148 .268 .020000003 .28800002 .015000001 .28800002 C 0 .28800002 0 .27400002 0 .264 C 0 .25300002 0 .243 .013000004 .24000001 C .045 .231 .10600001 .215 .162 .16100001 C .22000003 .104 .23600003 .046000004 .24400002 .020999998 C .24700001 .008000001 .24900001 0 .26000002 0 C .27 0 .27100003 .0059999973 .277 .025999993 C .30300003 .115 .37100002 .20400001 .49600005 .237 C .51600003 .24200001 .51900005 .243 .51900005 .264 C .51900005 .27400002 .51900005 .28800002 .504 .28800002 C .499 .28800002 .37100002 .268 .284 .146 L .284 .84800005 Z "/>
</symbol><use xlink:href="#font_2_3" transform="matrix(6.9738503,0,0,-6.9738503,10.622137,7.200927)"/>
<text fill-opacity="0" transform="matrix(1,0,-0,1,-7,62)" font-size="6.9738503" font-family="HKDETF+MSBM7" x="21.474" y="-56.152">
B
</text>
<symbol id="font_3_1"><path d="M .40300003 .384 C .43600002 .416 .444 .467 .444 .51000005 C .444 .57900006 .42200002 .62200004 .39900002 .646 C .46800002 .638 .53900003 .61300004 .53900003 .514 C .53900003 .45000002 .469 .39800003 .40300003 .384 M .25300002 .596 C .25300002 .61600006 .25300002 .62700003 .26700002 .638 C .271 .64000005 .286 .65000004 .31 .65000004 C .354 .65000004 .409 .615 .409 .51000005 C .409 .39800003 .35200003 .374 .25300002 .372 L .25300002 .596 M .46300003 .367 C .519 .39600003 .574 .446 .574 .514 C .574 .65300006 .45900002 .68500006 .337 .68500006 L .034 .68500006 C .015999999 .68500006 0 .68500006 0 .66700006 C 0 .65000004 .017 .65000004 .033000004 .65000004 C .093 .65000004 .096 .64000005 .096 .592 L .096 .093 C .096 .043 .092 .035 .029000003 .035 C .018 .035 0 .035 0 .018000001 C 0 0 .015999999 0 .034 0 L .331 0 C .45400003 0 .61200005 .048 .61200005 .187 C .61200005 .291 .536 .347 .46300003 .367 M .43100002 .047000002 C .46800002 .089 .47500002 .142 .47500002 .187 C .47500002 .256 .46 .30800003 .42000002 .34100002 C .512 .326 .577 .27400002 .577 .187 C .577 .11100001 .517 .067 .43100002 .047000002 M .25300002 .089 L .25300002 .337 C .333 .337 .367 .337 .398 .314 C .437 .284 .44000003 .21900001 .44000003 .187 C .44000003 .148 .437 .035 .312 .035 C .25300002 .035 .25300002 .07 .25300002 .089 M .231 .035 L .12200001 .035 C .131 .053000003 .131 .078 .131 .091000006 L .131 .59400004 C .131 .60700005 .131 .632 .12200001 .65000004 L .231 .65000004 C .21800001 .634 .21800001 .614 .21800001 .59900004 L .21800001 .086 C .21800001 .071 .21800001 .051000003 .231 .035 Z "/>
</symbol><use xlink:href="#font_3_1" transform="matrix(6.9738503,0,0,-6.9738503,14.536766,5.8479996)"/>
<text fill-opacity="0" transform="matrix(1,0,-0,1,-7,62)" font-size="6.9738503" font-family="VFZHAJ+CMSY7" x="16.306" y="-48.436">
U
</text>
<symbol id="font_2_4"><path d="M .56000006 .33600003 C .51800007 .179 .50000006 .113000005 .50000006 .045 C .50000006 .011 .526 0 .54700005 0 C .59000003 0 .67100006 .045 .67100006 .069000006 C .67100006 .072000004 .669 .077 .66 .077 C .65000004 .077 .632 .071 .61600006 .061000004 C .59300005 .064 .59300005 .085 .59300005 .09 C .59300005 .221 .711 .56700003 .73700005 .62700003 C .753 .66600007 .76100004 .697 .76100004 .70100003 C .76100004 .71000004 .75200003 .71000004 .7490001 .71000004 C .72700006 .71000004 .68500006 .68600005 .67200005 .665 C .67100006 .66200006 .66200006 .64100003 .642 .58400005 C .58500004 .42600003 .30800003 .068 .18 .068 C .12900001 .068 .093 .109000005 .093 .185 C .093 .24800001 .117000006 .31300002 .18300001 .46200004 C .21800001 .541 .25100002 .619 .25100002 .66200006 C .25100002 .707 .22000001 .71000004 .201 .71000004 C .118 .71000004 .012 .64900005 .012 .623 C .012 .615 .022000002 .615 .024 .615 C .039000005 .615 .058000006 .62500006 .071 .633 C .093 .646 .114 .64900005 .13000001 .64900005 C .15100001 .64900005 .158 .638 .158 .61700004 C .158 .577 .12900001 .509 .086 .411 C .027 .27800003 0 .204 0 .14 C 0 .071 .030000001 .0069999993 .109000005 .0069999993 C .202 .0069999993 .316 .086 .39300004 .155 C .43100002 .19 .48200002 .23900001 .559 .33600003 L .56000006 .33600003 Z "/>
</symbol><use xlink:href="#font_2_4" transform="matrix(6.9738503,0,0,-6.9738503,9.312974,13.752294)"/>
<text fill-opacity="0" transform="matrix(1,0,-0,1,-7,62)" font-size="9.96264" font-family="XWULZC+CMR10" x="65.324" y="-53.882">
&#x02c7;
</text>
<symbol id="font_4_1"><path d="M .132 .052999973 L .013999991 .12199998 L 0 .102 L .13100001 0 L .263 .102 L .24900001 .12199998 L .132 .052999973 Z "/>
</symbol><use xlink:href="#font_4_1" transform="matrix(9.96264,0,0,-9.96264,59.499588,2.9772778)"/>
<text fill-opacity="0" transform="matrix(1,0,-0,1,-7,62)" font-size="9.96264" font-family="LXURMQ+CMMI10" x="61.609" y="-51.364">
M
</text>
<use xlink:href="#font_1_2" transform="matrix(9.96264,0,0,-9.96264,55.02743,10.636002)"/>
<text fill-opacity="0" transform="matrix(1,0,-0,1,-7,62)" font-size="6.9738503" font-family="VFZHAJ+CMSY7" x="71.274" y="-49.87">
U
</text>
<use xlink:href="#font_2_4" transform="matrix(6.9738503,0,0,-6.9738503,64.280975,12.3182955)"/>
<text fill-opacity="0" transform="matrix(1,0,-0,1,-6.999999,62)" font-size="9.96264" font-family="LXURMQ+CMMI10" x="11.256" y="-6.641">
M
</text>
<use xlink:href="#font_1_2" transform="matrix(9.96264,0,0,-9.96264,4.6744313,55.359)"/>
<path transform="matrix(1,0,0,-1,35.061,28.182)" stroke-width=".3985" stroke-linecap="butt" stroke-miterlimit="10" stroke-linejoin="miter" fill="none" stroke="rgb(0,0,0)" d="M -11.91982 20.9721 L 15.57019 21.12373 "/>
<path transform="matrix(1,-.00551,-.00551,-1,50.63119,7.058279)" stroke-width=".31879" stroke-linecap="round" stroke-linejoin="round" fill="none" stroke="rgb(0,0,0)" d="M -1.19551 1.59401 C -1.09587 .99626 0 .09961 .29886 0 C 0 -.09961 -1.09587 -.99626 -1.19551 -1.59401 "/>
<text fill-opacity="0" transform="matrix(1,0,-0,1,-7,62)" font-size="6.9738503" font-family="VFZHAJ+CMSY7" x="41.002" y="-58.387">
&#x223c;
</text>
<symbol id="font_2_1"><path d="M .73800004 .22800002 C .73800004 .26600003 .72400004 .26700002 .721 .26700002 C .70600003 .26700002 .704 .23900002 .704 .22600001 C .7 .15300003 .646 .069 .55300003 .069 C .482 .069 .431 .116000004 .376 .16600001 C .323 .21400002 .263 .268 .18500002 .268 C .070999995 .268 0 .15100002 0 .04 C 0 .002000004 .013999999 .001000002 .016999997 .001000002 C .031999998 .001000002 .033 .027000003 .034 .042000003 C .037999995 .115 .091000006 .19900003 .18500002 .19900003 C .25599998 .19900003 .30699998 .15200001 .362 .102000006 C .41500002 .053999998 .47500002 0 .55300003 0 C .667 0 .73800004 .117000006 .73800004 .22800002 Z "/>
</symbol><use xlink:href="#font_2_1" transform="matrix(6.9738503,0,0,-6.9738503,34.538986,2.8040323)"/>
<text fill-opacity="0" transform="matrix(1,0,-0,1,-7,62)" font-size="6.9738503" font-family="SSUIRG+CMMI7" x="41.661" y="-48.344">
&#x03c0;
</text>
<symbol id="font_5_1"><path d="M .26600003 .373 L .385 .373 C .37 .313 .348 .22200002 .348 .143 C .348 .103 .35300004 .076 .35900003 .054000005 C .375 .0040000007 .388 0 .40400004 0 C .42700005 0 .45100003 .021000002 .45100003 .045 C .45100003 .053000003 .449 .057000004 .44300002 .067 C .42400002 .104 .40600002 .16100001 .40600002 .24300002 C .40600002 .262 .40600002 .30200002 .42000002 .373 L .545 .373 C .563 .373 .57100004 .373 .582 .381 C .596 .391 .59900004 .407 .59900004 .412 C .59900004 .441 .573 .441 .556 .441 L .179 .441 C .13800001 .441 .11 .432 .065000005 .39000002 C .039000005 .367 0 .313 0 .304 C 0 .292 .013 .292 .017 .292 C .028000005 .292 .029 .294 .035000004 .303 C .08600001 .373 .148 .373 .17 .373 L .23100002 .373 C .2 .263 .14600001 .14500001 .11600001 .085 C .11 .072000004 .10000001 .051000003 .097 .047000002 C .096 .043 .09400001 .039 .09400001 .032 C .09400001 .016 .106000006 0 .12900001 0 C .16900001 0 .18 .045 .20400001 .135 L .26600003 .373 Z "/>
</symbol><use xlink:href="#font_5_1" transform="matrix(6.9738503,0,0,-6.9738503,34.974823,13.725737)"/>
<path transform="matrix(1,0,0,-1,35.061,28.182)" stroke-width=".3985" stroke-linecap="butt" stroke-miterlimit="10" stroke-linejoin="miter" fill="none" stroke="rgb(0,0,0)" d="M -25.43005 -16.84946 L -25.43005 10.64055 "/>
<path transform="matrix(0,-1,-1,-0,9.630951,17.54145)" stroke-width=".31879" stroke-linecap="round" stroke-linejoin="round" fill="none" stroke="rgb(0,0,0)" d="M -1.19551 1.59401 C -1.09587 .99626 0 .09961 .29886 0 C 0 -.09961 -1.09587 -.99626 -1.19551 -1.59401 "/>
<text fill-opacity="0" transform="matrix(0,-1,1,0,33.413002,46.754997)" font-size="6.9738503" font-family="VFZHAJ+CMSY7" x="12.584" y="-27.829">
&#x227a;
</text>
<symbol id="font_2_2"><path d="M .324 .32500002 C .456 .35000002 .57400006 .40300003 .63600004 .50200003 C .6700001 .558 .67600006 .61800003 .67600006 .627 C .67600006 .643 .66300005 .65200007 .65200007 .65200007 C .63400006 .65200007 .6280001 .63600004 .6280001 .6320001 C .61700004 .56700003 .6 .45900002 .39800003 .39400002 C .278 .356 .125 .351 .029000007 .35000002 C .014000006 .35000002 0 .34300002 0 .326 C 0 .301 .02300001 .301 .037000008 .301 C .34800002 .29900002 .595 .24000001 .62600005 .032 C .6280001 .018000003 .63100004 0 .6510001 0 C .6650001 0 .67600006 .011 .67600006 .025000002 C .67600006 .034 .67600006 .26200002 .324 .32500002 Z "/>
</symbol><use xlink:href="#font_2_2" transform="matrix(0,-6.9738503,-6.9738503,-0,6.114014,33.41782)"/>
<text fill-opacity="0" transform="matrix(1,0,-0,1,-6.999998,62)" font-size="6.9738503" font-family="SSUIRG+CMMI7" x="20.151" y="-29.313">
j
</text>
<symbol id="font_5_3"><path d="M .439 .829 C .439 .846 .42600003 .86700004 .39900002 .86700004 C .37 .86700004 .34300002 .83900005 .34300002 .81200004 C .34300002 .796 .35500002 .77400005 .38300002 .77400005 C .41000003 .77400005 .439 .8 .439 .829 M .22700001 .155 C .21000001 .086 .157 .027999997 .098000005 .027999997 C .085 .027999997 .07300001 .030000001 .062000003 .03400001 C .08800001 .046000004 .096 .07000001 .096 .08500001 C .096 .109000005 .07700001 .12200001 .057000004 .12200001 C .026 .12200001 0 .095000006 0 .06300001 C 0 .025000006 .039 0 .09900001 0 C .15900001 0 .27600002 .036 .307 .158 L .397 .51600003 C .4 .527 .402 .536 .402 .551 C .402 .606 .35500002 .64500004 .29500002 .64500004 C .18400002 .64500004 .120000005 .50600004 .120000005 .49200004 C .120000005 .47900003 .134 .47900003 .13700001 .47900003 C .149 .47900003 .15 .48200005 .157 .49700004 C .18200001 .555 .23400001 .61700004 .29200003 .61700004 C .317 .61700004 .326 .6 .326 .568 C .326 .55700004 .324 .54300004 .323 .53800005 L .22700001 .155 Z "/>
</symbol><use xlink:href="#font_5_3" transform="matrix(6.9738503,0,0,-6.9738503,13.151001,34.109665)"/>
<path transform="matrix(1,0,0,-1,35.061,28.182)" stroke-width=".3985" stroke-linecap="butt" stroke-miterlimit="10" stroke-linejoin="miter" fill="none" stroke="rgb(0,0,0)" d="M -17.28345 -16.84946 L 16.94675 12.23419 "/>
<path transform="matrix(.7657,-.65056,-.65056,-.7657,52.00773,15.947819)" stroke-width=".31879" stroke-linecap="round" stroke-linejoin="round" fill="none" stroke="rgb(0,0,0)" d="M -1.19551 1.59401 C -1.09587 .99626 0 .09961 .29886 0 C 0 -.09961 -1.09587 -.99626 -1.19551 -1.59401 "/>
<text fill-opacity="0" transform="matrix(.7657,-.65056,.65056,.7657,22.975834,78.434555)" font-size="6.9738503" font-family="VFZHAJ+CMSY7" x="37.051" y="-32.733">
&#x227a;
</text>
<use xlink:href="#font_2_2" transform="matrix(5.339877,-4.536908,-4.536908,-5.339877,30.972513,29.182842)"/>
<text fill-opacity="0" transform="matrix(1,0,-0,1,-7,62)" font-size="6.9738503" font-family="SSUIRG+CMMI7" x="45.588" y="-30.03">
j
</text>
<use xlink:href="#font_5_3" transform="matrix(6.9738503,0,0,-6.9738503,38.588,33.392666)"/>
<text fill-opacity="0" transform="matrix(1,0,-0,1,-7,62)" font-size="4.98132" font-family="VERQUQ+CMSY5" x="48.885" y="-29.028">
U
</text>
<symbol id="font_6_1"><path d="M .63900006 .351 C .6240001 .30200002 .61100006 .25300002 .59800005 .20300001 C .57800007 .124000005 .576 .075 .576 .055 C .576 .011 .60800004 0 .6320001 0 C .684 0 .76400006 .047000002 .76400006 .073 C .76400006 .082 .75600004 .08500001 .747 .08500001 C .73600006 .08500001 .7210001 .079 .71000004 .074 C .70300007 .07000001 .702 .07000001 .699 .07000001 C .697 .07000001 .67700005 .072000004 .67700005 .101 C .67700005 .23900001 .80500007 .5910001 .814 .612 C .82800007 .64100003 .847 .68200004 .847 .701 C .847 .71000004 .84000003 .71300006 .83000004 .71300006 C .80700004 .71300006 .76600003 .691 .7520001 .669 C .747 .663 .73100007 .62100005 .722 .5960001 C .653 .414 .342 .07700001 .20700002 .07700001 C .134 .07700001 .10900001 .14400001 .10900001 .208 C .10900001 .277 .13800001 .349 .18800001 .46400002 C .224 .5450001 .257 .62 .257 .66400003 C .257 .70800006 .229 .71300006 .20500001 .71300006 C .11500001 .71300006 0 .65400004 0 .622 C 0 .61100006 .011 .61 .016000003 .61 C .031000003 .61 .049000002 .61800003 .057000004 .623 C .091000006 .64100003 .119 .64400005 .133 .64400005 C .148 .64400005 .156 .63900006 .156 .61800003 C .156 .584 .133 .527 .095 .44000003 C .036 .30600002 .008000001 .23400001 .008000001 .16100001 C .008000001 .07000001 .052 .007999999 .134 .007999999 C .254 .007999999 .441 .12100001 .63900006 .351 Z "/>
</symbol><use xlink:href="#font_6_1" transform="matrix(4.98132,0,0,-4.98132,42.03444,33.12144)"/>
</g>
</svg>
