<?xml version="1.0" standalone="no"?>
<!DOCTYPE svg PUBLIC "-//W3C//DTD SVG 1.1//EN" "http://www.w3.org/Graphics/SVG/1.1/DTD/svg11.dtd">
<svg xmlns="http://www.w3.org/2000/svg" xmlns:xlink="http://www.w3.org/1999/xlink" version="1.1" width="2.7516668cm" height="2.1519444cm" viewBox="0 0 78 61">
<clipPath id="cp0">
<path transform="matrix(1,0,0,-1,-80,788)" d="M 0 0 L 612 0 L 612 792 L 0 792 Z "/>
</clipPath>
<g clip-path="url(#cp0)">
<text fill-opacity="0" transform="matrix(1,0,-0,1,-80,788)" font-size="11.95517" font-family="WQJNIM+CMMI12" x="79.969" y="-775.695">
M
</text>
<symbol id="font_1_2"><path d="M .859 .61 C .86800003 .64400005 .87 .65400004 .94100004 .65400004 C .96000004 .65400004 .969 .65400004 .969 .67300004 C .969 .683 .962 .683 .943 .683 L .823 .683 C .79800004 .683 .797 .68200004 .786 .666 L .42100003 .089 L .34600002 .661 C .34300002 .683 .34200004 .683 .316 .683 L .192 .683 C .17300001 .683 .164 .683 .164 .66400003 C .164 .65400004 .17300001 .65400004 .18800002 .65400004 C .24900001 .65400004 .24900001 .646 .24900001 .63500005 C .24900001 .633 .24900001 .62700003 .245 .61200005 L .117000006 .102000006 C .10500001 .054 .08200001 .032 .015000001 .029000001 C .012000002 .029000001 0 .028 0 .011000001 C 0 0 .009 0 .013 0 C .033 0 .084 .002 .10400001 .002 L .15200001 .002 C .16600001 .002 .183 0 .197 0 C .20400003 0 .215 0 .215 .019000001 C .215 .028 .20500001 .029000001 .201 .029000001 C .16800001 .030000001 .136 .036000002 .136 .072000004 C .136 .082 .136 .083000004 .14000002 .097 L .27800003 .648 L .279 .648 L .36200002 .027 C .36500004 .003 .36600003 0 .37500003 0 C .38600004 0 .39100003 .008 .39600003 .017 L .79800004 .65300006 L .799 .65300006 L .654 .074 C .645 .039 .643 .029000001 .573 .029000001 C .554 .029000001 .544 .029000001 .544 .011000001 C .544 0 .55300003 0 .559 0 C .576 0 .596 .002 .61300004 .002 L .731 .002 C .748 .002 .769 0 .786 0 C .794 0 .805 0 .805 .019000001 C .805 .029000001 .796 .029000001 .781 .029000001 C .72 .029000001 .72 .037 .72 .047000002 C .72 .048 .72 .055000003 .722 .063 L .859 .61 Z "/>
</symbol><use xlink:href="#font_1_2" transform="matrix(11.95517,0,0,-11.95517,.5548051,12.304993)"/>
<text fill-opacity="0" transform="matrix(1,0,-0,1,-80,788)" font-size="7.97011" font-family="UPHASK+CMSY8" x="92.543" y="-781.363">
&#x2193;
</text>
<symbol id="font_2_3"><path d="M .273 .85 C .273 .86600006 .273 .888 .25 .888 C .22700001 .888 .22700001 .86600006 .22700001 .85 L .22700001 .14500001 C .2 .184 .17 .21200001 .143 .231 C .078 .277 .017 .286 .015000001 .286 C 0 .286 0 .27 0 .264 C 0 .25100002 .0020000003 .244 .013 .24100001 C .19100001 .19500001 .22500001 .059 .237 .0119999945 C .23900001 0 .249 0 .25 0 C .25800002 0 .26200002 .0059999973 .264 .0119999945 C .291 .132 .365 .21000001 .48800004 .24100001 C .499 .244 .50000006 .254 .50000006 .264 C .50000006 .27 .50000006 .286 .485 .286 C .48300004 .286 .42000002 .277 .35300004 .229 C .324 .207 .29500002 .178 .273 .14500001 L .273 .85 Z "/>
</symbol><use xlink:href="#font_2_3" transform="matrix(7.97011,0,0,-7.97011,12.662551,8.183226)"/>
<text fill-opacity="0" transform="matrix(1,0,-0,1,-80,788)" font-size="7.97011" font-family="KZYZIZ+MSBM10" x="98.188" y="-781.363">
B
</text>
<symbol id="font_3_1"><path d="M .131 .59400004 C .131 .60700005 .131 .632 .12200001 .65000004 L .231 .65000004 C .21800001 .634 .21800001 .614 .21800001 .59900004 L .21800001 .086 C .21800001 .071 .21800001 .051000003 .231 .035 L .12200001 .035 C .131 .053000003 .131 .078 .131 .091000006 L .131 .59400004 M .40300003 .384 C .43600002 .416 .444 .467 .444 .51000005 C .444 .57900006 .42200002 .62200004 .39900002 .646 C .46800002 .638 .53900003 .61300004 .53900003 .514 C .53900003 .45000002 .469 .39800003 .40300003 .384 M .25300002 .596 C .25300002 .61600006 .25300002 .62700003 .26700002 .638 C .271 .64000005 .286 .65000004 .31 .65000004 C .354 .65000004 .409 .615 .409 .51000005 C .409 .39800003 .35200003 .374 .25300002 .372 L .25300002 .596 M .46300003 .367 C .519 .39600003 .574 .446 .574 .514 C .574 .65300006 .45900002 .68500006 .337 .68500006 L .034 .68500006 C .015999999 .68500006 0 .68500006 0 .66700006 C 0 .65000004 .017 .65000004 .033000004 .65000004 C .093 .65000004 .096 .64000005 .096 .592 L .096 .093 C .096 .043 .092 .035 .029000003 .035 C .018 .035 0 .035 0 .018000001 C 0 0 .015999999 0 .034 0 L .331 0 C .45400003 0 .61200005 .048 .61200005 .187 C .61200005 .291 .536 .347 .46300003 .367 M .25300002 .089 L .25300002 .337 C .333 .337 .367 .337 .398 .314 C .437 .284 .44000003 .21900001 .44000003 .187 C .44000003 .148 .437 .035 .312 .035 C .25300002 .035 .25300002 .07 .25300002 .089 M .43100002 .047000002 C .46800002 .089 .47500002 .142 .47500002 .187 C .47500002 .256 .46 .30800003 .42000002 .34100002 C .512 .326 .577 .27400002 .577 .187 C .577 .11100001 .517 .067 .43100002 .047000002 Z "/>
</symbol><use xlink:href="#font_3_1" transform="matrix(7.97011,0,0,-7.97011,18.259735,6.637024)"/>
<text fill-opacity="0" transform="matrix(1,0,-0,1,-80,788)" font-size="7.97011" font-family="UPHASK+CMSY8" x="91.294" y="-772.454">
U
</text>
<symbol id="font_2_4"><path d="M .541 .33300003 C .51000005 .221 .481 .117000006 .481 .042000003 C .481 .011 .505 0 .526 0 C .566 0 .64500004 .044 .64500004 .065000005 C .64500004 .072000004 .637 .072000004 .633 .072000004 C .621 .072000004 .60400003 .064 .593 .058000002 C .58500004 .059 .57 .063 .57 .086 C .57 .22500001 .704 .60300004 .704 .60400003 C .713 .62500006 .739 .68700004 .739 .70300007 C .739 .70400006 .73800004 .71000004 .72800004 .71000004 C .709 .71000004 .667 .688 .65400004 .66800004 C .651 .66200006 .64100003 .63400006 .624 .587 C .56200004 .41500002 .296 .064 .17400001 .064 C .111 .064 .089 .12200001 .089 .177 C .089 .23400001 .111 .29900002 .171 .43700004 C .21400002 .53400004 .25 .615 .25 .66200006 C .25 .69600004 .23300001 .71000004 .201 .71000004 C .120000005 .71000004 .019000001 .64800006 .019000001 .62500006 C .019000001 .61800003 .028 .61800003 .030000001 .61800003 C .04 .61800003 .058000002 .624 .080000006 .638 C .1 .651 .128 .652 .13 .652 C .147 .652 .16100001 .64800006 .16100001 .61800003 C .16100001 .57500005 .128 .49900004 .083000004 .39800003 C 0 .209 0 .167 0 .133 C 0 .067 .028 .005999999 .104 .005999999 C .171 .005999999 .268 .052 .37300003 .148 C .439 .207 .482 .259 .54 .33300003 L .541 .33300003 Z "/>
</symbol><use xlink:href="#font_2_4" transform="matrix(7.97011,0,0,-7.97011,11.174447,15.761213)"/>
<text fill-opacity="0" transform="matrix(1,0,-0,1,-79.999985,788)" font-size="11.95517" font-family="CJJTMA+CMR12" x="144.651" y="-778.717">
&#x02c7;
</text>
<symbol id="font_4_1"><path d="M .12900001 .048000038 L .012000002 .11900002 L 0 .10100001 L .12800002 0 L .25700003 .10100001 L .24500003 .11900002 L .12900001 .048000038 Z "/>
</symbol><use xlink:href="#font_4_1" transform="matrix(11.95517,0,0,-11.95517,66.03782,3.090242)"/>
<text fill-opacity="0" transform="matrix(1,0,-0,1,-79.999985,788)" font-size="11.95517" font-family="WQJNIM+CMMI12" x="140.316" y="-775.695">
M
</text>
<use xlink:href="#font_1_2" transform="matrix(11.95517,0,0,-11.95517,60.901814,12.304993)"/>
<text fill-opacity="0" transform="matrix(1,0,-0,1,-79.999985,788)" font-size="7.97011" font-family="UPHASK+CMSY8" x="151.641" y="-773.902">
U
</text>
<use xlink:href="#font_2_4" transform="matrix(7.97011,0,0,-7.97011,71.52147,14.313215)"/>
<text fill-opacity="0" transform="matrix(1,0,-0,1,-79.99999,788)" font-size="11.95517" font-family="WQJNIM+CMMI12" x="85.698" y="-727.969">
M
</text>
<use xlink:href="#font_1_2" transform="matrix(11.95517,0,0,-11.95517,6.283809,60.031006)"/>
<path transform="matrix(1,0,0,-1,39.094,30.565979)" stroke-width=".3985" stroke-linecap="butt" stroke-miterlimit="10" stroke-linejoin="miter" fill="none" stroke="rgb(0,0,0)" d="M -10.91075 22.35304 L 16.57925 22.54077 "/>
<path transform="matrix(1,-.00682,-.00682,-1,55.673252,8.025219)" stroke-width=".31879" stroke-linecap="round" stroke-linejoin="round" fill="none" stroke="rgb(0,0,0)" d="M -1.19551 1.59401 C -1.09587 .99626 0 .09961 .29886 0 C 0 -.09961 -1.09587 -.99626 -1.19551 -1.59401 "/>
<text fill-opacity="0" transform="matrix(1,0,-0,1,-80,787.99994)" font-size="7.97011" font-family="UPHASK+CMSY8" x="118.865" y="-784.066">
&#x223c;
</text>
<symbol id="font_2_1"><path d="M .707 .21900001 C .707 .25100002 .69600004 .255 .69100004 .255 C .67700005 .255 .675 .23000002 .675 .215 C .671 .143 .61700004 .063999996 .53000003 .063999996 C .47000003 .063999996 .42200002 .10000001 .363 .15400001 C .299 .21400002 .246 .256 .17700002 .256 C .062000003 .256 0 .136 0 .038000003 C 0 .003999993 .011999998 .0009999946 .015999999 .0009999946 C .022999998 .0009999946 .031 .008000001 .032 .032999992 C .036000002 .13 .103 .192 .17700002 .192 C .237 .192 .285 .15600002 .344 .102 C .408 .041999996 .46100003 0 .53000003 0 C .643 0 .707 .117 .707 .21900001 Z "/>
</symbol><use xlink:href="#font_2_1" transform="matrix(7.97011,0,0,-7.97011,39.335236,2.9616065)"/>
<text fill-opacity="0" transform="matrix(1,0,-0,1,-80,788)" font-size="7.97011" font-family="YIWDZE+CMMI8" x="119.583" y="-772.266">
&#x03c0;
</text>
<symbol id="font_5_1"><path d="M .255 .375 L .37 .375 C .349 .284 .331 .21000001 .331 .136 C .331 .12900001 .331 .086 .342 .050000004 C .355 .008 .365 0 .38300002 0 C .405 0 .428 .019000001 .428 .043 C .428 .050000004 .42700002 .052000005 .423 .061000004 C .402 .107 .387 .15500002 .387 .23700002 C .387 .26 .387 .30200002 .402 .375 L .52300006 .375 C .53900003 .375 .5500001 .375 .56000006 .38300002 C .572 .394 .57500005 .407 .57500005 .41300002 C .57500005 .441 .5500001 .441 .53300005 .441 L .172 .441 C .15100001 .441 .113000005 .441 .064 .393 C .028000003 .357 0 .31100002 0 .304 C 0 .29500002 .007000001 .292 .015000002 .292 C .025 .292 .027 .29500002 .033 .303 C .08200001 .375 .141 .375 .164 .375 L .22200002 .375 C .19300002 .269 .14000002 .14800002 .103 .075 C .096 .060000002 .086 .040000003 .086 .031000003 C .086 .010000001 .103 0 .119 0 C .157 0 .16700001 .038000003 .18800001 .120000005 L .255 .375 Z "/>
</symbol><use xlink:href="#font_5_1" transform="matrix(7.97011,0,0,-7.97011,39.814133,15.81371)"/>
<path transform="matrix(1,0,0,-1,39.094,30.565979)" stroke-width=".3985" stroke-linecap="butt" stroke-miterlimit="10" stroke-linejoin="miter" fill="none" stroke="rgb(0,0,0)" d="M -27.11021 -17.11127 L -27.11021 10.37875 "/>
<path transform="matrix(0,-1,-1,-0,11.983791,20.18723)" stroke-width=".31879" stroke-linecap="round" stroke-linejoin="round" fill="none" stroke="rgb(0,0,0)" d="M -1.19551 1.59401 C -1.09587 .99626 0 .09961 .29886 0 C 0 -.09961 -1.09587 -.99626 -1.19551 -1.59401 "/>
<text fill-opacity="0" transform="matrix(0,-1,1,0,758.30096,124.294975)" font-size="7.97011" font-family="UPHASK+CMSY8" x="87.298" y="-751.003">
&#x227a;
</text>
<symbol id="font_2_2"><path d="M .31000003 .314 C .46800005 .345 .535 .402 .55700004 .421 C .64400005 .49600002 .64900005 .6 .64900005 .60400003 C .64900005 .619 .637 .628 .62600005 .628 C .62200004 .628 .606 .62600005 .60300004 .606 C .595 .55200005 .577 .43100002 .35600004 .372 C .24900001 .344 .12900001 .338 .029 .337 C .023999996 .337 0 .337 0 .314 C 0 .29900002 .0119999945 .29400003 .015999995 .293 C .018 .291 .019999996 .291 .063 .291 C .107 .291 .13499999 .289 .17700002 .28500003 C .42300004 .26500002 .578 .19100001 .60200006 .031000003 C .60400003 .016000003 .606 0 .62600005 0 C .637 0 .64900005 .009000003 .64900005 .024000004 C .64900005 .025000002 .647 .069000006 .62200004 .12300001 C .564 .24400002 .416 .293 .31000003 .314 Z "/>
</symbol><use xlink:href="#font_2_2" transform="matrix(0,-7.97011,-7.97011,-0,7.816031,36.29561)"/>
<text fill-opacity="0" transform="matrix(1,0,-0,1,-80,788)" font-size="7.97011" font-family="YIWDZE+CMMI8" x="96.168" y="-752.437">
j
</text>
<symbol id="font_5_3"><path d="M .42700002 .828 C .42700002 .847 .41200003 .86600006 .388 .86600006 C .358 .86600006 .33200002 .838 .33200002 .81200004 C .33200002 .79300004 .347 .77400005 .37100002 .77400005 C .40100002 .77400005 .42700002 .80200005 .42700002 .828 M .21800001 .15400001 C .20300001 .093 .154 .027999997 .093 .027999997 C .077 .027999997 .062 .032000005 .060000002 .033000007 C .091000006 .048000008 .095 .075 .095 .08400001 C .095 .10800001 .077 .12100001 .056 .12100001 C .027 .12100001 0 .09600001 0 .06300001 C 0 .025000006 .037 0 .094000004 0 C .155 0 .26500002 .038000003 .29500002 .158 L .38500002 .51600003 C .388 .528 .39000002 .536 .39000002 .551 C .39000002 .606 .34600002 .64500004 .28800002 .64500004 C .18200001 .64500004 .120000005 .50500005 .120000005 .49200004 C .120000005 .48300004 .127 .47900003 .135 .47900003 C .146 .47900003 .147 .48200005 .154 .49700004 C .184 .56600004 .23500001 .61700004 .28500003 .61700004 C .30600002 .61700004 .31800002 .60300004 .31800002 .57000005 C .31800002 .55600005 .31500003 .54200006 .312 .528 L .21800001 .15400001 Z "/>
</symbol><use xlink:href="#font_5_3" transform="matrix(7.97011,0,0,-7.97011,16.056417,37.188892)"/>
<path transform="matrix(1,0,0,-1,39.094,30.565979)" stroke-width=".3985" stroke-linecap="butt" stroke-miterlimit="10" stroke-linejoin="miter" fill="none" stroke="rgb(0,0,0)" d="M -17.24615 -17.11127 L 17.48254 11.9894 "/>
<path transform="matrix(.76949,-.64482,-.64482,-.76949,56.57653,18.5766)" stroke-width=".31879" stroke-linecap="round" stroke-linejoin="round" fill="none" stroke="rgb(0,0,0)" d="M -1.19551 1.59401 C -1.09587 .99626 0 .09961 .29886 0 C 0 -.09961 -1.09587 -.99626 -1.19551 -1.59401 "/>
<text fill-opacity="0" transform="matrix(.76949,-.64482,.64482,.76949,434.04788,687.02026)" font-size="7.97011" font-family="UPHASK+CMSY8" x="113.833" y="-756.503">
&#x227a;
</text>
<use xlink:href="#font_2_2" transform="matrix(6.13292,-5.139286,-5.139286,-6.13292,34.706757,31.443392)"/>
<text fill-opacity="0" transform="matrix(1,0,-0,1,-80,788)" font-size="7.97011" font-family="YIWDZE+CMMI8" x="123.573" y="-753.161">
j
</text>
<use xlink:href="#font_5_3" transform="matrix(7.97011,0,0,-7.97011,43.46142,36.464893)"/>
<text fill-opacity="0" transform="matrix(1,0,-0,1,-80,788)" font-size="5.97758" font-family="YVLRYJ+CMSY6" x="126.998" y="-751.821">
U
</text>
<symbol id="font_6_1"><path d="M .59000003 .342 C .55 .19600001 .529 .12300001 .529 .049000002 C .529 .007999999 .56 0 .578 0 C .62700003 0 .707 .045 .707 .071 C .707 .08 .696 .08 .693 .08 C .679 .08 .661 .072000004 .649 .065 C .62700003 .067 .625 .087000005 .625 .095 C .625 .23 .751 .58400005 .763 .611 C .79 .674 .794 .69600004 .794 .70100003 C .794 .70400006 .792 .711 .781 .711 C .763 .711 .721 .693 .702 .666 C .699 .661 .682 .614 .67800003 .605 C .663 .563 .659 .554 .64100003 .52300006 C .497 .273 .282 .072000004 .18900001 .072000004 C .108 .072000004 .096 .154 .096 .19500001 C .096 .26700002 .13200001 .349 .19100001 .48400003 C .22600001 .563 .25000003 .623 .25000003 .66300005 C .25000003 .69600004 .23200002 .711 .20100002 .711 C .113 .711 .0030000005 .651 .0030000005 .62200004 C .0030000005 .61200005 .014 .61200005 .017 .61200005 C .034 .61200005 .053999998 .624 .061000004 .628 C .092 .64500004 .117000006 .646 .12500001 .646 C .13900001 .646 .15400001 .64400005 .15400001 .61700004 C .15400001 .577 .121 .50200003 .085 .421 C .026000002 .286 0 .21700001 0 .149 C 0 .051000003 .051 .0069999993 .114 .0069999993 C .22500002 .0069999993 .35500002 .105000004 .42400002 .168 C .46900004 .207 .521 .259 .589 .342 L .59000003 .342 Z "/>
</symbol><use xlink:href="#font_6_1" transform="matrix(5.97758,0,0,-5.97758,47.069733,36.34639)"/>
</g>
</svg>
