<?xml version="1.0" standalone="no"?>
<!DOCTYPE svg PUBLIC "-//W3C//DTD SVG 1.1//EN" "http://www.w3.org/Graphics/SVG/1.1/DTD/svg11.dtd">
<svg xmlns="http://www.w3.org/2000/svg" xmlns:xlink="http://www.w3.org/1999/xlink" version="1.1" width="2.9633334cm" height="2.4341667cm" viewBox="0 0 84 69">
<clipPath id="cp0">
<path transform="matrix(1,0,0,-1,-87,792)" d="M 0 0 L 612 0 L 612 792 L 0 792 Z "/>
</clipPath>
<g clip-path="url(#cp0)">
<path transform="matrix(1,0,0,-1,42.091995,59.778015)" stroke-width=".79701" stroke-linecap="butt" stroke-dasharray=".79701,.99628" stroke-miterlimit="10" stroke-linejoin="miter" fill="none" stroke="rgb(0,0,0)" d="M -21.95924 17.00902 L 21.95924 17.00902 "/>
<text fill-opacity="0" transform="matrix(1,0,-0,1,-87,792)" font-size="7.97011" font-family="VZZGNZ+CMR8" x="126.974" y="-723.985">
0
</text>
<symbol id="font_1_1"><path d="M .448 .34 C .448 .44700003 .437 .512 .404 .57600003 C .36 .66400003 .279 .68600005 .224 .68600005 C .09800001 .68600005 .052 .59200007 .038000003 .56400007 C .0020000003 .49100003 0 .39200002 0 .34 C 0 .27400002 .0030000024 .17300001 .051000006 .09300001 C .09700001 .019000001 .171 0 .224 0 C .272 0 .358 .0150000015 .40800002 .11400001 C .44500002 .186 .448 .275 .448 .34 M .224 .028 C .19 .028 .121 .044000003 .1 .149 C .08900001 .206 .08900001 .3 .08900001 .35200003 C .08900001 .421 .08900001 .49100003 .1 .54600006 C .121 .64800006 .199 .65800005 .224 .65800005 C .25800002 .65800005 .32700002 .64100003 .347 .5500001 C .359 .49500003 .359 .42000002 .359 .35200003 C .359 .293 .359 .20300001 .347 .147 C .326 .042000003 .257 .028 .224 .028 Z "/>
</symbol><use xlink:href="#font_1_1" transform="matrix(7.97011,0,0,-7.97011,40.300774,68.18239)"/>
<path transform="matrix(1,0,0,-1,42.091995,59.778015)" stroke-width=".3985" stroke-linecap="butt" stroke-miterlimit="10" stroke-linejoin="miter" fill="none" stroke="rgb(0,0,0)" d="M -2.26787 17.00813 L 2.26787 17.00813 "/>
<text fill-opacity="0" transform="matrix(1,0,-0,1,-87,792)" font-size="7.97011" font-family="YIWDZE+CMMI8" x="135.387" y="-747.514">
&#x03c9;
</text>
<symbol id="font_2_2"><path d="M .62500006 .37600002 C .62500006 .407 .61600006 .45200002 .5770001 .45200002 C .5500001 .45200002 .52400005 .42700002 .52400005 .39900002 C .52400005 .384 .535 .375 .54600006 .365 C .56100005 .35 .57600003 .324 .57600003 .287 C .57600003 .22000001 .507 .078 .407 .078 C .35500002 .078 .319 .109000005 .307 .157 C .323 .19100001 .344 .24600002 .344 .274 C .344 .291 .33600003 .304 .317 .304 C .272 .304 .266 .19300002 .266 .16100001 C .231 .119 .19000001 .078 .132 .078 C .068 .078 .038000003 .12900001 .038000003 .18800001 C .038000003 .23500001 .051 .277 .071 .316 C .1 .374 .139 .412 .139 .428 C .139 .439 .13000001 .447 .119 .447 C .1 .447 .085 .418 .074 .4 C .031000001 .329 0 .23600002 0 .15300001 C 0 .076 .029000001 .0010000002 .117 .0010000002 C .20300001 .0010000002 .252 .07 .27400002 .098000005 C .289 .043 .33 0 .391 0 C .47300002 0 .51400006 .053000003 .55500007 .122 C .5870001 .17500001 .62500006 .313 .62500006 .37600002 Z "/>
</symbol><use xlink:href="#font_2_2" transform="matrix(7.97011,0,0,-7.97011,48.514515,44.565723)"/>
<path transform="matrix(1,0,0,-1,42.091995,59.778015)" stroke-width=".3985" stroke-linecap="butt" stroke-miterlimit="10" stroke-linejoin="miter" fill="none" stroke="rgb(0,0,0)" d="M -2.26787 45.35506 L 2.26787 45.35506 "/>
<text fill-opacity="0" transform="matrix(1,0,-0,1,-87,792)" font-size="7.97011" font-family="YIWDZE+CMMI8" x="137.989" y="-776.414">
&#x03c9;
</text>
<use xlink:href="#font_2_2" transform="matrix(7.97011,0,0,-7.97011,51.11652,15.6657)"/>
<text fill-opacity="0" transform="matrix(1,0,-0,1,-87,792)" font-size="5.97758" font-family="WIRDCL+CMR6" x="143.255" y="-775.307">
1
</text>
<symbol id="font_3_1"><path d="M .23800002 .63500005 C .23800002 .665 .23400001 .665 .20400001 .665 C .138 .601 .036 .601 0 .601 L 0 .56200004 C .025999993 .56200004 .09200001 .56200004 .152 .59000003 L .152 .085 C .152 .052 .152 .039 .048999995 .039 L .0059999973 .039 L .0059999973 0 C .061000004 .004 .13900001 .004 .19500001 .004 C .251 .004 .329 .004 .384 0 L .384 .039 L .34100002 .039 C .23800002 .039 .23800002 .052 .23800002 .085 L .23800002 .63500005 Z "/>
</symbol><use xlink:href="#font_3_1" transform="matrix(5.97758,0,0,-5.97758,56.97829,16.692993)"/>
<path transform="matrix(1,0,0,-1,42.091995,59.778015)" stroke-width=".3985" stroke-linecap="butt" stroke-miterlimit="10" stroke-linejoin="miter" fill="none" stroke="rgb(0,0,0)" d="M 0 0 L 0 113.38766 "/>
<path transform="matrix(1,0,0,-1,42.091995,59.778015)" stroke-width=".79701" stroke-linecap="butt" stroke-miterlimit="10" stroke-linejoin="miter" fill="none" stroke="rgb(0,0,0)" d="M -56.69382 113.38766 C -50.3156 87.87476 -28.34691 0 0 0 C 28.3469 0 50.31558 87.87474 56.69382 113.38766 "/>
<path transform="matrix(1,0,0,-1,42.091995,59.778015)" stroke-width=".79701" stroke-linecap="butt" stroke-miterlimit="10" stroke-linejoin="miter" fill="none" stroke="rgb(0,0,0)" d="M -39.68567 113.38766 L -21.95924 17.00902 M 21.95924 17.00902 L 39.68567 113.38766 "/>
</g>
</svg>
