<?xml version="1.0" standalone="no"?>
<!DOCTYPE svg PUBLIC "-//W3C//DTD SVG 1.1//EN" "http://www.w3.org/Graphics/SVG/1.1/DTD/svg11.dtd">
<svg xmlns="http://www.w3.org/2000/svg" xmlns:xlink="http://www.w3.org/1999/xlink" version="1.1" width="8.008056cm" height="5.573889cm" viewBox="0 0 227 158">
<clipPath id="cp0">
<path transform="matrix(1,0,0,-1,0,158)" d="M 0 0 L 230.567 0 L 230.567 157.073 L 0 157.073 Z "/>
</clipPath>
<g clip-path="url(#cp0)">
<path transform="matrix(1,0,0,-1,142.131,157.231)" stroke-width=".3985" stroke-linecap="butt" stroke-dasharray="2.98883,2.98883" stroke-miterlimit="10" stroke-linejoin="miter" fill="none" stroke="rgb(0,0,0)" d="M -141.73404 141.73404 L 56.69362 141.73404 "/>
<text fill-opacity="0" transform="matrix(1,0,-0,1,0,158)" font-size="6.9738503" font-family="JXTKHG+CMMI7" x="202.343" y="-140.758">
&#x03b2;
</text>
<symbol id="font_1_2"><path d="M .586 .76000005 C .586 .84800005 .51000005 .89900005 .42200002 .89900005 C .28500003 .89900005 .184 .74300003 .15900001 .642 L .0020000003 .0119999945 C 0 .004999995 .010000002 0 .015999999 0 C .025000002 0 .033000004 .001000002 .035 .0069999993 L .102 .27400002 C .122999996 .22800002 .171 .185 .25200003 .185 C .39200002 .185 .55 .286 .55 .439 C .55 .49800003 .52300006 .558 .47200006 .591 C .521 .62200004 .586 .679 .586 .76000005 M .38800004 .592 C .37300003 .589 .36600003 .58500004 .337 .58500004 C .32100004 .58500004 .29700002 .586 .29000002 .59000003 C .3 .596 .32800004 .597 .337 .597 C .35200003 .597 .37400004 .596 .38800004 .592 M .52000004 .77800006 C .52000004 .725 .49400002 .647 .43200004 .612 C .41300002 .61800003 .39400002 .625 .33800003 .625 C .30300003 .625 .25300002 .623 .25300002 .587 C .25300002 .56200004 .28400004 .558 .33500004 .558 C .36900002 .558 .39900002 .563 .43000004 .572 C .46000004 .551 .476 .51 .476 .46600002 C .476 .321 .37700003 .213 .25500003 .213 C .178 .213 .122999996 .26 .122999996 .33900002 C .122999996 .349 .124 .35900003 .126 .36800003 L .192 .63400006 C .216 .72900003 .30400002 .87100005 .42000002 .87100005 C .47900003 .87100005 .52000004 .83900005 .52000004 .77800006 Z "/>
</symbol><use xlink:href="#font_1_2" transform="matrix(6.9738503,0,0,-6.9738503,202.67078,18.59493)"/>
<text fill-opacity="0" transform="matrix(1,0,-0,1,0,158)" font-size="6.9738503" font-family="QYGBCI+CMR7" x="209.487" y="-140.758">
=
</text>
<symbol id="font_2_3"><path d="M .698 .22000003 C .71300006 .22000003 .73600006 .22000003 .73600006 .24500003 C .73600006 .26900002 .7120001 .26900002 .69900006 .26900002 L .037000008 .26900002 C .024000004 .26900002 0 .26900002 0 .24500003 C 0 .22000003 .023000002 .22000003 .038000003 .22000003 L .698 .22000003 M .69900006 0 C .7120001 0 .73600006 0 .73600006 .023999996 C .73600006 .049000002 .71300006 .049000002 .698 .049000002 L .038000003 .049000002 C .023000002 .049000002 0 .049000002 0 .023999996 C 0 0 .024000004 0 .037000008 0 L .69900006 0 Z "/>
</symbol><use xlink:href="#font_2_3" transform="matrix(6.9738503,0,0,-6.9738503,209.97517,16.433037)"/>
<text fill-opacity="0" transform="matrix(1,0,-0,1,0,158)" font-size="6.9738503" font-family="JXTKHG+CMMI7" x="217.871" y="-140.758">
&#x03b2;
</text>
<use xlink:href="#font_1_2" transform="matrix(6.9738503,0,0,-6.9738503,218.19878,18.59493)"/>
<text fill-opacity="0" transform="matrix(1,0,-0,1,0,158)" font-size="4.98132" font-family="NKECHC+CMR5" x="222.388" y="-139.762">
0
</text>
<symbol id="font_3_1"><path d="M .522 .34200004 C .522 .41400003 .522 .688 .261 .688 C 0 .688 0 .41400003 0 .34200004 C 0 .26900002 0 0 .261 0 C .522 0 .522 .26900002 .522 .34200004 M .261 .033000004 C .224 .033000004 .14000002 .046000004 .115 .147 C .101 .201 .1 .272 .1 .35400003 C .1 .42800003 .1 .49700004 .116000004 .554 C .141 .6380001 .21800002 .65500003 .261 .65500003 C .33500004 .65500003 .388 .61700004 .40800002 .54700005 C .42200005 .49600005 .42200005 .41300005 .42200005 .35400003 C .42200005 .286 .42200005 .20500001 .40700004 .14500001 C .381 .048 .30100003 .033000004 .261 .033000004 Z "/>
</symbol><use xlink:href="#font_3_1" transform="matrix(4.98132,0,0,-4.98132,222.78152,18.347595)"/>
<path transform="matrix(1,0,0,-1,142.131,157.231)" stroke-width=".79701" stroke-linecap="butt" stroke-miterlimit="10" stroke-linejoin="miter" fill="none" stroke="rgb(0,0,0)" d="M -141.73404 56.69362 L 56.69362 56.69362 "/>
<text fill-opacity="0" transform="matrix(1,0,-0,1,0,158)" font-size="6.9738503" font-family="JXTKHG+CMMI7" x="202.543" y="-55.719">
&#x03b1;
</text>
<symbol id="font_1_1"><path d="M .48500004 .15100001 C .5770001 .24600002 .6140001 .379 .6140001 .39000002 C .6140001 .403 .60200006 .403 .59700006 .403 C .58300006 .403 .58300006 .4 .57600003 .37800002 C .558 .312 .52500004 .25100002 .483 .19700001 C .48200002 .21200001 .48000005 .279 .47800002 .28800002 C .46300003 .387 .388 .451 .28800002 .451 C .141 .451 0 .314 0 .17400001 C 0 .082 .067 0 .183 0 C .275 0 .358 .042000003 .414 .085 C .437 .012000001 .488 0 .51800007 0 C .57600003 0 .61200005 .049000002 .61200005 .07 C .61200005 .082 .6000001 .082 .595 .082 C .5820001 .082 .58000004 .078 .57800007 .072000004 C .56400007 .034 .53300005 .028 .521 .028 C .507 .028 .49000004 .028 .48500004 .15100001 M .407 .117000006 C .30900002 .037 .224 .028 .186 .028 C .120000005 .028 .083000004 .072000004 .083000004 .13900001 C .083000004 .16800001 .097 .277 .149 .34600002 C .195 .40600002 .252 .423 .287 .423 C .367 .423 .39000002 .34600002 .398 .284 C .404 .24100001 .402 .17000002 .407 .117000006 Z "/>
</symbol><use xlink:href="#font_1_1" transform="matrix(6.9738503,0,0,-6.9738503,202.97537,102.35074)"/>
<text fill-opacity="0" transform="matrix(1,0,-0,1,0,158)" font-size="6.9738503" font-family="QYGBCI+CMR7" x="209.99" y="-55.719">
=
</text>
<use xlink:href="#font_2_3" transform="matrix(6.9738503,0,0,-6.9738503,210.47818,101.47203)"/>
<text fill-opacity="0" transform="matrix(1,0,-0,1,0,158)" font-size="6.9738503" font-family="JXTKHG+CMMI7" x="218.373" y="-55.719">
&#x03b2;
</text>
<use xlink:href="#font_1_2" transform="matrix(6.9738503,0,0,-6.9738503,218.70078,103.63393)"/>
<text fill-opacity="0" transform="matrix(1,0,-0,1,0,158)" font-size="4.98132" font-family="WXWCLL+CMMI5" x="222.891" y="-54.662">
k
</text>
<symbol id="font_4_2"><path d="M .24400002 .667 C .248 .681 .248 .683 .248 .688 C .248 .705 .23300001 .705 .21700001 .704 L .094000004 .695 C .077 .694 .07500001 .693 .07 .689 C .06600001 .684 .063 .672 .063 .666 C .063 .649 .079 .649 .093 .649 C .094000004 .649 .11200001 .649 .127 .647 C .146 .645 .14700001 .642 .14700001 .634 C .14700001 .631 .14700001 .629 .14199999 .611 L .0040000007 .059 C 0 .044 0 .042000003 0 .036000002 C 0 .013000001 .018 0 .037999995 0 C .077 0 .086 .037 .09000001 .051000003 L .13499999 .23500001 C .16100001 .23400001 .286 .22700001 .286 .15600002 C .286 .14900002 .286 .14500001 .283 .13300002 C .28 .119 .28 .113000005 .28 .107 C .28 .036000002 .344 0 .402 0 C .504 0 .544 .143 .544 .15500002 C .544 .16900001 .527 .16900001 .523 .16900001 C .50600004 .16900001 .504 .16400002 .499 .14600001 C .48900002 .111 .46000004 .034 .40600002 .034 C .36900002 .034 .36400002 .071 .36400002 .093 C .36400002 .094000004 .36400002 .108 .368 .12500001 C .372 .14100002 .373 .15100001 .373 .15900001 C .373 .24700002 .263 .26200002 .197 .26700002 C .225 .28300002 .26700002 .31700003 .283 .33100003 C .34 .37600002 .39500004 .41900003 .45200002 .41900003 C .47500002 .41900003 .481 .41300002 .487 .40700004 C .486 .40700004 .481 .404 .47900003 .404 C .43300003 .388 .43300003 .34700003 .43300003 .344 C .43300003 .32700002 .445 .30300003 .47800004 .30300003 C .49800003 .30300003 .54 .31900004 .54 .374 C .54 .42300004 .50200003 .45300004 .454 .45300004 C .38600004 .45300004 .328 .40700004 .255 .34800002 C .22 .32000002 .187 .29500002 .14700001 .279 L .24400002 .667 Z "/>
</symbol><use xlink:href="#font_4_2" transform="matrix(4.98132,0,0,-4.98132,223.5087,103.39279)"/>
<text fill-opacity="0" transform="matrix(1,0,-0,1,-.00000667572,158)" font-size="6.9738503" font-family="JXTKHG+CMMI7" x="14.818" y="-148.047">
C
</text>
<symbol id="font_1_5"><path d="M .77300006 .71000004 C .77300006 .71500003 .77000004 .723 .76000005 .723 C .753 .723 .75100005 .721 .74200004 .711 L .669 .634 C .66 .646 .60400003 .723 .481 .723 C .23800004 .723 0 .508 0 .28200004 C 0 .11900001 .12800002 0 .307 0 C .36100003 0 .45700002 .011000001 .56000006 .098000005 C .63900006 .165 .661 .252 .661 .26000002 C .661 .27300003 .64900005 .27300003 .64400005 .27300003 C .63100004 .27300003 .62900007 .268 .62600005 .25700003 C .58500004 .120000005 .44500005 .036000002 .32400003 .036000002 C .21800002 .036000002 .1 .09300001 .1 .25100002 C .1 .28000003 .107 .43800002 .22200003 .564 C .29100004 .64100003 .39600003 .68700004 .49100006 .68700004 C .60700005 .68700004 .6750001 .603 .6750001 .49100003 C .6750001 .46300003 .67200005 .45600003 .67200005 .45000002 C .67200005 .43700004 .68500006 .43700004 .69000006 .43700004 C .70600003 .43700004 .70600003 .44000003 .711 .45900002 L .77300006 .71000004 Z "/>
</symbol><use xlink:href="#font_1_5" transform="matrix(6.9738503,0,0,-6.9738503,15.306163,10.09248)"/>
<text fill-opacity="0" transform="matrix(1,0,-0,1,-.00000667572,158)" font-size="4.98132" font-family="WXWCLL+CMMI5" x="20.533" y="-146.99">
&#x03b2;
</text>
<symbol id="font_4_1"><path d="M .639 .75500005 C .639 .85800004 .535 .90000004 .44300002 .90000004 C .31599998 .90000004 .189 .762 .16000001 .646 L .0029999986 .017000005 C 0 .003999993 .009999998 0 .023999996 0 C .034999996 0 .041999996 .002000004 .045 .016000003 L .10800001 .269 L .109 .268 C .15 .21000001 .20400001 .184 .27500004 .184 C .45 .184 .60800004 .292 .60800004 .43 C .60800004 .50200003 .57600003 .548 .521 .589 C .57100004 .61600006 .639 .6750001 .639 .75500005 M .413 .58800006 C .39500004 .584 .376 .58300006 .357 .58300006 C .342 .58300006 .32700002 .584 .31300002 .586 C .33100003 .591 .352 .592 .371 .592 C .385 .592 .399 .591 .413 .58800006 M .563 .772 C .563 .708 .53000003 .64500004 .472 .61100006 C .45 .62 .40100002 .625 .371 .625 C .343 .625 .263 .62700003 .263 .584 C .263 .556 .297 .549 .356 .549 C .412 .549 .43400002 .556 .47000003 .566 C .509 .541 .524 .499 .524 .455 C .524 .315 .42000002 .21800001 .283 .21800001 C .20600002 .21800001 .132 .25800002 .132 .343 C .132 .352 .133 .365 .136 .379 L .19900002 .63 C .228 .74600005 .329 .86600006 .445 .86600006 C .49800003 .86600006 .563 .84900004 .563 .772 Z "/>
</symbol><use xlink:href="#font_4_1" transform="matrix(4.98132,0,0,-4.98132,20.986294,11.976371)"/>
<path transform="matrix(1,0,0,-1,142.131,157.231)" stroke-width=".3985" stroke-linecap="butt" stroke-miterlimit="10" stroke-linejoin="miter" fill="none" stroke="rgb(128,128,128)" stroke-opacity=".5" d="M -113.38724 141.73404 L -113.38724 0 "/>
<path transform="matrix(1,0,0,-1,142.131,157.231)" d="M -111.9782 113.38724 C -111.9782 114.16542 -112.60904 114.79628 -113.38724 114.79628 C -114.16542 114.79628 -114.79628 114.16542 -114.79628 113.38724 C -114.79628 112.60904 -114.16542 111.9782 -113.38724 111.9782 C -112.60904 111.9782 -111.9782 112.60904 -111.9782 113.38724 Z M -113.38724 113.38724 "/>
<path transform="matrix(1,0,0,-1,142.131,157.231)" d="M -111.9782 119.0565 C -111.9782 119.8347 -112.60904 120.46555 -113.38724 120.46555 C -114.16542 120.46555 -114.79628 119.8347 -114.79628 119.0565 C -114.79628 118.27832 -114.16542 117.64746 -113.38724 117.64746 C -112.60904 117.64746 -111.9782 118.27832 -111.9782 119.0565 Z M -113.38724 119.0565 "/>
<path transform="matrix(1,0,0,-1,142.131,157.231)" d="M -111.9782 127.56062 C -111.9782 128.33882 -112.60904 128.96967 -113.38724 128.96967 C -114.16542 128.96967 -114.79628 128.33882 -114.79628 127.56062 C -114.79628 126.78244 -114.16542 126.15158 -113.38724 126.15158 C -112.60904 126.15158 -111.9782 126.78244 -111.9782 127.56062 Z M -113.38724 127.56062 "/>
<path transform="matrix(1,0,0,-1,142.131,157.231)" d="M -111.9782 14.17339 C -111.9782 14.95158 -112.60904 15.58243 -113.38724 15.58243 C -114.16542 15.58243 -114.79628 14.95158 -114.79628 14.17339 C -114.79628 13.3952 -114.16542 12.76434 -113.38724 12.76434 C -112.60904 12.76434 -111.9782 13.3952 -111.9782 14.17339 Z M -113.38724 14.17339 "/>
<path transform="matrix(1,0,0,-1,142.131,157.231)" d="M -111.9782 36.85092 C -111.9782 37.62912 -112.60904 38.25996 -113.38724 38.25996 C -114.16542 38.25996 -114.79628 37.62912 -114.79628 36.85092 C -114.79628 36.07274 -114.16542 35.44188 -113.38724 35.44188 C -112.60904 35.44188 -111.9782 36.07274 -111.9782 36.85092 Z M -113.38724 36.85092 "/>
<path transform="matrix(1,0,0,-1,142.131,157.231)" d="M -111.9782 51.02432 C -111.9782 51.8025 -112.60904 52.43336 -113.38724 52.43336 C -114.16542 52.43336 -114.79628 51.8025 -114.79628 51.02432 C -114.79628 50.24614 -114.16542 49.61528 -113.38724 49.61528 C -112.60904 49.61528 -111.9782 50.24614 -111.9782 51.02432 Z M -113.38724 51.02432 "/>
<path transform="matrix(1,0,0,-1,142.131,157.231)" stroke-width="1.1955299" stroke-linecap="butt" stroke-dasharray="1.1955299,1.99255" stroke-miterlimit="10" stroke-linejoin="miter" fill="none" stroke="rgb(0,0,0)" d="M -113.38724 129.16891 L -113.38724 141.73404 "/>
<text fill-opacity="0" transform="matrix(1,0,-0,1,-.0000076293945,158)" font-size="6.9738503" font-family="JXTKHG+CMMI7" x="53.706" y="-120.227">
C
</text>
<use xlink:href="#font_1_5" transform="matrix(6.9738503,0,0,-6.9738503,54.194164,37.91248)"/>
<text fill-opacity="0" transform="matrix(1,0,-0,1,-.0000076293945,158)" font-size="4.98132" font-family="WXWCLL+CMMI5" x="59.42" y="-119.169">
&#x03b2;
</text>
<use xlink:href="#font_4_1" transform="matrix(4.98132,0,0,-4.98132,59.87329,39.79738)"/>
<text fill-opacity="0" transform="matrix(1,0,-0,1,-.0000076293945,158)" font-size="4.98132" font-family="NKECHC+CMR5" x="63.358" y="-117.675">
1
</text>
<symbol id="font_3_2"><path d="M .25500003 .63600004 C .25500003 .666 .252 .666 .21900001 .666 C .148 .60200006 .037 .60200006 .017000005 .60200006 L 0 .60200006 L 0 .558 L .017000005 .558 C .040000007 .558 .105000004 .56100005 .16300002 .586 L .16300002 .086 C .16300002 .055000003 .16300002 .044000003 .056999996 .044000003 L .0069999993 .044000003 L .0069999993 0 C .062000006 .004 .151 .004 .20900002 .004 C .26700002 .004 .356 .004 .411 0 L .411 .044000003 L .361 .044000003 C .25500003 .044000003 .25500003 .055000003 .25500003 .086 L .25500003 .63600004 Z "/>
</symbol><use xlink:href="#font_3_2" transform="matrix(4.98132,0,0,-4.98132,64.07032,40.324997)"/>
<path transform="matrix(1,0,0,-1,142.131,157.231)" stroke-width=".3985" stroke-linecap="butt" stroke-dasharray="2.98883,2.98883" stroke-miterlimit="10" stroke-linejoin="miter" fill="none" stroke="rgb(0,0,0)" d="M -141.73404 113.38724 L 56.69362 113.38724 "/>
<text fill-opacity="0" transform="matrix(1,0,-0,1,0,158)" font-size="6.9738503" font-family="JXTKHG+CMMI7" x="202.343" y="-112.412">
&#x03b2;
</text>
<use xlink:href="#font_1_2" transform="matrix(6.9738503,0,0,-6.9738503,202.67078,46.940926)"/>
<text fill-opacity="0" transform="matrix(1,0,-0,1,0,158)" font-size="4.98132" font-family="NKECHC+CMR5" x="206.861" y="-111.416">
1
</text>
<use xlink:href="#font_3_2" transform="matrix(4.98132,0,0,-4.98132,207.57332,46.584)"/>
<path transform="matrix(1,0,0,-1,142.131,157.231)" stroke-width=".3985" stroke-linecap="butt" stroke-miterlimit="10" stroke-linejoin="miter" fill="none" stroke="rgb(128,128,128)" stroke-opacity=".5" d="M -70.867 113.38724 L -70.867 0 "/>
<path transform="matrix(1,0,0,-1,142.131,157.231)" d="M -69.45796 96.37898 C -69.45796 97.15718 -70.08882 97.78802 -70.867 97.78802 C -71.6452 97.78802 -72.27605 97.15718 -72.27605 96.37898 C -72.27605 95.6008 -71.6452 94.96994 -70.867 94.96994 C -70.08882 94.96994 -69.45796 95.6008 -69.45796 96.37898 Z M -70.867 96.37898 "/>
<text fill-opacity="0" transform="matrix(1,0,-0,1,0,158)" font-size="6.9738503" font-family="JXTKHG+CMMI7" x="96.225" y="-103.219">
C
</text>
<use xlink:href="#font_1_5" transform="matrix(6.9738503,0,0,-6.9738503,96.713165,54.920475)"/>
<text fill-opacity="0" transform="matrix(1,0,-0,1,0,158)" font-size="4.98132" font-family="WXWCLL+CMMI5" x="101.94" y="-102.161">
&#x03b2;
</text>
<use xlink:href="#font_4_1" transform="matrix(4.98132,0,0,-4.98132,102.3933,56.805374)"/>
<text fill-opacity="0" transform="matrix(1,0,-0,1,0,158)" font-size="4.98132" font-family="NKECHC+CMR5" x="105.878" y="-100.667">
2
</text>
<symbol id="font_3_3"><path d="M .49800003 .193 L .45600003 .193 C .453 .17400001 .44300002 .112 .427 .102000006 C .41900003 .096 .33500004 .096 .32 .096 L .124 .096 C .19000001 .14500001 .264 .201 .324 .24100001 C .41399997 .303 .49800003 .36100003 .49800003 .467 C .49800003 .595 .37700003 .666 .23400001 .666 C .09900001 .666 0 .588 0 .49 C 0 .43800002 .044 .42900002 .058 .42900002 C .08500001 .42900002 .117 .44700003 .117 .48800004 C .117 .52400005 .091000006 .544 .060000002 .54700005 C .088 .592 .14600001 .62200004 .21300001 .62200004 C .31 .62200004 .39100003 .564 .39100003 .46600002 C .39100003 .38200003 .333 .31800002 .25599998 .25300002 L .012000002 .046000004 C .0019999966 .037 .001000002 .037 0 .030000001 L 0 0 L .46500003 0 L .49800003 .193 Z "/>
</symbol><use xlink:href="#font_3_3" transform="matrix(4.98132,0,0,-4.98132,106.3313,57.333)"/>
<path transform="matrix(1,0,0,-1,142.131,157.231)" stroke-width=".3985" stroke-linecap="butt" stroke-dasharray="2.98883,2.98883" stroke-miterlimit="10" stroke-linejoin="miter" fill="none" stroke="rgb(0,0,0)" d="M -141.73404 96.37898 L 56.69362 96.37898 "/>
<text fill-opacity="0" transform="matrix(1,0,-0,1,0,158)" font-size="6.9738503" font-family="JXTKHG+CMMI7" x="202.343" y="-95.404">
&#x03b2;
</text>
<use xlink:href="#font_1_2" transform="matrix(6.9738503,0,0,-6.9738503,202.67078,63.94893)"/>
<text fill-opacity="0" transform="matrix(1,0,-0,1,0,158)" font-size="4.98132" font-family="NKECHC+CMR5" x="206.861" y="-94.407">
2
</text>
<use xlink:href="#font_3_3" transform="matrix(4.98132,0,0,-4.98132,207.31429,63.593002)"/>
<path transform="matrix(1,0,0,-1,142.131,157.231)" stroke-width=".3985" stroke-linecap="butt" stroke-miterlimit="10" stroke-linejoin="miter" fill="none" stroke="rgb(128,128,128)" stroke-opacity=".5" d="M -28.3468 96.37898 L -28.3468 0 "/>
<path transform="matrix(1,0,0,-1,142.131,157.231)" d="M -26.93776 73.70186 C -26.93776 74.48004 -27.56862 75.1109 -28.3468 75.1109 C -29.12498 75.1109 -29.75584 74.48004 -29.75584 73.70186 C -29.75584 72.92368 -29.12498 72.29282 -28.3468 72.29282 C -27.56862 72.29282 -26.93776 72.92368 -26.93776 73.70186 Z M -28.3468 73.70186 "/>
<path transform="matrix(1,0,0,-1,142.131,157.231)" d="M -26.93776 79.37114 C -26.93776 80.14932 -27.56862 80.78017 -28.3468 80.78017 C -29.12498 80.78017 -29.75584 80.14932 -29.75584 79.37114 C -29.75584 78.59294 -29.12498 77.9621 -28.3468 77.9621 C -27.56862 77.9621 -26.93776 78.59294 -26.93776 79.37114 Z M -28.3468 79.37114 "/>
<path transform="matrix(1,0,0,-1,142.131,157.231)" d="M -26.93776 85.04042 C -26.93776 85.81862 -27.56862 86.44946 -28.3468 86.44946 C -29.12498 86.44946 -29.75584 85.81862 -29.75584 85.04042 C -29.75584 84.26224 -29.12498 83.63138 -28.3468 83.63138 C -27.56862 83.63138 -26.93776 84.26224 -26.93776 85.04042 Z M -28.3468 85.04042 "/>
<path transform="matrix(1,0,0,-1,142.131,157.231)" d="M -26.93776 8.50412 C -26.93776 9.2823 -27.56862 9.91316 -28.3468 9.91316 C -29.12498 9.91316 -29.75584 9.2823 -29.75584 8.50412 C -29.75584 7.72592 -29.12498 7.09508 -28.3468 7.09508 C -27.56862 7.09508 -26.93776 7.72592 -26.93776 8.50412 Z M -28.3468 8.50412 "/>
<path transform="matrix(1,0,0,-1,142.131,157.231)" d="M -26.93776 14.17339 C -26.93776 14.95158 -27.56862 15.58243 -28.3468 15.58243 C -29.12498 15.58243 -29.75584 14.95158 -29.75584 14.17339 C -29.75584 13.3952 -29.12498 12.76434 -28.3468 12.76434 C -27.56862 12.76434 -26.93776 13.3952 -26.93776 14.17339 Z M -28.3468 14.17339 "/>
<path transform="matrix(1,0,0,-1,142.131,157.231)" d="M -26.93776 25.51193 C -26.93776 26.29013 -27.56862 26.92097 -28.3468 26.92097 C -29.12498 26.92097 -29.75584 26.29013 -29.75584 25.51193 C -29.75584 24.73375 -29.12498 24.10289 -28.3468 24.10289 C -27.56862 24.10289 -26.93776 24.73375 -26.93776 25.51193 Z M -28.3468 25.51193 "/>
<path transform="matrix(1,0,0,-1,142.131,157.231)" d="M -26.93776 34.01608 C -26.93776 34.79427 -27.56862 35.42511 -28.3468 35.42511 C -29.12498 35.42511 -29.75584 34.79427 -29.75584 34.01608 C -29.75584 33.23788 -29.12498 32.60704 -28.3468 32.60704 C -27.56862 32.60704 -26.93776 33.23788 -26.93776 34.01608 Z M -28.3468 34.01608 "/>
<path transform="matrix(1,0,0,-1,142.131,157.231)" d="M -26.93776 42.5202 C -26.93776 43.29839 -27.56862 43.92924 -28.3468 43.92924 C -29.12498 43.92924 -29.75584 43.29839 -29.75584 42.5202 C -29.75584 41.742 -29.12498 41.11116 -28.3468 41.11116 C -27.56862 41.11116 -26.93776 41.742 -26.93776 42.5202 Z M -28.3468 42.5202 "/>
<path transform="matrix(1,0,0,-1,142.131,157.231)" stroke-width="1.1955299" stroke-linecap="butt" stroke-dasharray="1.1955299,1.99255" stroke-miterlimit="10" stroke-linejoin="miter" fill="none" stroke="rgb(0,0,0)" d="M -28.3468 86.64871 L -28.3468 96.37898 "/>
<g>
<path transform="matrix(1,0,0,-1,142.131,157.231)" stroke-width="14.17339" stroke-linecap="round" stroke-miterlimit="10" stroke-linejoin="miter" fill="none" stroke="rgb(128,128,128)" stroke-opacity=".5" d="M -28.3468 10.11241 L -28.3468 40.91191 "/>
</g>
<path transform="matrix(1,0,0,-1,142.131,157.231)" stroke-width=".3985" stroke-linecap="butt" stroke-miterlimit="10" stroke-linejoin="miter" fill="none" stroke="rgb(0,0,0)" d="M -37.42114 -.5702 L -37.42114 51.59453 "/>
<path transform="matrix(1,0,0,-1,142.131,157.231)" stroke-width=".3985" stroke-linecap="butt" stroke-miterlimit="10" stroke-linejoin="miter" fill="none" stroke="rgb(0,0,0)" d="M -19.27246 -.5702 L -19.27246 51.59453 "/>
<text fill-opacity="0" transform="matrix(1,0,-0,1,0,158)" font-size="6.9738503" font-family="QYGBCI+CMR7" x="126.378" y="-24.538">
=
</text>
<use xlink:href="#font_2_3" transform="matrix(6.9738503,0,0,-6.9738503,126.866165,132.65305)"/>
<text fill-opacity="0" transform="matrix(1,0,-0,1,0,158)" font-size="6.9738503" font-family="JXTKHG+CMMI7" x="134.762" y="-24.538">
&#x03c1;
</text>
<symbol id="font_1_3"><path d="M .0040000007 .053000003 C 0 .038000003 0 .033000007 0 .032000005 C 0 .010000005 .018000003 0 .034000006 0 C .07000001 0 .07800001 .030000001 .08500001 .062000006 C .09900001 .114000015 .127 .22800002 .13700001 .26600003 C .14600001 .25100002 .17800002 .20400001 .24700002 .20400001 C .375 .20400001 .51100004 .34000003 .51100004 .48600003 C .51100004 .592 .44 .65500003 .352 .65500003 C .254 .65500003 .13300002 .569 .098000005 .42800003 L .0040000007 .053000003 M .246 .23200002 C .17200002 .23200002 .15 .30600002 .15 .319 C .15 .32100004 .15600002 .34300002 .15900001 .35500002 C .18900001 .47800002 .19500001 .50100005 .22400002 .5450001 C .26 .59800005 .31 .62700003 .35 .62700003 C .391 .62700003 .43 .59800005 .43 .526 C .43 .48000002 .404 .36900002 .373 .319 C .327 .24800003 .277 .23200002 .246 .23200002 Z "/>
</symbol><use xlink:href="#font_1_3" transform="matrix(6.9738503,0,0,-6.9738503,135.11069,134.9544)"/>
<text fill-opacity="0" transform="matrix(1,0,-0,1,0,158)" font-size="4.98132" font-family="NKECHC+CMR5" x="138.895" y="-23.542">
1
</text>
<use xlink:href="#font_3_2" transform="matrix(4.98132,0,0,-4.98132,139.60733,134.45801)"/>
<text fill-opacity="0" transform="matrix(1,0,-0,1,0,158)" font-size="6.9738503" font-family="QYGBCI+CMR7" x="142.784" y="-24.538">
(
</text>
<symbol id="font_2_1"><path d="M .24000001 .9990001 C .050000004 .86500007 0 .653 0 .5 C 0 .35900003 .042000003 .14000002 .24000001 0 C .248 0 .26000002 0 .26000002 .0119999945 C .26000002 .018000007 .257 .019999996 .25 .026999995 C .117000006 .14700001 .06800001 .31700003 .06800001 .499 C .06800001 .76900005 .171 .901 .25300002 .975 C .257 .97900003 .26000002 .98200005 .26000002 .98700005 C .26000002 .9990001 .248 .9990001 .24000001 .9990001 Z "/>
</symbol><use xlink:href="#font_2_1" transform="matrix(6.9738503,0,0,-6.9738503,143.58598,135.1985)"/>
<text fill-opacity="0" transform="matrix(1,0,-0,1,0,158)" font-size="6.9738503" font-family="JXTKHG+CMMI7" x="145.897 151.07857 154.8026" y="-24.538 -24.538 -24.538">
&#x03b1;,&#x03b2;
</text>
<symbol id="font_1_4"><path d="M .09900001 .209 C .09900001 .154 .089 .089999996 .020999998 .025999993 C .017000005 .022 .013999999 .018999994 .013999999 .013999999 C .013999999 .0069999993 .022 0 .027999997 0 C .04200001 0 .127 .08 .127 .199 C .127 .261 .103 .308 .05700001 .308 C .024000004 .308 0 .282 0 .25100002 C 0 .21900001 .023000002 .193 .058 .193 C .082 .193 .098000005 .209 .09900001 .209 Z "/>
</symbol><use xlink:href="#font_1_1" transform="matrix(6.9738503,0,0,-6.9738503,146.32938,133.53174)"/>
<use xlink:href="#font_1_4" transform="matrix(6.9738503,0,0,-6.9738503,151.85963,134.80795)"/>
<use xlink:href="#font_1_2" transform="matrix(6.9738503,0,0,-6.9738503,155.13037,134.81493)"/>
<text fill-opacity="0" transform="matrix(1,0,-0,1,0,158)" font-size="6.9738503" font-family="QYGBCI+CMR7" x="159.679" y="-24.538">
)
</text>
<symbol id="font_2_2"><path d="M .019000001 .9990001 C .012000002 .9990001 0 .9990001 0 .98700005 C 0 .98200005 .0029999986 .97900003 .009000003 .97200006 C .095000006 .89300007 .19100001 .758 .19100001 .5 C .19100001 .291 .12600002 .13300002 .018 .034999996 C .001000002 .018000007 0 .017000005 0 .0119999945 C 0 .0069999993 .0029999986 0 .013000004 0 C .024999999 0 .12000001 .066 .18599999 .19100001 C .23000002 .27400002 .259 .38200003 .259 .499 C .259 .64000005 .21700001 .859 .019000001 .9990001 Z "/>
</symbol><use xlink:href="#font_2_2" transform="matrix(6.9738503,0,0,-6.9738503,160.17415,135.1985)"/>
<text fill-opacity="0" transform="matrix(1,0,-0,1,0,158)" font-size="6.9738503" font-family="JXTKHG+CMMI7" x="138.745" y="-80.542">
C
</text>
<use xlink:href="#font_1_5" transform="matrix(6.9738503,0,0,-6.9738503,139.23317,77.59748)"/>
<text fill-opacity="0" transform="matrix(1,0,-0,1,0,158)" font-size="4.98132" font-family="WXWCLL+CMMI5" x="144.459" y="-79.485">
&#x03b2;
</text>
<use xlink:href="#font_4_1" transform="matrix(4.98132,0,0,-4.98132,144.9123,79.48138)"/>
<text fill-opacity="0" transform="matrix(1,0,-0,1,0,158)" font-size="4.98132" font-family="NKECHC+CMR5" x="148.398" y="-77.99">
3
</text>
<symbol id="font_3_4"><path d="M .25 .35300004 C .342 .35300004 .403 .29600003 .403 .19700001 C .403 .095000006 .34 .041 .25100002 .041 C .24000001 .041 .121 .041 .07 .093 C .11100001 .09900001 .123 .13000001 .123 .154 C .123 .19100001 .095000006 .215 .062 .215 C .030000001 .215 0 .194 0 .15200001 C 0 .048 .11800001 0 .254 0 C .418 0 .52000004 .09900001 .52000004 .19600001 C .52000004 .27800003 .447 .34800002 .333 .37400004 C .45300004 .41300005 .48499998 .48900002 .48499998 .545 C .48499998 .62700003 .38300002 .688 .257 .688 C .134 .688 .034999996 .63600004 .034999996 .54600006 C .034999996 .49900004 .07300001 .48700005 .092 .48700005 C .121 .48700005 .14900002 .508 .14900002 .544 C .14900002 .56700003 .137 .595 .101 .6010001 C .144 .647 .23300001 .65000004 .254 .65000004 C .327 .65000004 .379 .61300004 .379 .545 C .379 .48700005 .34100002 .39600003 .236 .39000005 C .208 .38900003 .204 .38800004 .178 .38700002 C .167 .38600004 .15600002 .38500002 .15600002 .37000003 C .15600002 .35300004 .16600001 .35300004 .18399999 .35300004 L .25 .35300004 Z "/>
</symbol><use xlink:href="#font_3_4" transform="matrix(4.98132,0,0,-4.98132,148.7965,80.11959)"/>
<path transform="matrix(1,0,0,-1,142.131,157.231)" stroke-width=".3985" stroke-linecap="butt" stroke-dasharray="2.98883,2.98883" stroke-miterlimit="10" stroke-linejoin="miter" fill="none" stroke="rgb(0,0,0)" d="M -141.73404 73.70186 L 56.69362 73.70186 "/>
<text fill-opacity="0" transform="matrix(1,0,-0,1,0,158)" font-size="6.9738503" font-family="JXTKHG+CMMI7" x="202.343" y="-72.727">
&#x03b2;
</text>
<use xlink:href="#font_1_2" transform="matrix(6.9738503,0,0,-6.9738503,202.67078,86.62593)"/>
<text fill-opacity="0" transform="matrix(1,0,-0,1,0,158)" font-size="4.98132" font-family="NKECHC+CMR5" x="206.861" y="-71.731">
3
</text>
<use xlink:href="#font_3_4" transform="matrix(4.98132,0,0,-4.98132,207.25949,86.378586)"/>
<path transform="matrix(1,0,0,-1,142.131,157.231)" stroke-width=".3985" stroke-linecap="butt" stroke-miterlimit="10" stroke-linejoin="miter" fill="none" stroke="rgb(128,128,128)" stroke-opacity=".5" d="M 14.17339 73.70186 L 14.17339 0 "/>
<path transform="matrix(1,0,0,-1,142.131,157.231)" d="M 15.58243 62.36288 C 15.58243 63.14108 14.95158 63.77193 14.17339 63.77193 C 13.3952 63.77193 12.76434 63.14108 12.76434 62.36288 C 12.76434 61.5847 13.3952 60.95384 14.17339 60.95384 C 14.95158 60.95384 15.58243 61.5847 15.58243 62.36288 Z M 14.17339 62.36288 "/>
<path transform="matrix(1,0,0,-1,142.131,157.231)" d="M 15.58243 65.19774 C 15.58243 65.97592 14.95158 66.60678 14.17339 66.60678 C 13.3952 66.60678 12.76434 65.97592 12.76434 65.19774 C 12.76434 64.41954 13.3952 63.7887 14.17339 63.7887 C 14.95158 63.7887 15.58243 64.41954 15.58243 65.19774 Z M 14.17339 65.19774 "/>
<path transform="matrix(1,0,0,-1,142.131,157.231)" d="M 15.58243 2.83484 C 15.58243 3.61304 14.95158 4.24388 14.17339 4.24388 C 13.3952 4.24388 12.76434 3.61304 12.76434 2.83484 C 12.76434 2.05666 13.3952 1.4258 14.17339 1.4258 C 14.95158 1.4258 15.58243 2.05666 15.58243 2.83484 Z M 14.17339 2.83484 "/>
<path transform="matrix(1,0,0,-1,142.131,157.231)" d="M 15.58243 36.85092 C 15.58243 37.62912 14.95158 38.25996 14.17339 38.25996 C 13.3952 38.25996 12.76434 37.62912 12.76434 36.85092 C 12.76434 36.07274 13.3952 35.44188 14.17339 35.44188 C 14.95158 35.44188 15.58243 36.07274 15.58243 36.85092 Z M 14.17339 36.85092 "/>
<path transform="matrix(1,0,0,-1,142.131,157.231)" d="M 15.58243 46.77203 C 15.58243 47.550232 14.95158 48.18108 14.17339 48.18108 C 13.3952 48.18108 12.76434 47.550232 12.76434 46.77203 C 12.76434 45.99385 13.3952 45.363 14.17339 45.363 C 14.95158 45.363 15.58243 45.99385 15.58243 46.77203 Z M 14.17339 46.77203 "/>
<path transform="matrix(1,0,0,-1,142.131,157.231)" d="M 15.58243 52.44176 C 15.58243 53.21994 14.95158 53.8508 14.17339 53.8508 C 13.3952 53.8508 12.76434 53.21994 12.76434 52.44176 C 12.76434 51.66356 13.3952 51.03271 14.17339 51.03271 C 14.95158 51.03271 15.58243 51.66356 15.58243 52.44176 Z M 14.17339 52.44176 "/>
<path transform="matrix(1,0,0,-1,142.131,157.231)" stroke-width="1.1955299" stroke-linecap="butt" stroke-dasharray="1.1955299,1.99255" stroke-miterlimit="10" stroke-linejoin="miter" fill="none" stroke="rgb(0,0,0)" d="M 14.17339 66.80603 L 14.17339 73.70186 "/>
<path transform="matrix(1,0,0,-1,142.131,157.231)" stroke-width=".79701" stroke-linecap="butt" stroke-miterlimit="10" stroke-linejoin="miter" fill="none" stroke="rgb(128,128,128)" d="M -113.38724 141.73404 C -111.7927 144.92313 -106.30054 155.90744 -99.21384 155.90744 C -85.04042 155.90744 -74.05612 122.95454 -71.09091 114.05894 "/>
<path transform="matrix(.31656,.94962,.94962,-.31656,71.04007,43.172066)" stroke-width=".6376" stroke-linecap="round" stroke-linejoin="round" fill="none" stroke="rgb(128,128,128)" d="M -1.55415 2.0722 C -1.4246399 1.29512 0 .1295 .38852 0 C 0 -.1295 -1.4246399 -1.29512 -1.55415 -2.0722 "/>
<path transform="matrix(1,0,0,-1,142.131,157.231)" stroke-width=".79701" stroke-linecap="butt" stroke-miterlimit="10" stroke-linejoin="miter" fill="none" stroke="rgb(128,128,128)" d="M -70.867 113.38724 C -69.27248 116.57632 -63.78032 127.56062 -56.69362 127.56062 C -42.52022 127.56062 -31.53592 103.39505 -28.64001 97.02403 "/>
<path transform="matrix(.41452,.91193,.91193,-.41452,113.49098,60.206955)" stroke-width=".6376" stroke-linecap="round" stroke-linejoin="round" fill="none" stroke="rgb(128,128,128)" d="M -1.55415 2.0722 C -1.4246399 1.29512 0 .1295 .38852 0 C 0 -.1295 -1.4246399 -1.29512 -1.55415 -2.0722 "/>
<path transform="matrix(1,0,0,-1,142.131,157.231)" stroke-width=".79701" stroke-linecap="butt" stroke-miterlimit="10" stroke-linejoin="miter" fill="none" stroke="rgb(128,128,128)" d="M -28.3468 96.37898 C -26.75227 99.56807 -21.26012 110.55238 -14.1734 110.55238 C 0 110.55238 10.98427 81.99345 13.91908 74.36308 "/>
<path transform="matrix(.35953,.93478,.93478,-.35953,156.05008,82.867905)" stroke-width=".6376" stroke-linecap="round" stroke-linejoin="round" fill="none" stroke="rgb(128,128,128)" d="M -1.55415 2.0722 C -1.4246399 1.29512 0 .1295 .38852 0 C 0 -.1295 -1.4246399 -1.29512 -1.55415 -2.0722 "/>
<path transform="matrix(1,0,0,-1,142.131,157.231)" stroke-width=".79701" stroke-linecap="butt" stroke-miterlimit="10" stroke-linejoin="miter" fill="none" stroke="rgb(128,128,128)" d="M 14.17339 73.70186 C 15.76793 76.89095 21.26009 87.87526 28.34679 87.87526 "/>
<path transform="matrix(1,0,0,-1,142.131,157.231)" stroke-width=".79701" stroke-linecap="butt" stroke-dasharray=".79701,1.99255" stroke-miterlimit="10" stroke-linejoin="miter" fill="none" stroke="rgb(128,128,128)" d="M 28.34679 87.87526 C 35.43349 87.87526 40.92563 70.30032 42.5202 65.19774 "/>
<path transform="matrix(1,0,0,-1,142.131,157.231)" stroke-width=".79701" stroke-linecap="butt" stroke-miterlimit="10" stroke-linejoin="miter" fill="none" stroke="rgb(128,128,128)" d="M 42.5202 65.19774 L 45.13113 57.36533 "/>
<path transform="matrix(.31656,.94962,.94962,-.31656,187.26212,99.86568)" stroke-width=".6376" stroke-linecap="round" stroke-linejoin="round" fill="none" stroke="rgb(128,128,128)" d="M -1.55415 2.0722 C -1.4246399 1.29512 0 .1295 .38852 0 C 0 -.1295 -1.4246399 -1.29512 -1.55415 -2.0722 "/>
</g>
</svg>
