<?xml version="1.0" encoding="UTF-8"?>
<svg xmlns="http://www.w3.org/2000/svg" xmlns:xlink="http://www.w3.org/1999/xlink" width="196.86pt" height="62.73pt" viewBox="0 0 196.86 62.73" version="1.1">
<defs>
<clipPath id="clip1">
  <path d="M 24 56 L 31 56 L 31 62.730469 L 24 62.730469 Z M 24 56 "/>
</clipPath>
<clipPath id="clip2">
  <path d="M 19 51 L 37 51 L 37 62.730469 L 19 62.730469 Z M 19 51 "/>
</clipPath>
<clipPath id="clip3">
  <path d="M 0 0 L 67 0 L 67 62.730469 L 0 62.730469 Z M 0 0 "/>
</clipPath>
<clipPath id="clip4">
  <path d="M 0 14 L 57 14 L 57 62.730469 L 0 62.730469 Z M 0 14 "/>
</clipPath>
<clipPath id="clip5">
  <path d="M 95 56 L 102 56 L 102 62.730469 L 95 62.730469 Z M 95 56 "/>
</clipPath>
<clipPath id="clip6">
  <path d="M 89 51 L 107 51 L 107 62.730469 L 89 62.730469 Z M 89 51 "/>
</clipPath>
<clipPath id="clip7">
  <path d="M 58 0 L 139 0 L 139 62.730469 L 58 62.730469 Z M 58 0 "/>
</clipPath>
<clipPath id="clip8">
  <path d="M 166 56 L 173 56 L 173 62.730469 L 166 62.730469 Z M 166 56 "/>
</clipPath>
<clipPath id="clip9">
  <path d="M 160 51 L 178 51 L 178 62.730469 L 160 62.730469 Z M 160 51 "/>
</clipPath>
<clipPath id="clip10">
  <path d="M 191 42 L 196.859375 42 L 196.859375 49 L 191 49 Z M 191 42 "/>
</clipPath>
<clipPath id="clip11">
  <path d="M 185 37 L 196.859375 37 L 196.859375 54 L 185 54 Z M 185 37 "/>
</clipPath>
<clipPath id="clip12">
  <path d="M 130 28 L 196.859375 28 L 196.859375 62.730469 L 130 62.730469 Z M 130 28 "/>
</clipPath>
</defs>
<g id="surface1">
<g clip-path="url(#clip1)" clip-rule="nonzero">
<path style=" stroke:none;fill-rule:nonzero;fill:rgb(100%,0%,0%);fill-opacity:1;" d="M 30.382812 59.714844 C 30.382812 58.15625 29.121094 56.894531 27.566406 56.894531 C 26.007812 56.894531 24.746094 58.15625 24.746094 59.714844 C 24.746094 61.269531 26.007812 62.53125 27.566406 62.53125 C 29.121094 62.53125 30.382812 61.269531 30.382812 59.714844 Z M 30.382812 59.714844 "/>
</g>
<g clip-path="url(#clip2)" clip-rule="nonzero">
<path style="fill:none;stroke-width:0.3985;stroke-linecap:butt;stroke-linejoin:miter;stroke:rgb(0%,0%,0%);stroke-opacity:1;stroke-miterlimit:10;" d="M 2.816812 -28.347844 C 2.816812 -26.78925 1.555094 -25.527531 0.00040625 -25.527531 C -1.558188 -25.527531 -2.819906 -26.78925 -2.819906 -28.347844 C -2.819906 -29.902531 -1.558188 -31.16425 0.00040625 -31.16425 C 1.555094 -31.16425 2.816812 -29.902531 2.816812 -28.347844 Z M 2.816812 -28.347844 " transform="matrix(1,0,0,-1,27.566,31.367)"/>
</g>
<path style="fill-rule:nonzero;fill:rgb(0%,0%,100%);fill-opacity:1;stroke-width:0.3985;stroke-linecap:butt;stroke-linejoin:miter;stroke:rgb(0%,0%,0%);stroke-opacity:1;stroke-miterlimit:10;" d="M 27.367594 -14.172063 C 27.367594 -12.617375 26.105875 -11.355656 24.547281 -11.355656 C 22.992594 -11.355656 21.730875 -12.617375 21.730875 -14.172063 C 21.730875 -15.730656 22.992594 -16.992375 24.547281 -16.992375 C 26.105875 -16.992375 27.367594 -15.730656 27.367594 -14.172063 Z M 27.367594 -14.172063 " transform="matrix(1,0,0,-1,27.566,31.367)"/>
<path style="fill-rule:nonzero;fill:rgb(100%,100%,100%);fill-opacity:1;stroke-width:0.3985;stroke-linecap:butt;stroke-linejoin:miter;stroke:rgb(0%,0%,0%);stroke-opacity:1;stroke-miterlimit:10;" d="M 27.367594 14.171687 C 27.367594 15.730281 26.105875 16.992 24.547281 16.992 C 22.992594 16.992 21.730875 15.730281 21.730875 14.171687 C 21.730875 12.617 22.992594 11.355281 24.547281 11.355281 C 26.105875 11.355281 27.367594 12.617 27.367594 14.171687 Z M 27.367594 14.171687 " transform="matrix(1,0,0,-1,27.566,31.367)"/>
<path style="fill-rule:nonzero;fill:rgb(0%,0%,100%);fill-opacity:1;stroke-width:0.3985;stroke-linecap:butt;stroke-linejoin:miter;stroke:rgb(0%,0%,0%);stroke-opacity:1;stroke-miterlimit:10;" d="M 2.816812 28.347469 C 2.816812 29.902156 1.555094 31.163875 0.00040625 31.163875 C -1.558188 31.163875 -2.819906 29.902156 -2.819906 28.347469 C -2.819906 26.788875 -1.558188 25.527156 0.00040625 25.527156 C 1.555094 25.527156 2.816812 26.788875 2.816812 28.347469 Z M 2.816812 28.347469 " transform="matrix(1,0,0,-1,27.566,31.367)"/>
<path style="fill-rule:nonzero;fill:rgb(100%,100%,100%);fill-opacity:1;stroke-width:0.3985;stroke-linecap:butt;stroke-linejoin:miter;stroke:rgb(0%,0%,0%);stroke-opacity:1;stroke-miterlimit:10;" d="M -21.730063 14.171687 C -21.730063 15.730281 -22.991781 16.992 -24.550375 16.992 C -26.105063 16.992 -27.366781 15.730281 -27.366781 14.171687 C -27.366781 12.617 -26.105063 11.355281 -24.550375 11.355281 C -22.991781 11.355281 -21.730063 12.617 -21.730063 14.171687 Z M -21.730063 14.171687 " transform="matrix(1,0,0,-1,27.566,31.367)"/>
<path style="fill-rule:nonzero;fill:rgb(0%,0%,100%);fill-opacity:1;stroke-width:0.3985;stroke-linecap:butt;stroke-linejoin:miter;stroke:rgb(0%,0%,0%);stroke-opacity:1;stroke-miterlimit:10;" d="M -21.730063 -14.172063 C -21.730063 -12.617375 -22.991781 -11.355656 -24.550375 -11.355656 C -26.105063 -11.355656 -27.366781 -12.617375 -27.366781 -14.172063 C -27.366781 -15.730656 -26.105063 -16.992375 -24.550375 -16.992375 C -22.991781 -16.992375 -21.730063 -15.730656 -21.730063 -14.172063 Z M -21.730063 -14.172063 " transform="matrix(1,0,0,-1,27.566,31.367)"/>
<g clip-path="url(#clip3)" clip-rule="nonzero">
<path style="fill:none;stroke-width:1.19553;stroke-linecap:butt;stroke-linejoin:miter;stroke:rgb(0%,0%,100%);stroke-opacity:1;stroke-miterlimit:10;" d="M 2.6215 -26.832219 L 21.926187 -15.687688 M 0.00040625 -25.328313 L 0.00040625 25.327937 M -2.620688 -26.832219 L -21.929281 -15.687688 " transform="matrix(1,0,0,-1,27.566,31.367)"/>
</g>
<g clip-path="url(#clip4)" clip-rule="nonzero">
<path style="fill:none;stroke-width:0.3985;stroke-linecap:butt;stroke-linejoin:miter;stroke:rgb(50%,50%,50%);stroke-opacity:1;stroke-miterlimit:10;" d="M 1.512125 -25.72675 L 23.035562 11.550594 M -1.515219 -25.72675 L -23.03475 11.550594 " transform="matrix(1,0,0,-1,27.566,31.367)"/>
</g>
<g clip-path="url(#clip5)" clip-rule="nonzero">
<path style=" stroke:none;fill-rule:nonzero;fill:rgb(100%,0%,0%);fill-opacity:1;" d="M 101.25 59.714844 C 101.25 58.15625 99.988281 56.894531 98.433594 56.894531 C 96.875 56.894531 95.613281 58.15625 95.613281 59.714844 C 95.613281 61.269531 96.875 62.53125 98.433594 62.53125 C 99.988281 62.53125 101.25 61.269531 101.25 59.714844 Z M 101.25 59.714844 "/>
</g>
<g clip-path="url(#clip6)" clip-rule="nonzero">
<path style="fill:none;stroke-width:0.3985;stroke-linecap:butt;stroke-linejoin:miter;stroke:rgb(0%,0%,0%);stroke-opacity:1;stroke-miterlimit:10;" d="M 73.684 -28.347844 C 73.684 -26.78925 72.422281 -25.527531 70.867594 -25.527531 C 69.309 -25.527531 68.047281 -26.78925 68.047281 -28.347844 C 68.047281 -29.902531 69.309 -31.16425 70.867594 -31.16425 C 72.422281 -31.16425 73.684 -29.902531 73.684 -28.347844 Z M 73.684 -28.347844 " transform="matrix(1,0,0,-1,27.566,31.367)"/>
</g>
<path style="fill-rule:nonzero;fill:rgb(0%,0%,100%);fill-opacity:1;stroke-width:0.3985;stroke-linecap:butt;stroke-linejoin:miter;stroke:rgb(0%,0%,0%);stroke-opacity:1;stroke-miterlimit:10;" d="M 49.137125 -14.172063 C 49.137125 -12.617375 47.875406 -11.355656 46.316812 -11.355656 C 44.762125 -11.355656 43.500406 -12.617375 43.500406 -14.172063 C 43.500406 -15.730656 44.762125 -16.992375 46.316812 -16.992375 C 47.875406 -16.992375 49.137125 -15.730656 49.137125 -14.172063 Z M 49.137125 -14.172063 " transform="matrix(1,0,0,-1,27.566,31.367)"/>
<path style="fill-rule:nonzero;fill:rgb(0%,0%,100%);fill-opacity:1;stroke-width:0.3985;stroke-linecap:butt;stroke-linejoin:miter;stroke:rgb(0%,0%,0%);stroke-opacity:1;stroke-miterlimit:10;" d="M 98.234781 -14.172063 C 98.234781 -12.617375 96.973062 -11.355656 95.414469 -11.355656 C 93.859781 -11.355656 92.598062 -12.617375 92.598062 -14.172063 C 92.598062 -15.730656 93.859781 -16.992375 95.414469 -16.992375 C 96.973062 -16.992375 98.234781 -15.730656 98.234781 -14.172063 Z M 98.234781 -14.172063 " transform="matrix(1,0,0,-1,27.566,31.367)"/>
<path style="fill-rule:nonzero;fill:rgb(0%,0%,100%);fill-opacity:1;stroke-width:0.3985;stroke-linecap:butt;stroke-linejoin:miter;stroke:rgb(0%,0%,0%);stroke-opacity:1;stroke-miterlimit:10;" d="M 73.684 28.347469 C 73.684 29.902156 72.422281 31.163875 70.867594 31.163875 C 69.309 31.163875 68.047281 29.902156 68.047281 28.347469 C 68.047281 26.788875 69.309 25.527156 70.867594 25.527156 C 72.422281 25.527156 73.684 26.788875 73.684 28.347469 Z M 73.684 28.347469 " transform="matrix(1,0,0,-1,27.566,31.367)"/>
<path style="fill:none;stroke-width:0.19925;stroke-linecap:butt;stroke-linejoin:miter;stroke:rgb(0%,0%,100%);stroke-opacity:1;stroke-miterlimit:10;" d="M 68.2465 -26.832219 L 48.937906 -15.687688 M 73.488687 -26.832219 L 92.793375 -15.687688 M 70.867594 -25.328313 L 70.867594 25.327937 " transform="matrix(1,0,0,-1,27.566,31.367)"/>
<g clip-path="url(#clip7)" clip-rule="nonzero">
<path style="fill:none;stroke-width:1.19553;stroke-linecap:butt;stroke-linejoin:miter;stroke:rgb(100%,0%,0%);stroke-opacity:1;stroke-dasharray:2.98883,2.98883;stroke-miterlimit:10;" d="M 69.351969 25.726375 L 47.832437 -11.550969 M 49.336344 -14.172063 L 92.398844 -14.172063 M 93.90275 -11.550969 L 72.379312 25.726375 " transform="matrix(1,0,0,-1,27.566,31.367)"/>
</g>
<g clip-path="url(#clip8)" clip-rule="nonzero">
<path style=" stroke:none;fill-rule:nonzero;fill:rgb(100%,0%,0%);fill-opacity:1;" d="M 172.117188 59.714844 C 172.117188 58.15625 170.855469 56.894531 169.300781 56.894531 C 167.742188 56.894531 166.480469 58.15625 166.480469 59.714844 C 166.480469 61.269531 167.742188 62.53125 169.300781 62.53125 C 170.855469 62.53125 172.117188 61.269531 172.117188 59.714844 Z M 172.117188 59.714844 "/>
</g>
<g clip-path="url(#clip9)" clip-rule="nonzero">
<path style="fill:none;stroke-width:0.3985;stroke-linecap:butt;stroke-linejoin:miter;stroke:rgb(0%,0%,0%);stroke-opacity:1;stroke-miterlimit:10;" d="M 144.551187 -28.347844 C 144.551187 -26.78925 143.289469 -25.527531 141.734781 -25.527531 C 140.176187 -25.527531 138.914469 -26.78925 138.914469 -28.347844 C 138.914469 -29.902531 140.176187 -31.16425 141.734781 -31.16425 C 143.289469 -31.16425 144.551187 -29.902531 144.551187 -28.347844 Z M 144.551187 -28.347844 " transform="matrix(1,0,0,-1,27.566,31.367)"/>
</g>
<path style="fill-rule:nonzero;fill:rgb(0%,0%,100%);fill-opacity:1;stroke-width:0.3985;stroke-linecap:butt;stroke-linejoin:miter;stroke:rgb(0%,0%,0%);stroke-opacity:1;stroke-miterlimit:10;" d="M 120.004312 -14.172063 C 120.004312 -12.617375 118.742594 -11.355656 117.184 -11.355656 C 115.629312 -11.355656 114.367594 -12.617375 114.367594 -14.172063 C 114.367594 -15.730656 115.629312 -16.992375 117.184 -16.992375 C 118.742594 -16.992375 120.004312 -15.730656 120.004312 -14.172063 Z M 120.004312 -14.172063 " transform="matrix(1,0,0,-1,27.566,31.367)"/>
<g clip-path="url(#clip10)" clip-rule="nonzero">
<path style=" stroke:none;fill-rule:nonzero;fill:rgb(0%,0%,100%);fill-opacity:1;" d="M 196.667969 45.539062 C 196.667969 43.984375 195.40625 42.722656 193.847656 42.722656 C 192.292969 42.722656 191.03125 43.984375 191.03125 45.539062 C 191.03125 47.097656 192.292969 48.359375 193.847656 48.359375 C 195.40625 48.359375 196.667969 47.097656 196.667969 45.539062 Z M 196.667969 45.539062 "/>
</g>
<g clip-path="url(#clip11)" clip-rule="nonzero">
<path style="fill:none;stroke-width:0.3985;stroke-linecap:butt;stroke-linejoin:miter;stroke:rgb(0%,0%,0%);stroke-opacity:1;stroke-miterlimit:10;" d="M 169.101969 -14.172063 C 169.101969 -12.617375 167.84025 -11.355656 166.281656 -11.355656 C 164.726969 -11.355656 163.46525 -12.617375 163.46525 -14.172063 C 163.46525 -15.730656 164.726969 -16.992375 166.281656 -16.992375 C 167.84025 -16.992375 169.101969 -15.730656 169.101969 -14.172063 Z M 169.101969 -14.172063 " transform="matrix(1,0,0,-1,27.566,31.367)"/>
</g>
<path style="fill-rule:nonzero;fill:rgb(0%,0%,100%);fill-opacity:1;stroke-width:0.3985;stroke-linecap:butt;stroke-linejoin:miter;stroke:rgb(0%,0%,0%);stroke-opacity:1;stroke-miterlimit:10;" d="M 144.551187 28.347469 C 144.551187 29.902156 143.289469 31.163875 141.734781 31.163875 C 140.176187 31.163875 138.914469 29.902156 138.914469 28.347469 C 138.914469 26.788875 140.176187 25.527156 141.734781 25.527156 C 143.289469 25.527156 144.551187 26.788875 144.551187 28.347469 Z M 144.551187 28.347469 " transform="matrix(1,0,0,-1,27.566,31.367)"/>
<g clip-path="url(#clip12)" clip-rule="nonzero">
<path style="fill:none;stroke-width:1.19553;stroke-linecap:butt;stroke-linejoin:miter;stroke:rgb(0%,0%,100%);stroke-opacity:1;stroke-miterlimit:10;" d="M 139.113687 -26.832219 L 119.805094 -15.687688 M 144.355875 -26.832219 L 163.660562 -15.687688 M 120.203531 -14.172063 L 163.266031 -14.172063 " transform="matrix(1,0,0,-1,27.566,31.367)"/>
</g>
<path style="fill:none;stroke-width:0.19925;stroke-linecap:butt;stroke-linejoin:miter;stroke:rgb(0%,0%,100%);stroke-opacity:1;stroke-miterlimit:10;" d="M 141.734781 -25.328313 L 141.734781 25.327937 " transform="matrix(1,0,0,-1,27.566,31.367)"/>
<path style="fill:none;stroke-width:0.19925;stroke-linecap:butt;stroke-linejoin:miter;stroke:rgb(100%,0%,0%);stroke-opacity:1;stroke-dasharray:2.98883,2.98883;stroke-miterlimit:10;" d="M 140.219156 25.726375 L 118.699625 -11.550969 M 164.769937 -11.550969 L 143.2465 25.726375 " transform="matrix(1,0,0,-1,27.566,31.367)"/>
</g>
</svg>
