<?xml version="1.0" standalone="no"?>
<!DOCTYPE svg PUBLIC "-//W3C//DTD SVG 1.1//EN" "http://www.w3.org/Graphics/SVG/1.1/DTD/svg11.dtd">
<svg xmlns="http://www.w3.org/2000/svg" xmlns:xlink="http://www.w3.org/1999/xlink" version="1.1" width="3.2455556cm" height="2.5752778cm" viewBox="0 0 92 73">
<clipPath id="cp0">
<path transform="matrix(1,0,0,-1,-78,792)" d="M 0 0 L 612 0 L 612 792 L 0 792 Z "/>
</clipPath>
<g clip-path="url(#cp0)">
<path transform="matrix(1,0,0,-1,67.659,-76.731995)" d="M 15.28687 -92.49536 C 32.44432 -57.31743 39.50877 -25.4628 31.066 -21.34499 C 22.62321 -17.22716 1.87068 -42.40562 -15.28677 -77.58356 C -32.44424 -112.7615 -39.50868 -144.61612 -31.0659 -148.73395 C -22.62312 -152.85176 -1.87059 -127.67331 15.28687 -92.49536 Z M .00003 -85.03946 " fill="rgb(128,128,128)" fill-opacity=".5"/>
<text fill-opacity="0" transform="matrix(1,0,-0,1,-78,792)" font-size="11.95517" font-family="CNDWZC+CMMI12" x="98.136" y="-782.016">
r
</text>
<symbol id="font_1_4"><path d="M .36200002 .419 C .331 .41300002 .315 .391 .315 .36900002 C .315 .345 .33400002 .337 .34800002 .337 C .37600002 .337 .39900002 .361 .39900002 .391 C .39900002 .423 .368 .451 .31800002 .451 C .278 .451 .23200001 .433 .19000001 .372 C .18300001 .425 .143 .451 .10300001 .451 C .064 .451 .044 .421 .032000005 .39900002 C .015000002 .363 0 .303 0 .298 C 0 .294 .0040000007 .289 .011000002 .289 C .019000003 .289 .020000001 .29 .026000002 .313 C .041 .373 .060000002 .43100002 .1 .43100002 C .124000005 .43100002 .13100001 .414 .13100001 .38500002 C .13100001 .363 .121 .324 .114 .293 L .086 .18500002 C .082 .16600001 .071 .12100001 .066 .103 C .059 .077 .048 .030000001 .048 .025000002 C .048 .011000001 .059 0 .074 0 C .085 0 .10400001 .0070000007 .11000001 .027000003 C .113 .035 .15 .18600002 .15600002 .20900002 C .16100001 .23100002 .16700001 .252 .17200002 .274 C .17600001 .28800002 .18000002 .304 .18300001 .317 C .18600002 .326 .21300001 .375 .23800002 .397 C .25 .40800002 .276 .43100002 .317 .43100002 C .333 .43100002 .349 .428 .36200002 .419 Z "/>
</symbol><use xlink:href="#font_1_4" transform="matrix(11.95517,0,0,-11.95517,20.458792,10.10356)"/>
<text fill-opacity="0" transform="matrix(1,0,-0,1,-78,792)" font-size="7.97011" font-family="PVPDHM+CMR8" x="103.411" y="-780.222">
2
</text>
<symbol id="font_2_3"><path d="M .229 .20400001 C .245 .21900001 .287 .252 .303 .266 C .365 .323 .42400002 .37800002 .42400002 .469 C .42400002 .588 .324 .665 .199 .665 C .078999996 .665 0 .574 0 .485 C 0 .43600002 .039000005 .42900002 .053000003 .42900002 C .074 .42900002 .105000004 .44400004 .105000004 .48200002 C .105000004 .53400004 .055 .53400004 .042999998 .53400004 C .072 .60700005 .139 .632 .18800001 .632 C .28100002 .632 .32900003 .55300003 .32900003 .469 C .32900003 .365 .256 .289 .13800001 .16800001 L .012000002 .038000003 C 0 .027 0 .025 0 0 L .395 0 L .42400002 .179 L .393 .179 C .39000002 .15900001 .38200003 .109000005 .37 .09 C .36400002 .082 .28800002 .082 .272 .082 L .094 .082 L .229 .20400001 Z "/>
</symbol><use xlink:href="#font_2_3" transform="matrix(7.97011,0,0,-7.97011,25.83342,11.778015)"/>
<path transform="matrix(1,0,0,-1,67.659,-76.731995)" stroke-width=".3985" stroke-linecap="butt" stroke-miterlimit="10" stroke-linejoin="miter" fill="none" stroke="rgb(0,0,0)" d="M -25.08617 -50.1745 L -38.69444 -77.38615 "/>
<text fill-opacity="0" transform="matrix(.5,-.86603,.86603,.5,596.95166,492.90503)" font-size="11.95517" font-family="CNDWZC+CMMI12" x="78.45 83.68636 88.934685" y="-734.07 -734.07 -734.07">
...
</text>
<symbol id="font_1_1"><path d="M .09700001 .048 C .09700001 .07700001 .07300001 .097 .049000002 .097 C .020000003 .097 0 .07300001 0 .049000002 C 0 .020000001 .024000004 0 .048 0 C .077 0 .09700001 .024 .09700001 .048 Z "/>
</symbol><use xlink:href="#font_1_1" transform="matrix(5.977585,-10.353536,-10.353536,-5.977585,.97006214,57.029236)"/>
<use xlink:href="#font_1_1" transform="matrix(5.977585,-10.353536,-10.353536,-5.977585,3.5882874,52.494385)"/>
<use xlink:href="#font_1_1" transform="matrix(5.977585,-10.353536,-10.353536,-5.977585,6.212433,47.949158)"/>
<path transform="matrix(1,0,0,-1,67.659,-76.731995)" stroke-width=".3985" stroke-linecap="butt" stroke-miterlimit="10" stroke-linejoin="miter" fill="none" stroke="rgb(0,0,0)" d="M -46.34673 -92.69472 L -58.38107 -116.7634 "/>
<text fill-opacity="0" transform="matrix(1,0,-0,1,-78,792)" font-size="11.95517" font-family="CNDWZC+CMMI12" x="119.095" y="-739.762">
p
</text>
<symbol id="font_1_3"><path d="M .074 .067 C .067 .037 .063 .029 .022 .029 C .01 .029 0 .029 0 .00999999 C 0 .008000001 .0010000002 0 .012 0 C .025000002 0 .039 .002000004 .052 .002000004 L .095000006 .002000004 C .116000004 .002000004 .16700001 0 .18800001 0 C .194 0 .20600002 0 .20600002 .017999992 C .20600002 .029 .19900002 .029 .18200001 .029 C .136 .029 .133 .036 .133 .044 C .133 .055999994 .178 .22800002 .18400002 .25100002 C .19500001 .223 .22200002 .184 .27400002 .184 C .387 .184 .509 .33100003 .509 .47800002 C .509 .57000005 .45700002 .635 .382 .635 C .318 .635 .264 .573 .25300002 .559 C .24500002 .609 .20600002 .635 .16600001 .635 C .13700001 .635 .11400001 .62100005 .095000006 .58300006 C .07700001 .54700005 .063 .48600003 .063 .48200002 C .063 .47800002 .067 .47300002 .074 .47300002 C .082 .47300002 .083000004 .474 .089 .497 C .10400001 .556 .12300001 .615 .163 .615 C .186 .615 .194 .59900004 .194 .569 C .194 .545 .19100001 .535 .187 .517 L .074 .067 M .24700001 .50600004 C .254 .53400004 .282 .563 .298 .577 C .30900002 .587 .342 .615 .38 .615 C .424 .615 .444 .571 .444 .51900005 C .444 .47100002 .416 .358 .391 .306 C .366 .252 .32 .20400001 .27400002 .20400001 C .20600002 .20400001 .19500001 .29000002 .19500001 .294 C .19500001 .29700002 .19700001 .305 .19800001 .31 L .24700001 .50600004 Z "/>
</symbol><use xlink:href="#font_1_3" transform="matrix(11.95517,0,0,-11.95517,40.724392,54.557278)"/>
<text fill-opacity="0" transform="matrix(1,0,-0,1,-78,792)" font-size="7.97011" font-family="PVPDHM+CMR8" x="124.971" y="-737.968">
2
</text>
<use xlink:href="#font_2_3" transform="matrix(7.97011,0,0,-7.97011,47.393417,54.031982)"/>
<path transform="matrix(1,0,0,-1,67.659,-76.731995)" stroke-width=".3985" stroke-linecap="butt" stroke-miterlimit="10" stroke-linejoin="miter" fill="none" stroke="rgb(0,0,0)" d="M -38.6928 -92.69472 L -25.21855 -119.6407 "/>
<text fill-opacity="0" transform="matrix(1,0,-0,1,-78,792)" font-size="11.95517" font-family="CNDWZC+CMMI12" x="140.355" y="-782.281">
p
</text>
<use xlink:href="#font_1_3" transform="matrix(11.95517,0,0,-11.95517,61.984386,12.038298)"/>
<text fill-opacity="0" transform="matrix(1,0,-0,1,-78,792)" font-size="7.97011" font-family="PVPDHM+CMR8" x="146.23" y="-780.488">
1
</text>
<symbol id="font_2_2"><path d="M .21800001 .637 C .21800001 .66400003 .216 .665 .18900003 .665 C .14800002 .625 .09500001 .601 0 .601 L 0 .568 C .027000003 .568 .081 .568 .13900001 .595 L .13900001 .082 C .13900001 .045 .136 .033 .04100001 .033 L .0060000047 .033 L .0060000047 0 C .047000006 .003 .13300002 .003 .17800002 .003 C .223 .003 .31 .003 .351 0 L .351 .033 L .31600004 .033 C .221 .033 .21800001 .045 .21800001 .082 L .21800001 .637 Z "/>
</symbol><use xlink:href="#font_2_2" transform="matrix(7.97011,0,0,-7.97011,68.995125,11.512024)"/>
<path transform="matrix(1,0,0,-1,67.659,-76.731995)" stroke-width=".3985" stroke-linecap="butt" stroke-miterlimit="10" stroke-linejoin="miter" fill="none" stroke="rgb(0,0,0)" d="M -17.43271 -50.1745 L -3.9584699 -77.12048 "/>
<text fill-opacity="0" transform="matrix(1,0,-0,1,-78,792)" font-size="11.95517" font-family="IOPLJO+CMSY10" x="119.75" y="-779.542">
&#x22a5;
</text>
<symbol id="font_3_1"><path d="M .354 .632 C .354 .65000004 .354 .66800004 .33400002 .66800004 C .314 .66800004 .314 .647 .314 .632 L .314 .040000003 L .036000002 .040000003 C .021000002 .040000003 0 .040000003 0 .020000001 C 0 0 .021000002 0 .036000002 0 L .633 0 C .65000004 0 .66800004 0 .66800004 .020000001 C .66800004 .040000003 .65000004 .040000003 .633 .040000003 L .354 .040000003 L .354 .632 Z "/>
</symbol><use xlink:href="#font_3_1" transform="matrix(11.95517,0,0,-11.95517,42.407536,12.458008)"/>
<text fill-opacity="0" transform="matrix(1,0,-0,1,-78.00001,792)" font-size="11.95517" font-family="CNDWZC+CMMI12" x="161.315" y="-759.564">
A
</text>
<symbol id="font_1_2"><path d="M .136 .11100001 C .101 .052 .067 .032 .019000001 .029000001 C .008000001 .028 0 .028 0 .010000001 C 0 .004 .004999999 0 .012000002 0 C .030000001 0 .075 .002 .093 .002 C .122 .002 .15400001 0 .18200001 0 C .18800002 0 .20000002 0 .20000002 .019000001 C .20000002 .028 .192 .029000001 .18600002 .029000001 C .16300002 .031000001 .144 .039 .144 .063 C .144 .07700001 .15 .08800001 .16300002 .11000001 L .239 .23600002 L .494 .23600002 C .49500003 .22700001 .49500003 .21900001 .49600002 .21000001 C .49900004 .18400002 .51100004 .080000006 .51100004 .061000004 C .51100004 .031000001 .46 .029000001 .444 .029000001 C .433 .029000001 .42200002 .029000001 .42200002 .011000001 C .42200002 0 .43100002 0 .437 0 C .45400003 0 .474 .002 .49100003 .002 L .54800004 .002 C .609 .002 .65300006 0 .65400004 0 C .6610001 0 .67200005 0 .67200005 .019000001 C .67200005 .029000001 .66300005 .029000001 .64800006 .029000001 C .59300005 .029000001 .59200007 .038000003 .58900005 .068 L .52800006 .69200003 C .526 .712 .5220001 .71400005 .51100004 .71400005 C .50100005 .71400005 .49500003 .712 .48600003 .697 L .136 .11100001 M .256 .26500002 L .45700002 .601 L .49100003 .26500002 L .256 .26500002 Z "/>
</symbol><use xlink:href="#font_1_2" transform="matrix(11.95517,0,0,-11.95517,83.72147,32.435974)"/>
</g>
</svg>
