<?xml version="1.0" standalone="no"?>
<!DOCTYPE svg PUBLIC "-//W3C//DTD SVG 1.1//EN" "http://www.w3.org/Graphics/SVG/1.1/DTD/svg11.dtd">
<svg xmlns="http://www.w3.org/2000/svg" xmlns:xlink="http://www.w3.org/1999/xlink" version="1.1" width="3.5983334cm" height="5.362222cm" viewBox="0 0 102 152">
<clipPath id="cp0">
<path transform="matrix(1,0,0,-1,-5,152)" d="M 0 0 L 111.185 0 L 111.185 154.944 L 0 154.944 Z "/>
</clipPath>
<g clip-path="url(#cp0)">
<path transform="matrix(1,0,0,-1,66.676,3.2680054)" d="M 15.28687 -92.49536 C 32.44432 -57.31743 39.50877 -25.4628 31.066 -21.34499 C 22.62321 -17.22716 1.87068 -42.40562 -15.28677 -77.58356 C -32.44424 -112.7615 -39.50868 -144.61612 -31.0659 -148.73395 C -22.62312 -152.85176 -1.87059 -127.67331 15.28687 -92.49536 Z M .00003 -85.03946 " fill="rgb(128,128,128)" fill-opacity=".5"/>
<text fill-opacity="0" transform="matrix(1,0,-0,1,-4.999996,152)" font-size="9.96264" font-family="CIKBNM+CMMI10" x="58.167" y="-147.334">
r
</text>
<symbol id="font_1_4"><path d="M .059000008 .07000001 C .056 .055000003 .050000004 .032 .050000004 .027000003 C .050000004 .009000001 .064 0 .079 0 C .091000006 0 .10900001 .008000001 .11600001 .028 C .118 .032 .15200001 .16800001 .156 .18600002 C .164 .21900001 .18200001 .28900003 .18800001 .316 C .19200002 .32900003 .22000001 .37600002 .244 .39800003 C .252 .40500003 .281 .43100002 .324 .43100002 C .35 .43100002 .365 .41900003 .366 .41900003 C .336 .41400003 .314 .39000002 .314 .36400002 C .314 .34800002 .325 .32900003 .352 .32900003 C .379 .32900003 .407 .35200003 .407 .388 C .407 .42300004 .375 .45300004 .324 .45300004 C .259 .45300004 .21500002 .404 .19600001 .37600002 C .18800001 .42100003 .15200001 .45300004 .105000004 .45300004 C .059000008 .45300004 .040000007 .41400003 .031000001 .39600003 C .013000002 .36200002 0 .30200002 0 .29900002 C 0 .28900003 .01 .28900003 .012 .28900003 C .022000002 .28900003 .023 .29000002 .029000001 .31200004 C .046000004 .38300002 .06600001 .43100002 .10200001 .43100002 C .119 .43100002 .133 .42300004 .133 .38500002 C .133 .36400002 .13000001 .35300002 .11700001 .30100003 L .059000008 .07000001 Z "/>
</symbol><use xlink:href="#font_1_4" transform="matrix(9.96264,0,0,-9.96264,53.45592,4.7755895)"/>
<text fill-opacity="0" transform="matrix(1,0,-0,1,-4.999996,152)" font-size="6.9738503" font-family="ZEOTZW+CMR7" x="62.662" y="-145.84">
0
</text>
<symbol id="font_2_1"><path d="M .46400005 .33900002 C .46400005 .44900003 .45100003 .528 .40500003 .598 C .374 .644 .31200004 .684 .23200001 .684 C 0 .684 0 .41100004 0 .33900002 C 0 .26700002 0 0 .23200001 0 C .46400005 0 .46400005 .26700002 .46400005 .33900002 M .23200001 .028 C .186 .028 .125 .055 .105000004 .13700001 C .091000006 .19600001 .091000006 .27800003 .091000006 .35200003 C .091000006 .42500004 .091000006 .50100005 .106000006 .556 C .127 .635 .19100001 .656 .23200001 .656 C .286 .656 .338 .623 .356 .565 C .37200004 .51100004 .37300003 .43900004 .37300003 .35200003 C .37300003 .27800003 .37300003 .20400001 .36 .141 C .34000003 .050000004 .272 .028 .23200001 .028 Z "/>
</symbol><use xlink:href="#font_2_1" transform="matrix(6.9738503,0,0,-6.9738503,58.024643,6.2994804)"/>
<text fill-opacity="0" transform="matrix(1,0,-0,1,-4.999996,152)" font-size="9.96264" font-family="JHYTSG+CMR10" x="69.898" y="-147.334">
=
</text>
<symbol id="font_3_1"><path d="M .63100004 .19400002 C .646 .19400002 .665 .19400002 .665 .214 C .665 .23400001 .646 .23400001 .632 .23400001 L .033 .23400001 C .019000001 .23400001 0 .23400001 0 .214 C 0 .19400002 .019000001 .19400002 .034 .19400002 L .63100004 .19400002 M .632 0 C .646 0 .665 0 .665 .02000001 C .665 .040000007 .646 .040000007 .63100004 .040000007 L .034 .040000007 C .019000001 .040000007 0 .040000007 0 .02000001 C 0 0 .019000001 0 .033 0 L .632 0 Z "/>
</symbol><use xlink:href="#font_3_1" transform="matrix(9.96264,0,0,-9.96264,65.45592,3.340969)"/>
<text fill-opacity="0" transform="matrix(1,0,-0,1,-4.999996,152)" font-size="9.96264" font-family="CIKBNM+CMMI10" x="80.414" y="-147.334">
r
</text>
<use xlink:href="#font_1_4" transform="matrix(9.96264,0,0,-9.96264,75.70292,4.7755895)"/>
<text fill-opacity="0" transform="matrix(1,0,-0,1,-4.999996,152)" font-size="9.96264" font-family="CIKBNM+CMMI10" x="45.935" y="-104.815">
r
</text>
<use xlink:href="#font_1_4" transform="matrix(9.96264,0,0,-9.96264,41.223923,47.294586)"/>
<text fill-opacity="0" transform="matrix(1,0,-0,1,-4.999996,152)" font-size="6.9738503" font-family="ZEOTZW+CMR7" x="50.429" y="-103.32">
1
</text>
<symbol id="font_2_2"><path d="M .22600001 .63600004 C .22600001 .66300005 .224 .66400003 .19600001 .66400003 C .132 .601 .041 .6 0 .6 L 0 .564 C .023999996 .564 .09000001 .564 .14500001 .592 L .14500001 .082 C .14500001 .049000002 .14500001 .036000002 .04500001 .036000002 L .0069999993 .036000002 L .0069999993 0 C .024999999 .001 .148 .004 .185 .004 C .21600002 .004 .34200004 .001 .36400002 0 L .36400002 .036000002 L .32600003 .036000002 C .22600001 .036000002 .22600001 .049000002 .22600001 .082 L .22600001 .63600004 Z "/>
</symbol><use xlink:href="#font_2_2" transform="matrix(6.9738503,0,0,-6.9738503,46.189156,48.68)"/>
<path transform="matrix(1,0,0,-1,66.676,3.2680054)" stroke-width=".3985" stroke-linecap="butt" stroke-miterlimit="10" stroke-linejoin="miter" fill="none" stroke="rgb(0,0,0)" d="M -3.2056699 -6.41176 L -18.05539 -36.10844 "/>
<text fill-opacity="0" transform="matrix(1,0,-0,1,-4.999996,152)" font-size="9.96264" font-family="CIKBNM+CMMI10" x="24.675" y="-62.295">
r
</text>
<use xlink:href="#font_1_4" transform="matrix(9.96264,0,0,-9.96264,19.963919,89.81459)"/>
<text fill-opacity="0" transform="matrix(1,0,-0,1,-4.999996,152)" font-size="6.9738503" font-family="ZEOTZW+CMR7" x="29.17" y="-60.801">
2
</text>
<symbol id="font_2_3"><path d="M .442 .18200001 L .40800002 .18200001 C .40500003 .16000001 .39500004 .101 .38200003 .091000006 C .374 .085 .29700002 .085 .28300002 .085 L .099 .085 C .20400003 .178 .23900002 .20600002 .29900002 .25300002 C .37300003 .312 .442 .374 .442 .469 C .442 .59000003 .33600003 .66400003 .20800003 .66400003 C .084 .66400003 0 .577 0 .485 C 0 .43400002 .043000005 .42900002 .053000003 .42900002 C .077 .42900002 .10600001 .446 .10600001 .48200002 C .10600001 .5 .099 .535 .047000006 .535 C .078 .606 .146 .628 .19300002 .628 C .293 .628 .34500003 .55 .34500003 .469 C .34500003 .38200003 .28300002 .31300002 .25100002 .277 L .010000005 .039 C 0 .030000001 0 .028 0 0 L .41200003 0 L .442 .18200001 Z "/>
</symbol><use xlink:href="#font_2_3" transform="matrix(6.9738503,0,0,-6.9738503,24.609356,91.199005)"/>
<path transform="matrix(1,0,0,-1,66.676,3.2680054)" stroke-width=".3985" stroke-linecap="butt" stroke-miterlimit="10" stroke-linejoin="miter" fill="none" stroke="rgb(0,0,0)" d="M -24.46577 -48.93198 L -39.31548 -78.62866 "/>
<text fill-opacity="0" transform="matrix(.5,-.86603,.86603,.5,11.473464,148.77876)" font-size="9.96264" font-family="CIKBNM+CMMI10" x="5.447 9.870412 14.303787" y="-15.877 -15.877 -15.877">
...
</text>
<symbol id="font_1_1"><path d="M .106 .053000003 C .106 .082 .08200001 .106000006 .05300001 .106000006 C .024000004 .106000006 0 .082 0 .053000003 C 0 .024 .024000004 0 .05300001 0 C .08200001 0 .106 .024 .106 .053000003 Z "/>
</symbol><use xlink:href="#font_1_1" transform="matrix(4.98132,-8.627945,-8.627945,-4.98132,.8753997,135.381)"/>
<use xlink:href="#font_1_1" transform="matrix(4.98132,-8.627945,-8.627945,-4.98132,3.087105,131.55019)"/>
<use xlink:href="#font_1_1" transform="matrix(4.98132,-8.627945,-8.627945,-4.98132,5.303793,127.710754)"/>
<path transform="matrix(1,0,0,-1,66.676,3.2680054)" stroke-width=".3985" stroke-linecap="butt" stroke-miterlimit="10" stroke-linejoin="miter" fill="none" stroke="rgb(0,0,0)" d="M -45.72527 -91.45221 L -59.59927 -119.19955 "/>
<text fill-opacity="0" transform="matrix(1,0,-0,1,-4.999996,152)" font-size="9.96264" font-family="CIKBNM+CMMI10" x="45.676" y="-19.997">
p
</text>
<symbol id="font_1_3"><path d="M .07700001 .072 C .069000006 .038000003 .067 .031000003 .023000002 .031000003 C .011 .031000003 0 .031000003 0 .0119999945 C 0 .003999993 .005000001 0 .013 0 C .040000003 0 .069000006 .0029999912 .097 .0029999912 C .13000001 .0029999912 .164 0 .19600001 0 C .20100002 0 .21400002 0 .21400002 .019999996 C .21400002 .031000003 .20400001 .031000003 .19000001 .031000003 C .14 .031000003 .14 .038000003 .14 .047000006 C .14 .059 .18200001 .222 .18900001 .24700001 C .202 .21800001 .23000002 .183 .28100002 .183 C .397 .183 .522 .329 .522 .476 C .522 .57000005 .46500003 .63600004 .38900003 .63600004 C .33900002 .63600004 .291 .6 .25800002 .561 C .24800001 .615 .20500001 .63600004 .16800001 .63600004 C .12200001 .63600004 .103 .597 .094000004 .579 C .076000005 .545 .063 .485 .063 .48200002 C .063 .47200003 .073 .47200003 .075 .47200003 C .08500001 .47200003 .086 .47300002 .09200001 .49500003 C .10900001 .566 .12900001 .614 .165 .614 C .18200001 .614 .19600001 .60600007 .19600001 .568 C .19600001 .545 .19300002 .53400004 .18900001 .517 L .07700001 .072 M .25300002 .50600004 C .26000002 .533 .28700003 .561 .305 .57600003 C .34000003 .607 .36900002 .614 .386 .614 C .42600003 .614 .45000002 .579 .45000002 .52 C .45000002 .46100003 .41700003 .34600002 .39900002 .30800003 C .365 .238 .31700003 .20500001 .28 .20500001 C .21400002 .20500001 .20100002 .28800002 .20100002 .294 C .20100002 .296 .20100002 .298 .20400001 .31 L .25300002 .50600004 Z "/>
</symbol><use xlink:href="#font_1_3" transform="matrix(9.96264,0,0,-9.96264,40.357197,133.93576)"/>
<text fill-opacity="0" transform="matrix(1,0,-0,1,-4.999996,152)" font-size="6.9738503" font-family="ZEOTZW+CMR7" x="50.688" y="-18.502">
2
</text>
<use xlink:href="#font_2_3" transform="matrix(6.9738503,0,0,-6.9738503,46.127357,133.498)"/>
<path transform="matrix(1,0,0,-1,66.676,3.2680054)" stroke-width=".3985" stroke-linecap="butt" stroke-miterlimit="10" stroke-linejoin="miter" fill="none" stroke="rgb(0,0,0)" d="M -39.31479 -91.45221 L -24.57541 -120.92749 "/>
<text fill-opacity="0" transform="matrix(1,0,-0,1,-4.9999924,152)" font-size="9.96264" font-family="CIKBNM+CMMI10" x="66.936" y="-62.517">
p
</text>
<use xlink:href="#font_1_3" transform="matrix(9.96264,0,0,-9.96264,61.6172,91.41576)"/>
<text fill-opacity="0" transform="matrix(1,0,-0,1,-4.9999924,152)" font-size="6.9738503" font-family="ZEOTZW+CMR7" x="71.948" y="-61.022">
1
</text>
<use xlink:href="#font_2_2" transform="matrix(6.9738503,0,0,-6.9738503,67.70815,90.978)"/>
<path transform="matrix(1,0,0,-1,66.676,3.2680054)" stroke-width=".3985" stroke-linecap="butt" stroke-miterlimit="10" stroke-linejoin="miter" fill="none" stroke="rgb(0,0,0)" d="M -18.0547 -48.93198 L -3.31532 -78.40727 "/>
<text fill-opacity="0" transform="matrix(1,0,-0,1,-5,152)" font-size="9.96264" font-family="CIKBNM+CMMI10" x="88.195" y="-105.036">
p
</text>
<use xlink:href="#font_1_3" transform="matrix(9.96264,0,0,-9.96264,82.8762,48.896748)"/>
<text fill-opacity="0" transform="matrix(1,0,-0,1,-5,152)" font-size="6.9738503" font-family="ZEOTZW+CMR7" x="93.208" y="-103.542">
0
</text>
<use xlink:href="#font_2_1" transform="matrix(6.9738503,0,0,-6.9738503,88.57064,48.597477)"/>
<path transform="matrix(1,0,0,-1,66.676,3.2680054)" stroke-width=".3985" stroke-linecap="butt" stroke-miterlimit="10" stroke-linejoin="miter" fill="none" stroke="rgb(0,0,0)" d="M 3.20537 -6.41176 L 17.94476 -35.88704 "/>
<text fill-opacity="0" transform="matrix(1,0,-0,1,-5,152)" font-size="9.96264" font-family="IOPLJO+CMSY10" x="67.802" y="-102.753">
&#x22a5;
</text>
<symbol id="font_4_1"><path d="M .354 .632 C .354 .65000004 .354 .66800004 .33400002 .66800004 C .314 .66800004 .314 .647 .314 .632 L .314 .040000003 L .036000002 .040000003 C .021000002 .040000003 0 .040000003 0 .020000001 C 0 0 .021000002 0 .036000002 0 L .633 0 C .65000004 0 .66800004 0 .66800004 .020000001 C .66800004 .040000003 .65000004 .040000003 .633 .040000003 L .354 .040000003 L .354 .632 Z "/>
</symbol><use xlink:href="#font_4_1" transform="matrix(9.96264,0,0,-9.96264,63.34995,49.247)"/>
<text fill-opacity="0" transform="matrix(1,0,-0,1,-5,152)" font-size="9.96264" font-family="IOPLJO+CMSY10" x="46.542" y="-60.233">
&#x22a5;
</text>
<use xlink:href="#font_4_1" transform="matrix(9.96264,0,0,-9.96264,42.089947,91.767)"/>
<text fill-opacity="0" transform="matrix(1,0,-0,1,-5,152)" font-size="9.96264" font-family="CIKBNM+CMMI10" x="87.984" y="-40.245">
A
</text>
<symbol id="font_1_2"><path d="M .14400001 .115 C .10400002 .048 .065 .034 .021000002 .031000001 C .009000003 .030000001 0 .030000001 0 .011000001 C 0 .0050000004 .0050000027 0 .013 0 C .040000003 0 .07100001 .003 .09900001 .003 C .13200001 .003 .16700001 0 .19900002 0 C .20500001 0 .21800002 0 .21800002 .019000001 C .21800002 .030000001 .20900002 .031000001 .20200002 .031000001 C .17900002 .033 .15500002 .041 .15500002 .066 C .15500002 .078 .16100001 .089 .16900001 .10300001 L .245 .231 L .49600002 .231 C .49800006 .21000001 .512 .074 .512 .064 C .512 .034 .46000004 .031000001 .44000003 .031000001 C .42600003 .031000001 .41600004 .031000001 .41600004 .011000001 C .41600004 0 .42800003 0 .43000004 0 C .47100005 0 .514 .003 .555 .003 C .58 .003 .643 0 .668 0 C .674 0 .686 0 .686 .020000001 C .686 .031000001 .676 .031000001 .663 .031000001 C .601 .031000001 .601 .038000003 .598 .067 L .537 .69200003 C .535 .712 .535 .716 .518 .716 C .502 .716 .49800006 .70900005 .492 .69900006 L .14400001 .115 M .26400003 .26200002 L .46100003 .592 L .493 .26200002 L .26400003 .26200002 Z "/>
</symbol><use xlink:href="#font_1_2" transform="matrix(9.96264,0,0,-9.96264,83.332695,111.755005)"/>
</g>
</svg>
