<?xml version="1.0" standalone="no"?>
<!DOCTYPE svg PUBLIC "-//W3C//DTD SVG 1.1//EN" "http://www.w3.org/Graphics/SVG/1.1/DTD/svg11.dtd">
<svg xmlns="http://www.w3.org/2000/svg" xmlns:xlink="http://www.w3.org/1999/xlink" version="1.1" width="4.8330555cm" height="2.9633334cm" viewBox="0 0 137 84">
<clipPath id="cp0">
<path transform="matrix(1,0,0,-1,0,84)" d="M 0 0 L 136.08 0 L 136.08 90.627 L 0 90.627 Z "/>
</clipPath>
<g clip-path="url(#cp0)">
<text fill-opacity="0" transform="matrix(1,0,-0,1,.0000076293945,84)" font-size="9.96264" font-family="IAQWVT+CMMI10" x="37.301" y="-76.514">
V
</text>
<symbol id="font_1_3"><path d="M .572 .591 C .62100005 .669 .66300005 .67200005 .70000005 .674 C .712 .6750001 .71300006 .69200003 .71300006 .693 C .71300006 .70100003 .70800006 .70500004 .70000005 .70500004 C .674 .70500004 .64500004 .702 .61800003 .702 C .58500004 .702 .55100006 .70500004 .51900005 .70500004 C .513 .70500004 .50000006 .70500004 .50000006 .68600005 C .50000006 .6750001 .509 .674 .51600003 .674 C .54300004 .67200005 .56200004 .66200006 .56200004 .64100003 C .56200004 .62600005 .54700005 .60400003 .54700005 .60300004 L .24000001 .115 L .17200002 .64400005 C .17200002 .6610001 .19500002 .674 .24100003 .674 C .25500003 .674 .26600003 .674 .26600003 .69400007 C .26600003 .70300007 .25800002 .70500004 .25200003 .70500004 C .21200001 .70500004 .169 .702 .12800002 .702 C .11000001 .702 .091 .70300007 .07300001 .70300007 C .055000007 .70300007 .036000006 .70500004 .019000001 .70500004 C .012000002 .70500004 0 .70500004 0 .68600005 C 0 .674 .009000003 .674 .024999999 .674 C .08100001 .674 .08200001 .665 .085 .64000005 L .164 .023000002 C .167 .0030000005 .171 0 .18400002 0 C .20000002 0 .20400003 .005000001 .21200001 .018000001 L .572 .591 Z "/>
</symbol><use xlink:href="#font_1_3" transform="matrix(9.96264,0,0,-9.96264,37.858913,7.7051783)"/>
<text fill-opacity="0" transform="matrix(1,0,-0,1,.0000076293945,84)" font-size="9.96264" font-family="WCFTGI+CMR10" x="45.326" y="-76.514">
[
</text>
<symbol id="font_2_2"><path d="M .13700002 0 L .13700002 .03999999 L .04 .03999999 L .04 .96000004 L .13700002 .96000004 L .13700002 1 L 0 1 L 0 0 L .13700002 0 Z "/>
</symbol><use xlink:href="#font_2_2" transform="matrix(9.96264,0,0,-9.96264,46.5016,9.97666)"/>
<text fill-opacity="0" transform="matrix(1,0,-0,1,.0000076293945,84)" font-size="9.96264" font-family="IAQWVT+CMMI10" x="48.093" y="-76.514">
G
</text>
<symbol id="font_1_1"><path d="M .71000004 .71700007 C .71000004 .72 .708 .72700006 .699 .72700006 C .69600004 .72700006 .69500005 .7260001 .684 .71500003 L .614 .6380001 C .605 .65200007 .559 .72700006 .448 .72700006 C .22500001 .72700006 0 .50600004 0 .27400002 C 0 .115 .11100002 0 .273 0 C .317 0 .36200002 .0090000015 .398 .024000002 C .448 .044000003 .467 .065000005 .485 .085 C .49400002 .060000002 .52000004 .023000002 .53000003 .023000002 C .535 .023000002 .537 .026000002 .537 .027000003 C .53900003 .029000003 .549 .067 .554 .088 L .573 .165 C .577 .18200001 .582 .199 .586 .216 C .597 .261 .598 .263 .65500003 .26400003 C .66 .26400003 .671 .26500002 .671 .28400004 C .671 .29100004 .666 .29500002 .658 .29500002 C .63500005 .29500002 .57600003 .29200003 .55300003 .29200003 C .522 .29200003 .444 .29500002 .41300002 .29500002 C .404 .29500002 .39200002 .29500002 .39200002 .27500004 C .39200002 .26400003 .4 .26400003 .42200002 .26400003 C .423 .26400003 .45200002 .26400003 .47500002 .26200002 C .501 .25900003 .50600004 .256 .50600004 .24300002 C .50600004 .23400001 .495 .18900001 .485 .15200001 C .45700002 .042000003 .327 .031000003 .292 .031000003 C .19600001 .031000003 .091000006 .088 .091000006 .24100001 C .091000006 .272 .10100001 .43700004 .20600002 .56700003 C .26 .63500005 .357 .69600004 .45600003 .69600004 C .558 .69600004 .61700004 .619 .61700004 .503 C .61700004 .46300003 .614 .46200004 .614 .45200002 C .614 .44200003 .625 .44200003 .629 .44200003 C .642 .44200003 .642 .44400004 .647 .46200004 L .71000004 .71700007 Z "/>
</symbol><use xlink:href="#font_1_1" transform="matrix(9.96264,0,0,-9.96264,48.591137,7.7051783)"/>
<.361 .044000003 C .25500003 .044000003 .25500003 .055000003 .25500003 .086 L .25500003 .63600004 Z "/>
</symbol><use xlink:href="#font_3_1" transform="matrix(4.98132,0,0,-4.98132,71.97533,84.408005)"/>
<path transform="matrix(1,0,0,-1,57.092,127.763)" stroke-width=".3985" stroke-linecap="butt" stroke-miterlimit="10" stroke-linejoin="miter" fill="none" stroke="rgb(0,0,0)" d="M 0 0 L 0 113.38766 "/>
<text fill-opacity="0" transform="matrix(1,0,-0,1,0,139)" font-size="9.96264" font-family="NIAIDA+LMRoman10-Regular" x="50.447 58.197933" y="-128.362 -128.362">
On
</text>
<symbol id="font_4_50"><path d="M .665 .36100003 C .665 .56500006 .51400006 .72700006 .33200002 .72700006 C .153 .72700006 0 .56700003 0 .36100003 C 0 .156 .15400001 0 .33200002 0 C .51400006 0 .665 .15900001 .665 .36100003 M .56200004 .37500003 C .56200004 .11000001 .42500004 .026000002 .33300003 .026000002 C .23700002 .026000002 .10300001 .11400001 .10300001 .37500003 C .10300001 .63400006 .24900001 .702 .33200002 .702 C .41900003 .702 .56200004 .63100004 .56200004 .37500003 Z "/>
</symbol><symbol id="font_4_4d"><path d="M .503 0 L .503 .031000001 C .451 .031000001 .42600003 .031000001 .425 .061000004 L .425 .252 C .425 .33800003 .425 .36900002 .39400002 .40500003 C .38000003 .42200002 .347 .44200003 .289 .44200003 C .216 .44200003 .169 .39900002 .141 .337 L .141 .44200003 L 0 .43100002 L 0 .4 C .07000001 .4 .07800001 .393 .07800001 .344 L .07800001 .076000005 C .07800001 .031000001 .067 .031000001 0 .031000001 L 0 0 L .113000005 .003 L .225 0 L .225 .031000001 C .158 .031000001 .147 .031000001 .147 .076000005 L .147 .26000002 C .147 .36400002 .218 .42000002 .282 .42000002 C .345 .42000002 .356 .36600003 .356 .30900002 L .356 .076000005 C .356 .031000001 .345 .031000001 .278 .031000001 L .278 0 L .391 .003 L .503 0 Z "/>
</symbol><use xlink:href="#font_4_50" transform="matrix(9.96264,0,0,-9.96264,51.004906,10.857179)"/>
<use xlink:href="#font_4_4d" transform="matrix(9.96264,0,0,-9.96264,58.51674,10.6380005)"/>
<path transform="matrix(1,0,0,-1,57.092,127.763)" stroke-width=".79701" stroke-linecap="butt" stroke-miterlimit="10" stroke-linejoin="miter" fill="none" stroke="rgb(0,0,0)" d="M -56.69382 113.38766 C -50.3156 87.87476 -28.34691 0 0 0 C 28.3469 0 50.31558 87.87474 56.69382 113.38766 "/>
<text fill-opacity="0" transform="matrix(1,0,-0,1,0,139)" font-size="9.96264" font-family="LXURMQ+CMMI10" x="103.088" y="-130.833">
V
</text>
<symbol id="font_5_3"><path d="M .572 .591 C .62100005 .669 .66300005 .67200005 .70000005 .674 C .712 .6750001 .71300006 .69200003 .71300006 .693 C .71300006 .70100003 .70800006 .70500004 .70000005 .70500004 C .674 .70500004 .64500004 .702 .61800003 .702 C .58500004 .702 .55100006 .70500004 .51900005 .70500004 C .513 .70500004 .50000006 .70500004 .50000006 .68600005 C .50000006 .6750001 .509 .674 .51600003 .674 C .54300004 .67200005 .56200004 .66200006 .56200004 .64100003 C .56200004 .62600005 .54700005 .60400003 .54700005 .60300004 L .24000001 .115 L .17200002 .64400005 C .17200002 .6610001 .19500002 .674 .24100003 .674 C .25500003 .674 .26600003 .674 .26600003 .69400007 C .26600003 .70300007 .25800002 .70500004 .25200003 .70500004 C .21200001 .70500004 .169 .702 .12800002 .702 C .11000001 .702 .091 .70300007 .07300001 .70300007 C .055000007 .70300007 .036000006 .70500004 .019000001 .70500004 C .012000002 .70500004 0 .70500004 0 .68600005 C 0 .674 .009000003 .674 .024999999 .674 C .08100001 .674 .08200001 .665 .085 .64000005 L .164 .023000002 C .167 .0030000005 .171 0 .18400002 0 C .20000002 0 .20400003 .005000001 .21200001 .018000001 L .572 .591 Z "/>
</symbol><use xlink:href="#font_5_3" transform="matrix(9.96264,0,0,-9.96264,103.645905,8.386186)"/>
<text fill-opacity="0" transform="matrix(1,0,-0,1,0,139)" font-size="9.96264" font-family="XWULZC+CMR10" x="111.113" y="-130.833">
[
</text>
<symbol id="font_6_2"><path d="M .13700002 0 L .13700002 .03999999 L .04 .03999999 L .04 .96000004 L .13700002 .96000004 L .13700002 1 L 0 1 L 0 0 L .13700002 0 Z "/>
</symbol><use xlink:href="#font_6_2" transform="matrix(9.96264,0,0,-9.96264,110005 .721 .74200004 .711 L .669 .634 C .66 .646 .60400003 .723 .481 .723 C .23800004 .723 0 .508 0 .28200004 C 0 .11900001 .12800002 0 .307 0 C .36100003 0 .45700002 .011000001 .56000006 .098000005 C .63900006 .165 .661 .252 .661 .26000002 C .661 .27300003 .64900005 .27300003 .64400005 .27300003 C .63100004 .27300003 .62900007 .268 .62600005 .25700003 C .58500004 .120000005 .44500005 .036000002 .32400003 .036000002 C .21800002 .036000002 .1 .09300001 .1 .25100002 C .1 .28000003 .107 .43800002 .22200003 .564 C .29100004 .64100003 .39600003 .68700004 .49100006 .68700004 C .60700005 .68700004 .6750001 .603 .6750001 .49100003 C .6750001 .46300003 .67200005 .45600003 .67200005 .45000002 C .67200005 .43700004 .68500006 .43700004 .69000006 .43700004 C .70600003 .43700004 .70600003 .44000003 .711 .45900002 L .77300006 .71000004 Z "/>
</symbol><use xlink:href="#font_1_5" transform="matrix(6.9738503,0,0,-6.9738503,15.306163,10.09248)"/>
<text fill-opacity="0" transform="matrix(1,0,-0,1,-.00000667572,158)" font-size="4.98132" font-family="WXWCLL+CMMI5" x="20.533" y="-146.99">
&#x03b2;
</text>
<symbol id="font_4_1"><path d="M .639 .75500005 C .639 .85800004 .535 .90000004 .44300002 .90000004 C .31599998 .90000004 .189 .762 .16000001 .646 L .0029999986 .017000005 C 0 .003999993 .009999998 0 .023999996 0 C .034999996 0 .041999996 .002000004 .045 .016000003 L .10800001 .269 L .109 .268 C .15 .21000001 .20400001 .184 .27500004 .184 C .45 .184 .60800004 .292 .60800004 .43 C .60800004 .50200003 .57600003 .548 .521 .589 C .57100004 .61600006 .639 .6750001 .639 .75500005 M .413 .58800006 C .39500004 .584 .376 .58300006 .357 .58300006 C .342 .58300006 .32700002 .584 .31300002 .586 C .33100003 .591 .352 .592 .371 .592 C .385 .592 .399 .591 .413 .58800006 M .563 .772 C .563 .708 .53000003 .64500004 .472 .61100006 C .45 .62 .40100002 .625 .371 .625 C .343 .625 .263 .62700003 .263 .584 C .263 .556 .297 .549 .356 .549 C .412 .549 .43400002 .556 .47000003 .566 C .509 .541 .524 .499 .524 .455 C .524 .315 .42000002 .21800001 .283 .21800001 C .20600002 .21800001 .132 .25800002 .132 .343 C .132 .352 .133 .365 .136 .379 L .19900002 .63 C .228 .74600005 .329 .86600006 .445 .86600006 C .49800003 .86600006 .563 .84900004 .563 .772 Z "/>
</symbol><use xlink:href="#font_4_1" transform="matrix(4.98132,0,0,-4.98132,20.986294,11.976371)"/>
<path transform="matrix(1,0,0,-1,142.131,157.231)" stroke-width=".3985" stroke-linecap="butt" stroke-miterlimit="10" stroke-linejoin="miter" fill="none" stroke="rgb(128,128,128)" stroke-opacity=".5" d="M -113.38724 141.73404 L -113.38724 0 "/>
<path transform="matrix(1,0,0,-1,142.131,157.231)" d="M -111.9782 113.38724 C -111.9782 114.16542 -112.60904 114.79628 -113.38724 114.79628 C -114.16542 114.79628 -114.79628 114.16542 -114.79628 113.38724 C -114.79628 112.60904 -114.16542 111.9782 -113.38724 111.9782 C -112.60904 111.9782 -111.9782 112.60904 -111.9782 113.38724 Z M -113.38724 113.38724 "/>
<path transform="matrix(1,0,0,-1,142.131,157.231)" d="M -111.9782 119.0565 C -111.9782 119.8347 -112.60904 120.46555 -113.38724 120.46555 C -114.16542 120.46555 -114.79628 119.8347 -114.79628 119.0565 C -114.79628 118.27832 -114.16542 117.64746 -113.38724 117.64746 C -112.60904 117.64746 -111.9782 118.27832 -111.9782 119.0565 Z M -113.38724 119.0565 "/>
<path transform="matrix(1,0,0,-1,142.131,157.231)" d="M -111.9782 127.56062 C -111.9782 128.33882 -112.60904 128.96967 -113.38724 128.96967 C -114.16542 128.96967 -114.79628 128.33882 -114.79628 127.56062 C -114.79628 126.78244 -114.16542 126.15158 -113.38724 126.15158 C -112.60904 126.15158 -111.9782 126.78244 -111.9782 127.56062 Z M -113.38724 127.56062 "/>
<path transform="matrix(1,0,0,-1,142.131,157.231)" d="M -111.9782 14.17339 C -111.9782 14.95158 -112.60904 15.58243 -113.38724 15.58243 C -114.16542 15.58243 -114.79628 14.95158 -114.79628 14.17339 C -114.79628 13.3952 -114.16542 12.76434 -113.38724 12.76434 C -112.60904 12.76434 -111.9782 13.3952 -111.9782 14.17339 Z M -113.38724 14.17339 "/>
<path transform="matrix(1,0,0,-1,142.131,157.231)" d="M -111.9782 36.85092 C -111.9782 0,-0,1,-5,152)" font-size="9.96264" font-family="CIKBNM+CMMI10" x="88.4" y="-40.245">
A
</text>
<symbol id="font_1_2"><path d="M .14400001 .115 C .10400002 .048 .065 .034 .021000002 .031000001 C .009000003 .030000001 0 .030000001 0 .011000001 C 0 .0050000004 .0050000027 0 .013 0 C .040000003 0 .07100001 .003 .09900001 .003 C .13200001 .003 .16700001 0 .19900002 0 C .20500001 0 .21800002 0 .21800002 .019000001 C .21800002 .030000001 .20900002 .031000001 .20200002 .031000001 C .17900002 .033 .15500002 .041 .15500002 .066 C .15500002 .078 .16100001 .089 .16900001 .10300001 L .245 .231 L .49600002 .231 C .49800006 .21000001 .512 .074 .512 .064 C .512 .034 .46000004 .031000001 .44000003 .031000001 C .42600003 .031000001 .41600004 .031000001 .41600004 .011000001 C .41600004 0 .42800003 0 .43000004 0 C .47100005 0 .514 .003 .555 .003 C .58 .003 .643 0 .668 0 C .674 0 .686 0 .686 .020000001 C .686 .031000001 .676 .031000001 .663 .031000001 C .601 .031000001 .601 .038000003 .598 .067 L .537 .69200003 C .535 .712 .535 .716 .518 .716 C .502 .716 .49800006 .70900005 .492 .69900006 L .14400001 .115 M .26400003 .26200002 L .46100003 .592 L .493 .26200002 L .26400003 .26200002 Z "/>
</symbol><use xlink:href="#font_1_2" transform="matrix(9.96264,0,0,-9.96264,83.748695,111.755005)"/>
</g>
</svg>
